SplineFontDB: 1.0
FontName: TlwgTypist-BoldOblique
FullName: Tlwg Typist Bold Oblique
FamilyName: Tlwg Typist
Weight: Bold
Copyright: Tlwg Typist, based on Poonlap Veerathanabutr's Tlwg Typewriter.\n\nCopyright (C) 2005 Theppitak Karoonboonyanan.\n\nTlwg Typewriter, Free Thai Pseudo Monospace outline font.\n\nCopyright (C) 2003, 2004 Poonlap Veerathanabutr <poonlap@linux.thai.net>
Comments: 2003-11-20: Created. \nPfaEdit 1.0 (http://pfaedit.sf.net).\n\nTLWG is Thai Linux Working Group http://linux.thai.net\n\nImported ISO-8859-1 from FreeMono.sfd.\nhttp://www.nongnu.org/freefont/\n\n2003-11-22: first release\n\n2003-11-25: Fixed vowel and tone marks' level.
Version: 001.000: 2006-04-09
ItalicAngle: -12
UnderlinePosition: -100
UnderlineWidth: 50
Ascent: 800
Descent: 200
NeedsXUIDChange: 1
FSType: 0
PfmFamily: 49
TTFWeight: 700
TTFWidth: 5
LineGap: 90
VLineGap: 0
Panose: 2 0 6 3 0 0 0 0 0 0
OS2TypoAscent: 0
OS2TypoAOffset: 1
OS2TypoDescent: 0
OS2TypoDOffset: 1
OS2TypoLinegap: 90
OS2WinAscent: 0
OS2WinAOffset: 1
OS2WinDescent: 0
OS2WinDOffset: 1
HheadAscent: 0
HheadAOffset: 1
HheadDescent: 0
HheadDOffset: 1
OS2SubXSize: 7
OS2SubYSize: 20048
OS2SubXOff: 36
OS2SubYOff: 524
OS2SupXSize: 573
OS2SupYSize: 354
OS2SupXOff: 1
OS2SupYOff: -31368
OS2StrikeYSize: 4
OS2StrikeYPos: -27728
OS2Vendor: 'PfEd'
ScriptLang: 4
 1 thai 4 KUY  PAL  THA  dflt 
 1 latn 1 dflt 
 1 DFLT 1 dflt 
 1 thai 1 PAL  
ContextSub: glyph 0 3 ' RQD' 0 0 0 1
 String: 15 uni0E0D uni0E10
 BString: 0 
 FString: 0 
 1
  SeqLookup: 0 'ndsc'
EndFPST
ChainSub: coverage 0 0 'ccmp' 0 0 0 1
 2 0 0
  Coverage: 19 uni0E4B uni0E4B.low
  Coverage: 7 uni0E4D
 2
  SeqLookup: 0 'amni'
  SeqLookup: 1 'G007'
EndFPST
ChainSub: coverage 0 0 'ccmp' 0 0 0 1
 2 0 0
  Coverage: 19 uni0E4A uni0E4A.low
  Coverage: 7 uni0E4D
 2
  SeqLookup: 0 'amni'
  SeqLookup: 1 'G006'
EndFPST
ChainSub: coverage 0 0 'ccmp' 0 0 0 1
 2 0 0
  Coverage: 19 uni0E49 uni0E49.low
  Coverage: 7 uni0E4D
 2
  SeqLookup: 0 'amni'
  SeqLookup: 1 'G005'
EndFPST

StartChar: mu
Encoding: 116 181 0
Width: 600
Flags: W
HStem: -16 100<239.5 300> 0 100<505 550.5> 337 100<151 172 447 482>
Fore
194 -7 m 1xa0
 177 -87 l 2
 171 -113 167 -122 158 -132 c 0
 145 -145 128 -153 112 -153 c 0
 95 -153 81 -144 75 -129 c 0
 71 -121 72 -110 77 -87 c 2
 167 337 l 1
 151 337 l 2
 126 337 115 339 107 347 c 0
 97 356 92 372 95 387 c 0
 99 404 111 421 128 430 c 0
 140 436 145 437 172 437 c 2
 288 437 l 1
 226 144 l 2
 216 101 232 84 278 84 c 0xa0
 322 84 367 99 439 138 c 1
 482 337 l 1
 447 337 l 2
 422 337 411 339 404 347 c 1
 393 356 388 372 391 387 c 0
 395 404 407 421 424 430 c 0
 435 436 444 437 468 437 c 2
 603 437 l 1
 531 100 l 1
 570 100 588 82 582 50 c 0
 578 33 566 17 548 7 c 0
 539 2 526 0 505 0 c 2
 410 0 l 1x60
 415 22 l 1
 355 -4 302 -16 250 -16 c 0
 229 -16 212 -13 194 -7 c 1xa0
EndSplineSet
EndChar
StartChar: uni0E31
Encoding: 239 3633 1
Width: 0
Flags: W
HStem: 484 64<-143 -70.5> 615 56<-134.5 -85.5>
AnchorPoint: "AboveMark" 18.79 700 basemark 0
AnchorPoint: "AboveBase" 6.27832 500 mark 0
Fore
-123 615 m 0
 -139 615 -155 601 -159 583 c 0
 -163 564 -144 548 -117 548 c 0
 -112 548 -105 564 -101 583 c 0
 -97 601 -107 615 -123 615 c 0
-111 671 m 16
 -60 671 -36 625 -45 583 c 0
 -47 576 -48 572 -51 566 c 1
 7 572 63 638 92 665 c 9
 132 605 l 17
 70 536 -34 484 -107 484 c 0
 -179 484 -231 509 -215 583 c 0
 -205 632 -158 671 -111 671 c 16
EndSplineSet
EndChar
StartChar: uni0E34
Encoding: 242 3636 2
Width: 0
Flags: W
HStem: 621 50<-240 -91>
AnchorPoint: "AboveMark" 8.79004 700 basemark 0
AnchorPoint: "AboveBase" 6.27832 500 mark 0
Fore
-3 500 m 5
 -3 500 -98 513 -153 522 c 4
 -243 572 -378 550 -378 550 c 5
 -378 550 -290 671 -190 671 c 4
 8 671 -3 500 -3 500 c 5
-280 594 m 5
 -245 596 -193 593 -139 576 c 4
 -112 573 -86 567 -69 563 c 5
 -85 589 -119 621 -201 621 c 4
 -230 621 -259 606 -280 594 c 5
EndSplineSet
EndChar
StartChar: uni0E35
Encoding: 243 3637 3
Width: 0
Flags: W
HStem: 621 50<-240 -151.5>
AnchorPoint: "AboveMark" 5.79004 700 basemark 0
AnchorPoint: "AboveBase" 6.27832 500 mark 0
Fore
-280 594 m 1
 -245 596 -193 593 -139 576 c 0
 -107 571 -76 564 -55 559 c 1
 -72 586 -111 621 -201 621 c 0
 -230 621 -259 606 -280 594 c 1
11 500 m 1
 11 500 -89 522 -147 536 c 0
 -244 561 -378 550 -378 550 c 1
 -378 550 -290 671 -190 671 c 0
 -113 671 -68 647 -41 617 c 1
 -24 695 l 5
 47 697 l 1
 10 523 l 1
 12 509 11 500 11 500 c 1
EndSplineSet
EndChar
StartChar: uni0E36
Encoding: 244 3638 4
Width: 0
Flags: W
HStem: 582 21G<-18 3> 621 50<-240 -156> 641 41<-6 35.5>
AnchorPoint: "AboveMark" 19.79 700 basemark 0
AnchorPoint: "AboveBase" 6.27832 500 mark 0
Fore
-280 594 m 1xc0
 -245 596 -193 593 -139 576 c 0
 -107 571 -76 564 -55 559 c 1
 -72 586 -111 621 -201 621 c 0
 -230 621 -259 606 -280 594 c 1xc0
-3 500 m 1
 -3 500 -94 522 -147 536 c 0
 -244 561 -378 550 -378 550 c 1
 -378 550 -290 671 -190 671 c 0xc0
 -127 671 -87 655 -58 634 c 1
 -46 661 -15 682 16 682 c 0xa0
 55 682 80 651 72 612 c 0
 64 576 29 547 -10 545 c 1
 -1 520 -3 500 -3 500 c 1
6 641 m 0xa0
 -18 641 -42 626 -45 612 c 0
 -49 594 -30 582 -6 582 c 0
 12 582 26 594 30 612 c 0
 33 626 24 641 6 641 c 0xa0
EndSplineSet
EndChar
StartChar: uni0E37
Encoding: 245 3639 5
Width: 0
Flags: W
HStem: 621 50<-240 -155>
AnchorPoint: "AboveMark" -28.21 700 basemark 0
AnchorPoint: "AboveBase" 6.27832 500 mark 0
Fore
-280 594 m 1
 -245 596 -193 593 -139 576 c 0
 -106 571 -73 564 -51 559 c 1
 -69 586 -109 621 -201 621 c 0
 -230 621 -259 606 -280 594 c 1
-2 500 m 1
 -2 500 -94 522 -147 536 c 0
 -244 561 -378 550 -378 550 c 1
 -378 550 -290 671 -190 671 c 0
 -154 671 -126 665 -103 654 c 1
 -97 680 l 1
 -35 680 l 1
 -46 630 l 1
 -45 627 -44 623 -42 619 c 1
 -26 695 l 1
 36 697 l 5
 -3 513 l 2
 -3 505 -2 500 -2 500 c 1
EndSplineSet
EndChar
StartChar: uni0E47
Encoding: 261 3655 6
Width: 0
Flags: W
HStem: 486 38<-82.5 -41> 547 50<-152.5 -127> 571 36<-49.5 -18> 625 45<-64 -2> 642 50<-156.5 -106.5>
AnchorPoint: "AboveBase" 6.27832 500 mark 0
AnchorPoint: "AboveMark" -146.722 500 mark 0
Fore
-74 547 m 4xc0
 -76 535 -66 524 -53 524 c 4
 -39 524 -23 535 -21 547 c 4xc0
 -18 560 -29 571 -43 571 c 4xa0
 -56 571 -71 560 -74 547 c 4xc0
-97 568 m 5
 -86 591 -61 607 -35 607 c 4xa0
 -1 607 21 581 14 547 c 4
 7 514 -25 486 -57 486 c 4
 -108 486 -126 547 -145 547 c 4
 -160 547 -179 518 -176 470 c 5
 -245 470 -288 527 -275 590 c 4
 -260 657 -190 692 -123 692 c 4xc8
 -90 692 -75 670 -42 670 c 4
 -7 670 -6 680 1 714 c 5
 74 705 l 5
 60 641 38 625 -42 625 c 4x90
 -86 625 -106 642 -134 642 c 4x88
 -167 642 -193 619 -200 590 c 4
 -204 570 -200 554 -177 549 c 5
 -180 570 -161 597 -134 597 c 4
 -120 597 -109 584 -97 568 c 5
EndSplineSet
EndChar
StartChar: uni0E48
Encoding: 262 3656 7
Width: 0
Flags: W
AnchorPoint: "AboveMark" 8.79004 700 mark 0
Fore
21 892 m 1
 92 892 l 1
 46 679 l 1
 -25 679 l 1
 21 892 l 1
EndSplineSet
Substitution: 0 65534 'loww' uni0E48.low
Substitution: 0 65534 'amni' uni0E4D
EndChar
StartChar: uni0E49
Encoding: 263 3657 8
Width: 0
Flags: W
HStem: 696 95<-162 -68.5> 844 31<-71.5 -40.5>
AnchorPoint: "AboveMark" 8.79004 700 mark 0
Fore
-89 819 m 0
 -92 804 -85 791 -74 791 c 0
 -63 791 -50 804 -47 819 c 0
 -44 832 -52 844 -63 844 c 0
 -74 844 -86 832 -89 819 c 0
-124 819 m 0
 -117 850 -87 875 -56 875 c 0
 -25 875 -5 850 -12 819 c 0
 -14 810 -18 801 -25 794 c 0
 -32 780 -44 764 -63 746 c 1
 24 761 78 806 107 869 c 1
 184 867 l 1
 120 742 -2 696 -162 696 c 1
 -153 740 l 1
 -136 750 -123 759 -111 768 c 1
 -123 775 -129 795 -124 819 c 0
EndSplineSet
Substitution: 0 65534 'loww' uni0E49.low
Substitution: 0 65534 'amni' uni0E4D
EndChar
StartChar: uni0E4B
Encoding: 265 3659 9
Width: 0
Flags: W
AnchorPoint: "AboveMark" 8.79004 700 mark 0
Fore
-10 748 m 1
 -60 748 l 1
 -47 808 l 1
 6 821 l 1
 19 886 l 1
 90 886 l 1
 77 821 l 1
 149 808 l 1
 136 748 l 1
 61 748 l 1
 46 679 l 1
 -23 686 l 1
 -10 748 l 1
EndSplineSet
Substitution: 0 65534 'loww' uni0E4B.low
Substitution: 0 65534 'amni' uni0E4D
EndChar
StartChar: uni0E4C
Encoding: 266 3660 10
Width: 0
Flags: W
HStem: 686 35<-25.5 5.5>
AnchorPoint: "AboveMark" -5.20996 700 mark 0
Fore
-18 746 m 0
 -21 733 -14 721 -3 721 c 0
 8 721 21 733 24 746 c 0
 26 759 19 770 8 770 c 0
 -3 770 -16 759 -18 746 c 0
51 783 m 1
 58 773 62 761 59 746 c 0
 52 713 21 686 -10 686 c 0
 -41 686 -60 713 -53 746 c 0
 -50 761 -41 773 -28 785 c 0
 4 821 91 830 102 879 c 1
 163 870 l 1
 152 820 97 794 51 783 c 1
EndSplineSet
Substitution: 0 65534 'loww' uni0E4C.low
EndChar
StartChar: exclam
Encoding: 1 33 12
Width: 600
Flags: W
HStem: -15 132<289 334>
Fore
491 525 m 1
 398 228 l 2
 389 197 367 179 339 179 c 0
 311 179 296 198 299 228 c 2
 334 525 l 1
 335 537 337 551 339 558 c 0
 348 604 390 638 437 638 c 0
 483 638 509 604 500 558 c 0
 498 552 494 538 491 525 c 1
306 -15 m 2
 289 -15 l 2
 252 -15 228 15 236 51 c 0
 243 87 280 117 317 117 c 2
 334 117 l 2
 371 117 394 88 386 51 c 0
 378 14 343 -15 306 -15 c 2
EndSplineSet
EndChar
StartChar: quotedbl
Encoding: 2 34 13
Width: 600
Flags: W
Fore
264 602 m 1
 392 602 l 1
 307 348 l 1
 297 322 287 312 267 312 c 0
 248 312 241 322 244 347 c 1
 264 602 l 1
464 602 m 1
 592 602 l 1
 507 348 l 1
 497 322 487 312 467 312 c 0
 448 312 441 322 444 347 c 1
 464 602 l 1
EndSplineSet
EndChar
StartChar: numbersign
Encoding: 3 35 14
Width: 600
Flags: W
HStem: 139 99<158 184 284 384 482 502> 344 100<222 243 342 441 541 566>
Fore
541 444 m 1
 566 444 l 2
 593 444 601 442 609 435 c 0
 620 425 625 410 622 394 c 0
 618 377 606 360 589 351 c 0
 579 346 569 344 545 344 c 2
 513 344 l 1
 483 238 l 1
 502 238 l 2
 529 238 538 236 546 229 c 0
 557 219 561 204 558 188 c 0
 554 171 542 155 525 146 c 0
 515 141 505 139 482 139 c 2
 455 139 l 1
 408 -29 l 2
 404 -44 392 -67 385 -73 c 0
 373 -85 356 -92 342 -92 c 0
 315 -92 297 -67 304 -41 c 1
 323 17 338 80 356 139 c 1
 284 139 l 1
 236 -29 l 1
 227 -70 205 -92 172 -92 c 0
 143 -92 127 -70 133 -40 c 0
 134 -36 136 -29 138 -22 c 1
 184 139 l 1
 158 139 l 2
 133 139 123 141 114 148 c 0
 104 158 99 173 102 189 c 0
 106 205 118 222 135 231 c 0
 145 237 153 238 179 238 c 2
 212 238 l 1
 241 344 l 1
 222 344 l 2
 195 344 187 346 178 353 c 0
 167 363 163 379 166 394 c 0
 169 411 182 428 199 437 c 0
 209 443 216 444 243 444 c 2
 269 444 l 1
 317 612 l 1
 324 638 327 645 337 656 c 0
 350 668 366 675 381 675 c 0
 410 675 427 651 420 623 c 1
 404 562 387 504 370 444 c 1
 441 444 l 1
 489 612 l 1
 496 640 499 646 509 656 c 0
 522 668 538 675 553 675 c 0
 579 675 600 650 593 627 c 2
 587 605 l 1
 541 444 l 1
413 344 m 1
 342 344 l 1
 312 238 l 1
 384 238 l 1
 413 344 l 1
EndSplineSet
EndChar
StartChar: dollar
Encoding: 4 36 15
Width: 600
Flags: W
Fore
482 618 m 2
 477 592 l 1
 496 588 501 588 519 582 c 2
 532 577 l 2
 532 576 536 575 540 574 c 1
 552 579 560 581 569 581 c 0
 596 581 612 563 609 536 c 0
 608 528 607 524 605 515 c 2
 599 483 l 2
 593 457 589 447 580 438 c 0
 567 424 551 417 535 417 c 0
 508 417 492 432 492 459 c 0
 493 478 456 495 415 495 c 0
 355 495 311 470 303 433 c 0
 297 406 317 387 366 377 c 2
 428 363 l 2
 487 350 520 334 540 308 c 0
 562 281 568 242 559 199 c 0
 541 112 465 47 357 27 c 1
 339 -56 l 2
 333 -84 330 -92 320 -102 c 0
 308 -115 291 -123 276 -123 c 0
 259 -123 244 -114 238 -99 c 0
 234 -90 235 -81 240 -56 c 2
 258 27 l 1
 218 36 213 38 184 52 c 1
 165 38 155 34 141 34 c 0
 123 34 109 43 102 58 c 0
 99 67 99 76 104 101 c 2
 117 162 l 2
 123 189 127 198 136 208 c 0
 149 221 166 229 182 229 c 0
 195 229 207 223 215 215 c 1
 220 207 220 207 222 180 c 0
 224 149 271 124 326 124 c 0
 391 124 446 157 456 200 c 0
 463 235 443 254 389 265 c 2
 319 280 l 2
 224 300 182 354 199 435 c 0
 216 513 289 577 378 592 c 1
 383 618 l 2
 389 645 393 653 402 664 c 1
 415 676 431 684 447 684 c 0
 464 684 478 675 484 660 c 0
 488 651 488 644 482 618 c 2
EndSplineSet
EndChar
StartChar: percent
Encoding: 5 37 16
Width: 600
Flags: W
HStem: -15 65<327 403.5> 199 65<386 463.5> 338 65<262.5 339> 552 65<321 398.5>
Fore
359 617 m 0
 438 617 486 555 469 476 c 0
 453 401 377 338 301 338 c 0
 224 338 174 401 191 478 c 0
 207 554 283 617 359 617 c 0
345 552 m 0
 305 552 264 518 256 478 c 0
 247 437 274 403 314 403 c 0
 355 403 396 437 404 477 c 0
 413 519 387 552 345 552 c 0
561 331 m 1
 174 213 l 2
 167 211 157 209 153 209 c 0
 138 209 128 224 131 241 c 0
 135 257 144 265 168 272 c 2
 555 390 l 2
 568 394 570 394 576 394 c 0
 591 394 602 379 598 362 c 0
 595 346 585 337 561 331 c 1
424 264 m 0
 503 264 551 202 534 123 c 0
 518 48 442 -15 365 -15 c 0
 289 -15 239 48 256 125 c 0
 272 201 348 264 424 264 c 0
410 199 m 0
 370 199 329 165 321 125 c 0
 312 84 339 50 380 50 c 0
 420 50 461 84 469 124 c 0
 478 166 452 199 410 199 c 0
EndSplineSet
EndChar
StartChar: ampersand
Encoding: 6 38 17
Width: 600
Flags: W
HStem: -14 100<199 287.5> 0 100<442 463> 450 100<365.5 418>
Fore
407 198 m 1xa0
 448 280 l 1
 501 280 l 2
 528 280 536 278 544 270 c 0
 555 260 559 246 556 229 c 0
 550 203 527 182 502 180 c 1
 483 139 472 121 455 100 c 1
 463 100 l 2
 490 100 498 98 506 91 c 0
 517 81 522 66 519 50 c 0
 515 33 502 16 485 7 c 0
 476 2 463 0 442 0 c 2
 381 0 l 1x60
 373 15 l 1
 339 -6 307 -14 254 -14 c 0
 144 -14 85 48 106 144 c 0
 120 211 166 267 235 303 c 1
 218 349 215 368 222 399 c 0
 239 480 325 550 406 550 c 0
 430 550 449 545 472 533 c 1
 485 537 495 540 502 540 c 0
 527 540 544 515 539 490 c 0
 534 467 523 456 487 438 c 2
 441 416 l 1
 418 442 406 450 386 450 c 0
 357 450 328 428 322 400 c 0
 320 389 325 370 338 343 c 2
 407 198 l 1xa0
333 100 m 1
 275 220 l 1
 236 204 213 177 206 144 c 0
 197 105 220 86 275 86 c 0xa0
 300 86 312 89 333 100 c 1
EndSplineSet
EndChar
StartChar: quotesingle
Encoding: 7 39 18
Width: 600
Flags: W
Fore
364 602 m 1
 492 602 l 1
 407 348 l 1
 397 322 387 312 367 312 c 0
 348 312 341 322 344 347 c 1
 364 602 l 1
EndSplineSet
EndChar
StartChar: parenleft
Encoding: 8 40 19
Width: 600
Flags: W
Fore
571 632 m 0
 600 632 618 610 612 583 c 0
 609 571 606 565 593 549 c 0
 499 437 447 341 426 240 c 0
 404 138 416 42 461 -70 c 0
 468 -86 468 -92 466 -104 c 0
 460 -131 433 -153 404 -153 c 0
 380 -153 370 -142 351 -95 c 0
 304 18 292 133 316 243 c 0
 338 350 409 478 505 587 c 0
 535 623 549 632 571 632 c 0
EndSplineSet
EndChar
StartChar: parenright
Encoding: 9 41 20
Width: 600
Flags: W
Fore
302 632 m 0
 326 632 337 621 356 574 c 0
 403 461 415 346 391 236 c 0
 368 129 298 1 202 -109 c 0
 171 -144 157 -153 135 -153 c 0
 106 -153 89 -131 95 -104 c 0
 97 -92 101 -86 114 -70 c 0
 208 42 259 138 281 239 c 0
 302 341 291 437 246 549 c 0
 239 565 238 571 241 583 c 0
 247 610 273 632 302 632 c 0
EndSplineSet
EndChar
StartChar: asterisk
Encoding: 10 42 21
Width: 600
Flags: W
HStem: 602 20G<424 440.5>
Fore
298 372 m 1
 218 400 l 2
 183 411 173 425 179 452 c 0
 185 479 212 502 237 502 c 0
 247 502 249 501 269 495 c 2
 349 467 l 1
 368 556 l 2
 373 581 378 592 387 601 c 0
 400 614 416 622 432 622 c 0
 449 622 464 613 470 598 c 0
 473 589 473 580 468 556 c 2
 449 467 l 1
 541 495 l 2
 563 501 567 502 576 502 c 0
 601 502 619 478 613 452 c 0
 608 426 590 411 552 400 c 2
 460 372 l 1
 497 301 l 2
 508 280 510 271 507 258 c 0
 501 231 473 208 446 208 c 0
 425 208 418 214 403 242 c 2
 367 314 l 1
 299 242 l 2
 273 214 262 208 242 208 c 0
 215 208 197 231 203 258 c 0
 206 271 211 279 231 301 c 1
 298 372 l 1
EndSplineSet
EndChar
StartChar: plus
Encoding: 11 43 22
Width: 600
Flags: W
HStem: 0 21G<291.5 308> 230 100<157 320 399 561>
Fore
399 230 m 1
 364 66 l 2
 358 39 355 31 345 21 c 0
 333 8 316 0 300 0 c 0
 283 0 268 9 262 24 c 0
 259 33 259 43 264 66 c 2
 299 230 l 1
 157 230 l 2
 133 230 121 232 114 239 c 0
 103 249 98 264 102 280 c 0
 105 297 118 314 135 323 c 0
 145 329 153 330 178 330 c 2
 320 330 l 1
 355 494 l 2
 361 520 365 530 375 539 c 1
 387 553 403 560 419 560 c 0
 436 560 451 551 457 536 c 0
 461 527 461 520 455 494 c 2
 420 330 l 1
 561 330 l 2
 589 330 597 328 605 321 c 0
 616 311 621 296 618 280 c 0
 614 263 601 246 584 237 c 0
 575 232 563 230 540 230 c 2
 399 230 l 1
EndSplineSet
EndChar
StartChar: comma
Encoding: 12 44 23
Width: 600
Flags: W
Fore
247 134 m 1
 379 134 l 1
 182 -134 l 2
 170 -150 156 -158 144 -158 c 0
 127 -158 116 -145 119 -130 c 0
 121 -124 121 -122 126 -111 c 2
 247 134 l 1
EndSplineSet
EndChar
StartChar: hyphen
Encoding: 13 45 24
Width: 600
Flags: W
HStem: 229 100<157 575>
Fore
541 229 m 2
 157 229 l 2
 132 229 121 231 114 238 c 0
 103 248 98 263 101 279 c 0
 105 296 117 312 134 322 c 0
 145 328 153 329 178 329 c 2
 562 329 l 2
 588 329 598 327 606 320 c 0
 617 310 621 295 617 279 c 0
 614 262 601 245 584 236 c 0
 575 231 563 229 541 229 c 2
EndSplineSet
EndChar
StartChar: period
Encoding: 14 46 25
Width: 600
Flags: W
HStem: -15 132<288 334>
Fore
306 -15 m 2
 288 -15 l 2
 252 -15 228 15 236 51 c 0
 243 87 280 117 316 117 c 2
 334 117 l 2
 371 117 394 88 386 51 c 0
 378 14 343 -15 306 -15 c 2
EndSplineSet
EndChar
StartChar: slash
Encoding: 15 47 26
Width: 600
Flags: W
Fore
635 610 m 1
 170 -69 l 1
 148 -103 133 -113 109 -113 c 0
 83 -113 64 -90 69 -65 c 0
 71 -55 76 -45 89 -27 c 2
 554 651 l 1
 577 685 592 695 615 695 c 0
 642 695 660 672 655 647 c 0
 652 636 649 630 635 610 c 1
EndSplineSet
EndChar
StartChar: zero
Encoding: 16 48 27
Width: 600
Flags: W
HStem: -15 100<222 371.5> 538 100<361.5 511>
Fore
436 638 m 0
 586 638 623 501 593 359 c 2
 573 264 l 2
 543 120 446 -15 297 -15 c 0
 147 -15 109 122 139 264 c 2
 159 359 l 2
 190 503 287 638 436 638 c 0
261 366 m 2
 238 257 l 2
 216 153 247 85 318 85 c 0
 389 85 450 153 472 257 c 2
 495 366 l 2
 517 470 485 538 414 538 c 0
 343 538 283 470 261 366 c 2
EndSplineSet
EndChar
StartChar: one
Encoding: 17 49 28
Width: 600
Flags: W
HStem: 0 100<149 472>
Fore
486 638 m 1
 371 100 l 1
 472 100 l 2
 499 100 507 98 515 91 c 0
 526 81 531 66 528 50 c 0
 524 33 512 17 494 7 c 0
 487 3 471 0 451 0 c 2
 149 0 l 2
 126 0 113 3 106 10 c 0
 95 19 90 35 94 50 c 0
 97 67 110 84 127 93 c 0
 137 99 144 100 170 100 c 2
 271 100 l 1
 358 509 l 1
 266 486 l 2
 246 481 243 480 233 480 c 0
 207 480 192 503 198 532 c 0
 204 561 220 573 262 583 c 2
 486 638 l 1
EndSplineSet
EndChar
StartChar: two
Encoding: 18 50 29
Width: 600
Flags: W
HStem: 0 100<54 508> 538 100<382 487>
Fore
228 100 m 1
 429 100 l 1
 440 136 460 154 491 154 c 0
 508 154 523 145 529 130 c 0
 532 121 532 112 527 88 c 2
 508 0 l 1
 54 0 l 1
 76 105 l 1
 274 244 296 260 350 301 c 0
 469 392 491 414 498 448 c 0
 509 499 467 538 402 538 c 0
 362 538 324 523 297 497 c 0
 284 485 283 483 265 451 c 0
 256 434 235 422 214 422 c 0
 187 422 168 444 174 470 c 0
 181 502 217 551 258 582 c 0
 305 618 367 638 426 638 c 0
 548 638 621 555 597 444 c 0
 584 379 551 341 433 251 c 0
 401 226 332 176 228 100 c 1
EndSplineSet
EndChar
StartChar: three
Encoding: 19 51 30
Width: 600
Flags: W
HStem: -15 100<206.5 320.5> 287 96<337 397> 538 100<381.5 470>
Fore
357 383 m 2
 397 383 l 2
 446 383 496 420 505 462 c 0
 515 509 478 538 409 538 c 0
 354 538 324 527 285 492 c 0
 274 483 259 477 245 477 c 0
 218 477 201 500 207 527 c 0
 219 585 330 638 437 638 c 0
 503 638 551 619 580 580 c 1
 606 549 614 505 606 464 c 0
 594 409 560 372 487 333 c 1
 555 296 581 246 568 182 c 0
 555 124 515 68 462 32 c 0
 411 -1 355 -15 268 -15 c 0
 145 -15 70 19 81 70 c 0
 87 98 114 120 142 120 c 0
 154 120 157 118 171 108 c 0
 193 91 222 85 286 85 c 0
 355 85 394 95 426 119 c 0
 447 135 463 160 468 183 c 0
 476 220 454 255 411 274 c 0
 392 283 380 285 337 287 c 0
 304 289 289 306 295 333 c 0
 301 362 327 383 357 383 c 2
EndSplineSet
EndChar
StartChar: four
Encoding: 20 52 31
Width: 600
Flags: W
HStem: 0 100<297.5 441 309 487.5> 138 100<248 398 476 517.5> 602 20G<448 579>
Fore
579 622 m 1
 498 238 l 1
 537 238 555 220 548 188 c 0
 541 156 517 139 476 138 c 1
 468 100 l 1
 507 100 525 82 519 50 c 0
 515 33 503 17 485 7 c 0
 478 3 462 0 441 0 c 2
 309 0 l 2
 286 0 273 3 266 10 c 0
 255 19 250 35 254 50 c 0
 257 67 270 84 287 93 c 0
 297 99 306 100 330 100 c 2
 368 100 l 1
 376 138 l 1
 104 138 l 1
 122 221 l 1
 448 622 l 1
 579 622 l 1
398 238 m 1
 449 480 l 1
 248 238 l 1
 398 238 l 1
EndSplineSet
EndChar
StartChar: five
Encoding: 21 53 32
Width: 600
Flags: W
HStem: -15 100<215 347> 324 100<369.5 468.5> 522 100<251 553>
Fore
330 522 m 1
 306 407 l 1
 344 418 379 424 408 424 c 0
 529 424 599 330 572 202 c 0
 560 144 530 92 485 53 c 0
 431 5 369 -15 275 -15 c 0
 155 -15 72 28 84 84 c 0
 90 111 117 133 144 133 c 0
 158 133 165 130 177 118 c 0
 202 93 230 85 295 85 c 0
 399 85 455 122 472 201 c 0
 487 275 453 324 386 324 c 0
 353 324 306 312 259 290 c 0
 244 284 238 282 229 282 c 0
 200 282 184 306 191 338 c 2
 251 622 l 1
 553 622 l 2
 580 622 588 620 597 613 c 1
 607 603 612 588 609 572 c 0
 605 555 592 538 575 529 c 0
 567 524 553 522 532 522 c 2
 330 522 l 1
EndSplineSet
EndChar
StartChar: six
Encoding: 22 54 33
Width: 600
Flags: W
HStem: -15 100<286.5 393.5> 294 100<378.5 481.5> 535 103<490 594>
Fore
575 189 m 0
 550 69 459 -15 328 -15 c 0
 245 -15 191 19 167 87 c 0
 152 135 150 213 166 285 c 0
 184 374 227 450 291 514 c 0
 376 596 467 638 559 638 c 0
 629 638 670 612 662 573 c 0
 656 545 628 522 600 522 c 0
 587 522 560 535 543 535 c 0
 437 535 326 447 277 324 c 1
 336 375 378 394 429 394 c 0
 534 394 599 302 575 189 c 0
262 209 m 1
 259 122 287 85 352 85 c 0
 415 85 462 125 475 190 c 0
 488 248 454 294 400 294 c 0
 357 294 300 258 262 209 c 1
EndSplineSet
EndChar
StartChar: seven
Encoding: 23 55 34
Width: 600
Flags: W
HStem: -1 21G<283.5 310> 522 100<207 640>
Fore
514 522 m 1
 286 522 l 1
 275 486 255 468 224 468 c 0
 207 468 192 477 187 492 c 0
 183 501 183 510 189 534 c 2
 207 622 l 1
 640 622 l 1
 619 523 l 1
 359 48 l 1
 339 12 323 -1 297 -1 c 0
 270 -1 250 21 256 47 c 0
 258 56 262 64 270 81 c 1
 514 522 l 1
EndSplineSet
EndChar
StartChar: eight
Encoding: 24 56 35
Width: 600
Flags: W
HStem: -15 100<232 361> 263 101<324 408.5> 538 100<378 493.5>
Fore
488 319 m 1
 543 279 565 227 552 165 c 0
 529 58 426 -15 296 -15 c 0
 168 -15 95 58 118 165 c 0
 131 227 175 279 248 319 c 1
 196 359 177 402 189 455 c 0
 210 557 320 638 436 638 c 0
 551 638 626 557 605 457 c 0
 593 402 556 359 488 319 c 1
414 538 m 0
 350 538 299 502 288 451 c 0
 277 400 314 364 377 364 c 0
 440 364 493 400 504 450 c 0
 515 502 478 538 414 538 c 0
356 263 m 0
 292 263 230 223 220 173 c 0
 209 122 250 85 318 85 c 0
 386 85 443 122 454 172 c 0
 464 223 422 263 356 263 c 0
EndSplineSet
EndChar
StartChar: nine
Encoding: 25 57 36
Width: 600
Flags: W
HStem: -15 103<185 289> 229 100<298 399.5> 538 100<386 492.5>
Fore
203 434 m 0
 229 553 321 638 451 638 c 0
 534 638 587 604 611 536 c 0
 627 489 628 409 613 338 c 0
 594 250 552 173 487 109 c 0
 403 27 312 -15 220 -15 c 0
 150 -15 108 11 117 50 c 0
 123 78 150 101 178 101 c 0
 191 101 219 88 236 88 c 0
 342 88 452 176 502 299 c 1
 443 248 401 229 351 229 c 0
 245 229 179 321 203 434 c 0
516 414 m 1
 519 501 491 538 426 538 c 0
 363 538 317 498 303 433 c 0
 291 375 324 329 378 329 c 0
 421 329 479 365 516 414 c 1
EndSplineSet
EndChar
StartChar: colon
Encoding: 26 58 37
Width: 600
Flags: W
HStem: -15 132<288 334> 304 133<356 402>
Fore
306 -15 m 2
 288 -15 l 2
 252 -15 228 15 236 51 c 0
 243 87 280 117 316 117 c 2
 334 117 l 2
 371 117 394 88 386 51 c 0
 378 14 343 -15 306 -15 c 2
374 304 m 2
 356 304 l 2
 320 304 296 334 304 370 c 0
 312 407 348 437 384 437 c 2
 402 437 l 2
 439 437 462 408 454 370 c 0
 446 333 411 304 374 304 c 2
EndSplineSet
EndChar
StartChar: semicolon
Encoding: 27 59 38
Width: 600
Flags: W
HStem: 417 20G<346.5 392>
Fore
247 134 m 1
 379 134 l 1
 182 -134 l 2
 170 -150 156 -158 144 -158 c 0
 127 -158 116 -145 119 -130 c 0
 121 -124 121 -122 126 -111 c 2
 247 134 l 1
369 437 m 0
 415 437 438 411 430 370 c 0
 421 330 386 304 341 304 c 0
 296 304 271 331 280 371 c 0
 288 410 324 437 369 437 c 0
EndSplineSet
EndChar
StartChar: less
Encoding: 28 60 39
Width: 600
Flags: W
Fore
310 279 m 1
 542 143 l 2
 563 131 569 119 565 100 c 0
 564 95 561 88 556 81 c 2
 555 79 l 2
 546 65 527 54 513 54 c 0
 505 54 495 57 485 63 c 2
 102 280 l 1
 577 492 l 2
 590 498 600 501 608 501 c 0
 622 501 636 490 639 476 c 2
 640 474 l 2
 641 468 642 461 641 455 c 0
 637 436 625 424 600 412 c 2
 310 279 l 1
EndSplineSet
EndChar
StartChar: equal
Encoding: 29 61 40
Width: 600
Flags: W
HStem: 138 100<125 543> 322 100<164 582>
Fore
198 422 m 2
 582 422 l 2
 609 422 616 420 625 413 c 0
 636 403 640 388 637 372 c 0
 633 355 621 338 604 329 c 0
 595 324 582 322 560 322 c 2
 176 322 l 2
 152 322 141 324 134 332 c 1
 122 341 118 356 121 372 c 0
 125 389 137 406 154 415 c 0
 164 421 173 422 198 422 c 2
159 238 m 2
 543 238 l 2
 570 238 577 236 586 229 c 0
 597 219 601 204 598 188 c 0
 594 171 582 154 565 145 c 0
 556 140 543 138 521 138 c 2
 137 138 l 2
 113 138 102 140 94 148 c 1
 83 157 79 172 82 188 c 0
 86 205 98 222 115 231 c 0
 125 237 134 238 159 238 c 2
EndSplineSet
EndChar
StartChar: greater
Encoding: 30 62 41
Width: 600
Flags: W
Fore
407 275 m 1
 176 412 l 2
 155 423 148 435 152 453 c 0
 154 459 157 466 162 473 c 2
 163 475 l 2
 171 488 190 500 204 500 c 0
 212 500 223 497 232 491 c 2
 616 274 l 1
 141 62 l 2
 128 56 116 53 109 53 c 0
 95 53 82 64 79 78 c 2
 78 80 l 2
 76 87 76 93 77 100 c 0
 81 118 93 130 118 142 c 2
 407 275 l 1
EndSplineSet
EndChar
StartChar: question
Encoding: 31 63 42
Width: 600
Flags: W
HStem: -15 132<291 336> 498 100<396 497>
Fore
202 460 m 2
 219 539 l 1
 324 585 371 598 435 598 c 0
 559 598 628 521 604 409 c 0
 587 328 534 281 401 228 c 1
 390 192 369 174 340 174 c 0
 323 174 308 183 302 198 c 0
 299 207 299 217 304 240 c 2
 316 296 l 1
 454 345 496 371 505 414 c 0
 516 464 479 498 415 498 c 0
 377 498 341 490 305 474 c 1
 302 460 l 2
 296 434 292 424 283 415 c 0
 270 402 253 394 238 394 c 0
 221 394 206 404 200 418 c 0
 197 426 197 437 202 460 c 2
308 -15 m 2
 291 -15 l 2
 254 -15 230 15 238 51 c 0
 245 87 282 117 319 117 c 2
 336 117 l 2
 373 117 396 88 388 51 c 0
 380 14 345 -15 308 -15 c 2
EndSplineSet
EndChar
StartChar: at
Encoding: 32 64 43
Width: 600
Flags: W
HStem: -152 78<229 317.5> 72 81<346.5 417.5> 541 79<368 487>
Fore
491 397 m 1
 498 429 l 2
 512 495 479 541 417 541 c 0
 333 541 250 445 222 317 c 2
 189 161 l 2
 173 85 177 23 201 -24 c 0
 217 -59 245 -74 289 -74 c 0
 333 -74 376 -62 399 -42 c 0
 416 -28 422 -25 434 -25 c 0
 456 -25 470 -43 465 -66 c 0
 455 -113 365 -152 270 -152 c 0
 188 -152 140 -119 113 -45 c 0
 95 9 93 81 109 154 c 2
 145 323 l 2
 181 495 303 620 433 620 c 0
 541 620 601 540 577 429 c 2
 517 148 l 1
 532 141 537 130 533 113 c 0
 527 85 506 72 469 72 c 2
 422 72 l 1
 423 75 l 1
 408 73 398 72 389 72 c 0
 304 72 248 143 266 226 c 0
 286 319 378 389 491 397 c 1
440 155 m 1
 474 316 l 1
 407 310 355 274 345 225 c 0
 336 184 366 153 414 153 c 0
 421 153 426 153 440 155 c 1
EndSplineSet
EndChar
StartChar: A
Encoding: 33 65 44
Width: 600
Flags: W
HStem: 0 100<45 199 404 555 416 588> 158 100<212 450> 483 100<241 304>
Fore
450 158 m 1
 212 158 l 1
 176 100 l 1
 199 100 l 2
 226 100 234 98 242 91 c 0
 253 81 258 66 255 50 c 0
 251 33 238 16 221 7 c 0
 212 2 199 0 178 0 c 2
 45 0 l 2
 1 0 -17 17 -10 50 c 0
 -7 67 6 84 23 93 c 0
 33 99 42 100 67 100 c 1
 304 483 l 1
 241 483 l 2
 215 483 205 485 197 492 c 0
 186 502 181 517 184 533 c 0
 188 550 200 566 217 576 c 0
 228 582 235 583 262 583 c 2
 478 583 l 1
 574 100 l 1
 602 100 611 98 619 90 c 0
 630 81 635 66 632 50 c 0
 628 33 615 16 598 7 c 0
 589 2 576 0 555 0 c 2
 416 0 l 2
 392 0 381 3 373 10 c 0
 362 19 357 34 361 50 c 0
 364 67 377 84 394 93 c 0
 404 99 411 100 437 100 c 2
 460 100 l 1
 450 158 l 1
430 258 m 1
 393 450 l 1
 273 258 l 1
 430 258 l 1
EndSplineSet
EndChar
StartChar: B
Encoding: 34 66 45
Width: 600
Flags: W
HStem: 0 100<67.5 424> 242 100<245 380> 483 100<182 461.5>
Fore
115 100 m 1
 197 483 l 1
 182 483 l 2
 157 483 146 485 139 492 c 0
 128 502 123 518 126 533 c 0
 130 550 144 567 159 576 c 0
 170 582 179 583 203 583 c 2
 456 583 l 2
 569 583 637 513 617 418 c 0
 607 372 581 339 530 305 c 1
 594 269 618 223 605 160 c 0
 585 64 492 0 374 0 c 2
 79 0 l 2
 56 0 43 3 36 10 c 0
 25 19 20 35 24 50 c 0
 27 67 40 84 57 93 c 0
 67 99 76 100 100 100 c 2
 115 100 l 1
267 342 m 1
 380 342 l 2
 452 342 507 373 517 419 c 0
 526 459 493 483 430 483 c 2
 297 483 l 1
 267 342 l 1
215 100 m 1
 390 100 l 2
 458 100 496 118 504 154 c 0
 509 178 497 204 475 220 c 0
 453 235 422 242 380 242 c 2
 245 242 l 1
 215 100 l 1
EndSplineSet
EndChar
StartChar: C
Encoding: 35 67 46
Width: 600
Flags: W
HStem: -14 100<239 370.5> 497 100<355 458>
Fore
567 563 m 2
 576 559 l 1
 593 577 606 583 623 583 c 0
 641 583 655 574 661 559 c 0
 665 550 664 542 659 517 c 2
 641 433 l 2
 636 408 631 397 622 388 c 0
 610 375 593 367 577 367 c 0
 564 367 551 373 545 381 c 0
 539 389 538 396 539 420 c 0
 539 444 532 457 507 473 c 0
 483 488 449 497 415 497 c 0
 313 497 222 420 200 315 c 2
 186 251 l 2
 165 151 228 86 348 86 c 0
 393 86 435 94 463 109 c 0
 475 115 475 115 508 143 c 0
 522 154 535 159 548 159 c 0
 575 159 593 136 587 109 c 0
 582 86 558 60 519 36 c 0
 468 4 396 -14 324 -14 c 0
 154 -14 54 97 86 249 c 2
 100 315 l 2
 134 475 278 597 432 597 c 0
 484 597 517 589 567 563 c 2
EndSplineSet
EndChar
StartChar: D
Encoding: 36 68 47
Width: 600
Flags: W
HStem: 0 100<68 336> 483 100<157.5 416>
Fore
95 100 m 1
 177 483 l 1
 138 483 119 501 126 533 c 0
 130 550 143 567 159 576 c 0
 170 582 177 583 204 583 c 2
 416 583 l 2
 562 583 648 462 615 305 c 2
 605 258 l 2
 589 185 552 123 496 75 c 0
 436 23 371 0 284 0 c 2
 80 0 l 2
 56 0 44 3 36 10 c 0
 25 19 20 35 24 50 c 0
 30 82 57 100 95 100 c 1
195 100 m 1
 306 100 l 2
 366 100 402 112 440 144 c 1
 474 175 495 210 505 261 c 2
 515 307 l 2
 525 354 519 398 497 432 c 0
 474 467 440 483 387 483 c 2
 277 483 l 1
 195 100 l 1
EndSplineSet
EndChar
StartChar: E
Encoding: 37 69 48
Width: 600
Flags: W
HStem: 0 100<67.5 550> 243 99<246 352> 483 100<182 652>
Fore
246 243 m 1
 215 100 l 1
 471 100 l 1
 482 152 l 2
 488 180 492 188 501 198 c 0
 514 212 531 219 547 219 c 0
 564 219 578 210 584 195 c 0
 588 186 588 177 582 152 c 2
 550 0 l 1
 79 0 l 2
 56 0 43 3 36 10 c 0
 25 19 20 34 24 50 c 0
 27 67 40 83 57 93 c 0
 67 99 76 100 100 100 c 2
 115 100 l 1
 197 483 l 1
 182 483 l 2
 157 483 146 485 139 492 c 0
 128 502 123 517 126 533 c 0
 130 550 143 567 159 576 c 0
 170 582 177 583 203 583 c 2
 652 583 l 1
 620 433 l 2
 614 405 610 397 601 387 c 0
 588 374 572 366 556 366 c 0
 539 366 525 375 518 390 c 0
 515 399 515 409 520 433 c 2
 531 483 l 1
 297 483 l 1
 267 342 l 1
 352 342 l 1
 353 349 l 2
 359 376 363 385 372 395 c 0
 385 408 401 416 416 416 c 0
 443 416 458 398 456 370 c 0
 455 361 454 358 452 349 c 2
 428 236 l 2
 423 210 419 200 410 191 c 0
 397 178 380 170 365 170 c 0
 348 170 333 179 327 194 c 0
 324 203 324 212 329 236 c 2
 331 243 l 1
 246 243 l 1
EndSplineSet
EndChar
StartChar: F
Encoding: 38 70 49
Width: 600
Flags: W
HStem: 0 100<79 315> 243 99<246 352> 483 100<182 674>
Fore
246 243 m 1
 215 100 l 1
 315 100 l 2
 342 100 351 98 359 91 c 0
 369 81 374 66 371 50 c 0
 367 33 354 16 337 7 c 0
 330 3 314 0 294 0 c 2
 79 0 l 2
 56 0 43 3 36 10 c 0
 25 19 20 35 24 50 c 0
 27 67 40 84 57 93 c 0
 67 99 76 100 100 100 c 2
 115 100 l 1
 197 483 l 1
 182 483 l 2
 157 483 146 485 139 492 c 0
 128 502 123 517 126 533 c 0
 130 550 143 567 159 576 c 0
 170 582 177 583 203 583 c 2
 674 583 l 1
 642 432 l 2
 636 405 632 397 623 387 c 0
 610 374 594 366 578 366 c 0
 561 366 547 375 540 390 c 0
 537 398 537 409 542 432 c 2
 553 483 l 1
 297 483 l 1
 267 342 l 1
 352 342 l 1
 353 349 l 2
 358 374 363 385 372 394 c 0
 385 407 401 415 417 415 c 0
 434 415 448 406 454 391 c 0
 458 381 457 374 452 349 c 2
 428 236 l 2
 422 209 419 200 409 190 c 0
 397 177 380 169 365 169 c 0
 348 169 333 179 327 193 c 0
 324 202 324 213 329 236 c 2
 331 243 l 1
 246 243 l 1
EndSplineSet
EndChar
StartChar: G
Encoding: 39 71 50
Width: 600
Flags: W
HStem: -14 100<279 367> 180 100<388 488> 497 100<396 471>
Fore
588 180 m 1
 560 48 l 1
 461 1 406 -14 328 -14 c 0
 230 -14 151 15 113 65 c 0
 81 108 70 176 85 246 c 2
 100 317 l 2
 117 393 163 467 228 520 c 0
 292 572 362 597 444 597 c 0
 498 597 545 586 582 565 c 1
 599 589 611 597 630 597 c 0
 647 597 661 588 665 573 c 0
 669 563 668 555 663 531 c 2
 646 453 l 2
 640 425 638 418 628 408 c 0
 615 395 598 387 582 387 c 0
 569 387 557 393 550 402 c 0
 546 409 546 409 545 440 c 0
 542 475 497 497 424 497 c 0
 368 497 319 481 282 450 c 0
 242 417 211 367 200 317 c 2
 187 253 l 2
 174 195 180 156 206 130 c 0
 233 101 280 86 343 86 c 0
 391 86 432 94 474 111 c 1
 488 180 l 1
 388 180 l 2
 363 180 353 182 345 190 c 1
 334 199 329 214 333 230 c 0
 337 247 349 264 366 273 c 0
 376 279 385 280 410 280 c 2
 585 280 l 2
 612 280 620 278 629 271 c 0
 640 261 644 246 641 230 c 0
 636 205 618 188 588 180 c 1
EndSplineSet
EndChar
StartChar: H
Encoding: 40 72 51
Width: 600
Flags: W
HStem: 0 100<77 210 89 231 382 515 394 536> 241 100<246 481> 483 100<298 347.5 497 518>
Fore
460 241 m 1
 246 241 l 1
 216 100 l 1
 231 100 l 2
 257 100 267 98 274 91 c 0
 285 81 290 66 287 50 c 0
 283 33 270 16 253 7 c 0
 244 2 231 0 210 0 c 2
 89 0 l 2
 65 0 53 3 45 9 c 0
 35 19 30 35 34 50 c 0
 37 67 50 84 67 93 c 0
 77 99 85 100 110 100 c 2
 116 100 l 1
 198 483 l 1
 165 486 150 504 156 533 c 0
 160 550 173 567 189 576 c 0
 200 582 208 583 233 583 c 2
 334 583 l 2
 361 583 369 581 377 574 c 0
 388 564 393 549 389 533 c 0
 386 516 373 499 356 490 c 0
 346 485 337 483 313 483 c 2
 298 483 l 1
 267 341 l 1
 481 341 l 1
 512 483 l 1
 497 483 l 2
 471 483 462 485 454 492 c 0
 443 502 438 517 441 533 c 0
 445 550 458 567 474 576 c 0
 485 582 493 583 518 583 c 2
 619 583 l 2
 646 583 654 581 663 574 c 0
 673 564 678 549 674 533 c 0
 668 504 645 486 612 483 c 1
 530 100 l 1
 536 100 l 2
 563 100 572 98 579 91 c 0
 590 81 595 66 592 50 c 0
 588 33 575 16 558 7 c 0
 549 2 536 0 515 0 c 2
 394 0 l 2
 370 0 359 3 351 9 c 0
 340 19 335 35 339 50 c 0
 342 67 355 84 372 93 c 0
 382 99 391 100 415 100 c 2
 430 100 l 1
 460 241 l 1
EndSplineSet
EndChar
StartChar: I
Encoding: 41 73 52
Width: 600
Flags: W
HStem: 0 100<149 473> 483 100<252 588.5 273 588.5>
Fore
453 483 m 5
 371 100 l 5
 472 100 l 2
 499 100 507 98 515 91 c 0
 527 81 531 66 528 50 c 0
 521 17 495 0 451 0 c 2
 149 0 l 2
 125 0 114 3 106 10 c 0
 95 19 90 35 94 50 c 0
 97 67 110 84 127 93 c 0
 137 99 144 100 170 100 c 2
 271 100 l 5
 353 483 l 5
 252 483 l 6
 227 483 216 485 209 492 c 4
 198 502 193 517 196 533 c 4
 200 550 213 567 229 576 c 4
 240 582 247 583 273 583 c 6
 575 583 l 6
 602 583 609 581 618 574 c 4
 630 564 634 549 630 533 c 4
 627 516 614 499 597 490 c 4
 588 485 577 483 554 483 c 6
 453 483 l 5
EndSplineSet
EndChar
StartChar: J
Encoding: 42 74 53
Width: 600
Flags: W
HStem: -14 100<237.5 307> 483 100<374 684.5 395 684.5>
Fore
593 483 m 1
 530 187 l 2
 516 121 491 83 435 42 c 0
 385 6 325 -14 266 -14 c 0
 209 -14 146 6 65 51 c 1
 99 213 l 2
 105 239 109 250 118 259 c 0
 131 272 148 280 164 280 c 0
 181 280 196 271 201 256 c 0
 206 247 205 238 199 213 c 2
 179 117 l 1
 223 95 255 86 289 86 c 0
 325 86 364 100 392 122 c 0
 417 143 422 152 432 198 c 2
 493 483 l 1
 374 483 l 2
 349 483 338 485 331 492 c 0
 320 502 315 517 318 533 c 0
 322 550 335 567 351 576 c 0
 362 582 369 583 395 583 c 2
 671 583 l 2
 698 583 706 581 714 574 c 0
 725 564 730 549 726 533 c 0
 723 516 710 499 693 490 c 0
 684 485 673 483 650 483 c 2
 593 483 l 1
EndSplineSet
EndChar
StartChar: K
Encoding: 43 75 54
Width: 600
Flags: W
HStem: 0 100<79 250 525 557> 483 100<182 366.5 614 644.5>
Fore
454 532 m 0
 462 569 492 583 531 583 c 2
 631 583 l 2
 658 583 666 581 675 574 c 0
 685 564 690 549 686 533 c 0
 679 500 655 483 614 483 c 1
 405 330 l 1
 459 298 504 215 525 100 c 1
 557 100 l 2
 584 100 592 98 600 91 c 0
 611 81 616 66 613 50 c 0
 609 33 596 16 579 7 c 0
 572 3 556 0 536 0 c 2
 426 0 l 1
 409 143 366 240 309 259 c 1
 238 208 l 1
 215 100 l 1
 250 100 l 2
 277 100 285 98 293 91 c 0
 304 81 309 66 306 50 c 0
 302 33 289 16 272 7 c 0
 265 3 249 0 229 0 c 2
 79 0 l 2
 56 0 43 3 36 10 c 0
 25 19 20 35 24 50 c 0
 27 67 40 84 57 93 c 0
 67 99 76 100 100 100 c 2
 115 100 l 1
 197 483 l 1
 182 483 l 2
 157 483 146 485 139 492 c 0
 128 502 123 517 126 533 c 0
 130 550 143 567 159 576 c 0
 170 582 177 583 203 583 c 2
 353 583 l 2
 380 583 388 581 396 574 c 0
 407 564 412 549 408 533 c 0
 405 516 392 499 375 490 c 0
 366 485 355 483 332 483 c 2
 297 483 l 1
 265 334 l 1
 476 487 l 1
 456 495 449 509 454 532 c 0
EndSplineSet
EndChar
StartChar: L
Encoding: 44 76 55
Width: 600
Flags: W
HStem: 0 100<87.5 571> 483 100<202 450.5 223 450.5>
Fore
359 483 m 1
 277 100 l 1
 492 100 l 1
 512 192 l 2
 518 219 521 228 531 238 c 0
 544 252 560 259 576 259 c 0
 593 259 607 250 614 235 c 0
 618 226 617 217 612 192 c 2
 571 0 l 1
 99 0 l 2
 76 0 63 3 56 10 c 0
 45 19 40 34 44 50 c 0
 47 67 60 84 77 93 c 0
 87 99 94 100 120 100 c 2
 177 100 l 1
 259 483 l 1
 202 483 l 2
 177 483 166 485 159 492 c 0
 148 502 143 517 146 533 c 0
 150 550 163 567 179 576 c 0
 190 582 197 583 223 583 c 2
 437 583 l 2
 464 583 471 581 480 574 c 0
 491 564 496 549 492 533 c 0
 489 516 476 499 459 490 c 0
 450 485 439 483 416 483 c 2
 359 483 l 1
EndSplineSet
EndChar
StartChar: M
Encoding: 45 77 56
Width: 600
Flags: W
HStem: 0 100<43.5 63 48 198 415.5 557 427 602.5> 563 20G<562 672>
Fore
225 389 m 1
 163 100 l 1
 198 100 l 2
 225 100 233 98 242 91 c 0
 253 81 257 66 254 50 c 0
 250 33 238 17 220 7 c 0
 213 3 197 0 177 0 c 2
 48 0 l 2
 24 0 12 3 4 10 c 0
 -7 19 -12 34 -8 50 c 0
 -2 82 24 100 63 100 c 1
 145 483 l 1
 112 486 97 504 104 534 c 0
 107 550 120 567 137 577 c 0
 142 580 164 584 176 584 c 0
 211 584 252 583 289 583 c 1
 364 286 l 1
 562 583 l 1
 672 583 l 2
 699 583 707 581 716 574 c 0
 726 564 731 549 727 533 c 0
 721 504 698 486 665 483 c 1
 583 100 l 1
 622 100 640 82 634 50 c 0
 630 33 618 17 600 7 c 0
 593 3 577 0 557 0 c 2
 427 0 l 2
 404 0 391 3 384 10 c 0
 373 19 368 35 372 50 c 0
 375 67 388 84 405 93 c 0
 415 99 422 100 448 100 c 2
 483 100 l 1
 545 389 l 1
 380 138 l 1
 289 138 l 1
 225 389 l 1
EndSplineSet
EndChar
StartChar: N
Encoding: 46 78 57
Width: 600
Flags: W
HStem: 0 100<74.5 94 79 229> 483 100<161 182 499 654>
Fore
257 394 m 1
 194 100 l 1
 229 100 l 2
 256 100 265 98 273 91 c 0
 284 81 288 66 285 50 c 0
 281 33 269 17 251 7 c 0
 244 3 228 0 208 0 c 2
 79 0 l 2
 55 0 43 3 35 10 c 0
 24 19 19 34 23 50 c 0
 29 82 55 100 94 100 c 1
 176 483 l 1
 161 483 l 2
 136 483 125 485 118 492 c 0
 107 502 102 517 105 533 c 0
 109 550 122 567 138 576 c 0
 149 582 156 583 182 583 c 2
 297 583 l 1
 472 191 l 1
 534 483 l 1
 499 483 l 2
 474 483 463 485 456 492 c 0
 445 502 440 517 443 533 c 0
 447 550 460 567 476 576 c 0
 487 582 494 583 520 583 c 2
 650 583 l 2
 677 583 684 581 693 574 c 0
 704 564 709 549 705 533 c 0
 698 501 674 483 634 483 c 1
 531 0 l 1
 432 0 l 1
 257 394 l 1
EndSplineSet
EndChar
StartChar: O
Encoding: 47 79 58
Width: 600
Flags: W
HStem: -14 100<220 373> 497 100<350 460.5>
Fore
427 597 m 0
 494 597 553 570 596 520 c 0
 646 460 660 383 640 287 c 0
 605 123 449 -14 297 -14 c 0
 143 -14 47 123 83 292 c 0
 119 460 273 597 427 597 c 0
406 497 m 0
 308 497 207 404 183 292 c 0
 159 179 220 86 318 86 c 0
 415 86 517 179 540 289 c 0
 565 404 505 497 406 497 c 0
EndSplineSet
EndChar
StartChar: P
Encoding: 48 80 59
Width: 600
Flags: W
HStem: 0 100<79 314> 200 100<237 410.5> 483 100<182 449.5>
Fore
237 200 m 1
 215 100 l 1
 314 100 l 2
 341 100 349 98 357 91 c 0
 368 81 373 66 370 50 c 0
 366 33 353 16 336 7 c 0
 329 3 313 0 293 0 c 2
 79 0 l 2
 56 0 43 3 36 10 c 0
 25 19 20 35 24 50 c 0
 27 67 40 84 57 93 c 0
 67 99 76 100 100 100 c 2
 115 100 l 1
 197 483 l 1
 182 483 l 2
 157 483 146 485 139 492 c 0
 128 502 123 518 126 533 c 0
 130 550 143 567 159 576 c 0
 170 582 177 583 203 583 c 2
 436 583 l 2
 563 583 636 505 613 394 c 0
 603 348 575 301 536 266 c 0
 481 217 428 200 335 200 c 2
 237 200 l 1
297 483 m 1
 258 300 l 1
 376 300 l 2
 445 300 494 335 506 391 c 0
 518 448 484 483 415 483 c 2
 297 483 l 1
EndSplineSet
EndChar
StartChar: Q
Encoding: 49 81 60
Width: 600
Flags: W
HStem: -145 100<400.5 440.5> -117 92<283.5 326> -7 92<269 366.5> 497 100<350 503.5>
Fore
270 -6 m 1x70
 261 -30 l 1
 285 -26 298 -25 313 -25 c 0x70
 339 -25 364 -29 394 -38 c 0
 416 -44 422 -45 433 -45 c 0
 448 -45 458 -42 480 -30 c 0
 506 -15 512 -13 523 -13 c 0
 552 -13 570 -35 564 -63 c 0
 559 -84 546 -98 515 -114 c 0
 474 -136 444 -145 413 -145 c 0xb0
 388 -145 384 -144 340 -125 c 0
 330 -121 308 -117 294 -117 c 0
 273 -117 209 -127 164 -138 c 0
 151 -141 141 -143 135 -143 c 0
 109 -143 92 -119 98 -91 c 0
 101 -76 107 -68 126 -53 c 2
 200 7 l 1
 135 50 109 77 91 124 c 0
 74 173 70 231 83 292 c 0
 119 460 273 597 427 597 c 0
 580 597 677 460 641 294 c 0
 618 183 542 84 435 27 c 0
 392 4 344 -7 288 -7 c 0
 286 -7 278 -7 270 -6 c 1x70
406 497 m 0
 308 497 207 404 183 291 c 0
 159 179 220 85 318 85 c 0
 415 85 517 178 540 288 c 0
 565 404 505 497 406 497 c 0
EndSplineSet
EndChar
StartChar: R
Encoding: 50 82 61
Width: 600
Flags: W
HStem: 0 100<79 250 553 574> 222 100<241 380> 483 100<182 441>
Fore
241 222 m 1
 215 100 l 1
 250 100 l 2
 277 100 286 98 294 91 c 0
 304 81 309 66 306 50 c 0
 302 33 289 16 272 7 c 0
 265 3 249 0 229 0 c 2
 79 0 l 2
 56 0 43 3 36 10 c 0
 25 19 20 35 24 50 c 0
 27 67 40 84 57 93 c 0
 67 99 76 100 100 100 c 2
 115 100 l 1
 197 483 l 1
 182 483 l 2
 157 483 146 485 139 492 c 0
 128 502 123 517 126 533 c 0
 130 550 143 567 159 576 c 0
 170 582 177 583 203 583 c 2
 426 583 l 2
 556 583 630 510 608 405 c 0
 595 342 549 294 468 254 c 1
 506 213 533 167 561 100 c 1
 574 100 l 2
 599 100 610 98 618 91 c 0
 628 82 633 66 630 50 c 0
 626 33 613 16 596 7 c 0
 589 3 573 0 553 0 c 2
 474 0 l 1
 445 97 376 207 337 222 c 1
 241 222 l 1
262 322 m 1
 338 322 l 2
 422 322 492 358 503 408 c 0
 512 451 473 483 409 483 c 2
 297 483 l 1
 262 322 l 1
EndSplineSet
EndChar
StartChar: S
Encoding: 51 83 62
Width: 600
Flags: W
HStem: -14 100<279 374.5> 497 100<364 451.5>
Fore
630 531 m 2
 611 443 l 2
 605 415 602 407 592 397 c 0
 580 384 563 376 548 376 c 0
 534 376 521 382 515 390 c 0
 510 398 510 398 509 430 c 0
 509 470 467 497 405 497 c 0
 342 497 285 464 275 421 c 0
 271 400 281 377 301 366 c 0
 319 356 323 354 395 340 c 0
 479 324 514 310 540 285 c 0
 573 253 583 212 572 160 c 0
 550 56 443 -14 306 -14 c 0
 252 -14 202 -1 158 25 c 1
 137 5 129 1 113 1 c 0
 78 1 67 22 76 67 c 2
 90 133 l 2
 96 158 100 169 109 179 c 0
 122 192 138 199 154 199 c 0
 168 199 180 194 187 185 c 0
 193 178 193 178 195 151 c 0
 197 115 254 86 320 86 c 0
 394 86 459 119 468 162 c 0
 473 183 463 203 444 215 c 0
 425 226 410 230 344 242 c 0
 282 253 252 263 224 281 c 0
 179 310 159 363 171 420 c 0
 193 521 302 597 426 597 c 0
 477 597 519 586 549 564 c 1
 564 589 575 597 595 597 c 0
 612 597 627 588 632 574 c 0
 636 565 635 557 630 531 c 2
EndSplineSet
EndChar
StartChar: T
Encoding: 52 84 63
Width: 600
Flags: W
HStem: 0 100<184 436> 483 100<166 682>
Fore
452 483 m 1
 370 100 l 1
 436 100 l 2
 463 100 471 98 479 91 c 0
 490 81 495 66 492 50 c 0
 488 33 475 16 458 7 c 0
 451 3 435 0 415 0 c 2
 184 0 l 2
 161 0 149 3 141 10 c 0
 130 19 125 35 129 50 c 0
 132 67 145 84 162 93 c 0
 172 99 179 100 205 100 c 2
 270 100 l 1
 352 483 l 1
 245 483 l 1
 225 390 l 2
 219 363 215 355 206 345 c 0
 194 332 177 324 161 324 c 0
 144 324 129 333 123 348 c 0
 120 357 120 367 125 390 c 2
 166 583 l 1
 682 583 l 1
 641 390 l 2
 635 362 632 355 622 345 c 0
 610 332 593 324 577 324 c 0
 560 324 545 334 539 348 c 0
 536 357 536 367 541 390 c 2
 561 483 l 1
 452 483 l 1
EndSplineSet
EndChar
StartChar: U
Encoding: 53 85 64
Width: 600
Flags: W
HStem: -14 100<270 353.5> 483 100<274 344 497 648 518 661.5>
Fore
632 483 m 1
 573 205 l 2
 557 134 519 78 452 35 c 0
 402 2 352 -14 297 -14 c 0
 243 -14 198 2 162 35 c 0
 116 78 99 134 115 205 c 2
 174 483 l 1
 134 484 116 501 123 533 c 0
 127 550 140 567 156 576 c 0
 167 582 175 583 200 583 c 2
 330 583 l 2
 358 583 365 582 374 574 c 0
 384 564 389 549 385 533 c 0
 382 516 369 499 352 490 c 0
 343 485 332 483 309 483 c 2
 274 483 l 1
 213 196 l 2
 200 135 247 86 318 86 c 0
 389 86 458 135 471 196 c 2
 532 483 l 1
 497 483 l 2
 471 483 461 485 454 492 c 0
 443 502 438 517 441 533 c 0
 445 550 458 567 474 576 c 0
 485 582 492 583 518 583 c 2
 648 583 l 2
 675 583 682 581 692 574 c 0
 703 564 707 549 703 533 c 0
 696 501 672 483 632 483 c 1
EndSplineSet
EndChar
StartChar: V
Encoding: 54 86 65
Width: 600
Flags: W
HStem: 0 21G<249 348> 483 100<140 315 526 679>
Fore
334 144 m 1
 550 483 l 1
 526 483 l 2
 499 483 491 485 482 492 c 1
 472 502 467 517 470 533 c 0
 474 550 487 567 503 576 c 0
 514 582 521 583 547 583 c 2
 679 583 l 2
 705 583 714 581 722 574 c 0
 733 564 738 549 734 533 c 0
 730 513 712 493 694 487 c 0
 684 484 677 483 656 483 c 1
 348 0 l 1
 249 0 l 1
 150 483 l 1
 130 483 122 484 114 487 c 0
 98 493 88 513 92 533 c 0
 96 550 109 567 125 576 c 0
 136 582 143 583 169 583 c 2
 302 583 l 2
 328 583 337 581 346 574 c 0
 356 564 361 549 357 533 c 0
 354 516 341 499 324 490 c 0
 314 485 305 483 281 483 c 2
 262 483 l 1
 334 144 l 1
EndSplineSet
EndChar
StartChar: W
Encoding: 55 87 66
Width: 600
Flags: W
HStem: 0 21G<98 209 393 503> 417 20G<344 448> 483 100<180 325 516 569>
Fore
359 277 m 1
 209 0 l 1
 98 0 l 1
 139 483 l 1
 110 487 97 503 103 531 c 0
 107 550 119 566 136 576 c 0
 147 582 154 583 180 583 c 2
 311 583 l 2
 339 583 346 581 355 574 c 0
 366 564 371 549 367 533 c 0
 364 516 351 499 334 490 c 0
 324 485 314 483 290 483 c 2
 242 483 l 1
 220 211 l 1
 344 437 l 1
 448 437 l 1
 476 211 l 1
 569 483 l 1
 516 483 l 2
 491 483 480 485 473 492 c 0
 462 502 457 517 460 533 c 0
 464 550 477 567 493 576 c 0
 504 582 511 583 537 583 c 2
 668 583 l 2
 695 583 703 581 712 574 c 0
 722 564 727 549 723 533 c 0
 718 506 697 488 666 483 c 1
 503 0 l 1
 393 0 l 1
 359 277 l 1
EndSplineSet
EndChar
StartChar: X
Encoding: 56 88 67
Width: 600
Flags: W
HStem: 0 100<64 90> 483 100<624 649.5>
Fore
132 533 m 0
 140 568 172 583 209 583 c 2
 300 583 l 2
 328 583 335 581 344 574 c 0
 355 564 360 549 356 533 c 0
 352 511 340 498 308 484 c 1
 380 375 l 1
 496 484 l 1
 471 498 464 511 468 533 c 0
 471 548 483 564 498 573 c 0
 507 580 524 583 546 583 c 2
 636 583 l 2
 663 583 670 581 679 574 c 0
 691 564 695 549 691 533 c 0
 685 502 659 484 624 483 c 1
 427 297 l 1
 552 100 l 1
 590 99 607 81 601 50 c 0
 597 33 584 16 567 7 c 0
 558 2 545 0 524 0 c 2
 413 0 l 2
 369 0 351 17 358 50 c 0
 364 80 388 98 423 100 c 1
 348 220 l 1
 220 100 l 1
 254 98 270 80 264 50 c 0
 260 33 247 16 230 7 c 0
 221 2 208 0 187 0 c 2
 76 0 l 2
 52 0 41 3 33 9 c 0
 22 19 17 34 21 50 c 0
 27 81 53 100 90 100 c 1
 298 298 l 1
 180 483 l 1
 143 485 126 503 132 533 c 0
EndSplineSet
EndChar
StartChar: Y
Encoding: 57 89 68
Width: 600
Flags: W
HStem: 0 100<185 436> 483 100<167.5 212 617 650.5>
Fore
134 533 m 0
 142 569 173 583 212 583 c 2
 301 583 l 2
 328 583 336 581 345 574 c 0
 355 564 360 549 356 533 c 0
 351 510 336 495 308 484 c 1
 374 348 l 1
 497 484 l 1
 472 494 462 510 467 533 c 0
 471 550 484 567 500 576 c 0
 511 582 520 583 545 583 c 2
 637 583 l 2
 664 583 672 581 680 574 c 0
 692 564 696 549 692 533 c 0
 686 502 653 479 619 483 c 2
 617 483 l 1
 402 245 l 1
 371 100 l 1
 436 100 l 2
 464 100 472 98 480 91 c 0
 491 81 496 66 493 50 c 0
 489 33 476 16 459 7 c 0
 452 3 436 0 415 0 c 2
 185 0 l 2
 161 0 149 3 141 10 c 0
 130 19 125 34 129 50 c 0
 132 67 145 84 162 93 c 0
 172 99 179 100 206 100 c 2
 271 100 l 1
 302 245 l 1
 188 483 l 1
 147 483 127 501 134 533 c 0
EndSplineSet
EndChar
StartChar: Z
Encoding: 58 90 69
Width: 600
Flags: W
HStem: 0 100<73 527> 483 100<220 628>
Fore
222 100 m 1
 448 100 l 1
 464 172 l 2
 469 197 473 208 482 218 c 0
 495 230 512 238 528 238 c 0
 545 238 560 229 565 214 c 0
 570 205 569 198 564 172 c 2
 527 0 l 1
 73 0 l 1
 94 100 l 1
 478 483 l 1
 299 483 l 1
 284 413 l 2
 278 386 274 377 265 368 c 0
 252 355 236 347 220 347 c 0
 203 347 189 356 182 371 c 0
 179 380 178 388 184 413 c 2
 220 583 l 1
 628 583 l 1
 607 486 l 1
 222 100 l 1
EndSplineSet
EndChar
StartChar: bracketleft
Encoding: 59 91 70
Width: 600
Flags: W
HStem: -148 100<340 399> 527 100<462 554.5>
Fore
462 527 m 1
 340 -48 l 1
 399 -48 l 2
 426 -48 433 -50 442 -57 c 0
 453 -67 458 -82 454 -98 c 0
 451 -115 438 -131 421 -141 c 0
 412 -146 400 -148 378 -148 c 2
 219 -148 l 1
 383 627 l 1
 541 627 l 2
 568 627 576 625 585 618 c 0
 596 608 600 593 597 577 c 0
 593 560 580 543 564 534 c 0
 554 529 542 527 520 527 c 2
 462 527 l 1
EndSplineSet
EndChar
StartChar: backslash
Encoding: 60 92 71
Width: 600
Flags: W
Fore
322 651 m 1
 499 -27 l 2
 504 -45 505 -55 503 -65 c 0
 498 -90 469 -113 443 -113 c 0
 419 -113 409 -103 400 -69 c 2
 225 610 l 1
 219 630 218 636 221 647 c 0
 226 672 254 695 281 695 c 0
 304 695 315 685 322 651 c 1
EndSplineSet
EndChar
StartChar: bracketright
Encoding: 61 93 72
Width: 600
Flags: W
HStem: -148 100<147.5 240> 527 100<303 362>
Fore
240 -48 m 1
 362 527 l 1
 303 527 l 2
 276 527 268 529 260 536 c 0
 249 546 244 561 248 577 c 0
 251 594 264 610 281 620 c 0
 290 625 302 627 324 627 c 2
 483 627 l 1
 319 -148 l 1
 161 -148 l 2
 134 -148 126 -146 116 -139 c 0
 106 -129 102 -114 105 -98 c 0
 109 -81 121 -64 138 -55 c 0
 147 -50 160 -48 182 -48 c 2
 240 -48 l 1
EndSplineSet
EndChar
StartChar: asciicircum
Encoding: 62 94 73
Width: 600
Flags: W
Fore
404 494 m 1
 258 356 l 2
 230 330 222 325 202 325 c 0
 175 325 157 348 163 375 c 0
 166 390 172 398 194 419 c 2
 438 652 l 1
 584 419 l 2
 598 398 600 390 597 375 c 0
 591 348 563 325 536 325 c 0
 517 325 509 330 493 355 c 2
 404 494 l 1
EndSplineSet
EndChar
StartChar: underscore
Encoding: 63 95 74
Width: 600
Flags: W
HStem: -125 50<-28 585>
Fore
596 -75 m 1
 585 -125 l 1
 -39 -125 l 1
 -28 -75 l 1
 596 -75 l 1
EndSplineSet
EndChar
StartChar: grave
Encoding: 64 96 75
Width: 600
Flags: W
Fore
339 680 m 2
 448 569 l 2
 461 556 466 545 463 532 c 0
 459 513 438 496 418 496 c 0
 408 496 402 500 390 512 c 2
 281 624 l 1
 266 637 263 647 265 660 c 0
 270 680 289 696 310 696 c 0
 321 696 325 693 339 680 c 2
EndSplineSet
EndChar
StartChar: a
Encoding: 65 97 76
Width: 600
Flags: W
HStem: -16 100<169.5 269> 0 100<505 526> 196 92<286 361> 350 100<352.5 449.5>
Fore
388 0 m 1x70
 393 23 l 1
 340 -2 278 -16 219 -16 c 0xb0
 120 -16 52 45 67 119 c 0
 74 150 96 185 126 212 c 0
 182 262 256 288 345 288 c 0
 377 288 408 285 447 278 c 1
 452 301 l 2
 459 335 433 350 369 350 c 0
 336 350 298 345 250 333 c 0
 232 329 218 327 209 327 c 0
 181 327 164 349 170 378 c 0
 175 399 188 413 209 420 c 0
 261 437 338 450 388 450 c 4
 511 450 573 395 553 302 c 2
 510 100 l 1
 526 100 l 2
 553 100 562 98 570 91 c 0
 580 81 585 66 582 50 c 0
 578 33 565 16 548 7 c 0
 540 2 526 0 505 0 c 2
 388 0 l 1x70
418 135 m 1
 428 185 l 1
 390 192 354 196 320 196 c 0
 252 196 182 161 174 123 c 0
 169 101 199 84 242 84 c 0
 296 84 355 101 418 135 c 1
EndSplineSet
EndChar
StartChar: b
Encoding: 66 98 77
Width: 600
Flags: W
HStem: -14 100<292.5 384.5> 0 100<46 95> 351 100<373.5 457.5> 524 100<169 191>
Fore
307 624 m 1x70
 259 401 l 1
 309 435 360 451 420 451 c 0
 495 451 546 430 583 386 c 0
 620 342 631 284 617 218 c 0
 604 153 567 96 512 51 c 0
 456 7 396 -14 322 -14 c 0xb0
 263 -14 226 -1 181 35 c 1
 174 0 l 1
 58 0 l 2
 34 0 22 3 14 9 c 0
 4 19 -1 34 3 50 c 0
 6 67 19 84 36 93 c 0
 46 99 54 100 79 100 c 2
 95 100 l 1
 185 524 l 1
 169 524 l 2
 143 524 134 526 125 533 c 0
 115 543 111 558 114 574 c 0
 118 591 130 608 147 617 c 0
 157 623 167 624 191 624 c 2
 307 624 l 1x70
341 86 m 0
 428 86 501 142 518 219 c 0
 525 252 517 286 498 311 c 1
 475 339 446 351 398 351 c 0
 349 351 313 339 279 311 c 0
 249 286 228 253 221 220 c 0
 204 141 253 86 341 86 c 0
EndSplineSet
EndChar
StartChar: c
Encoding: 67 99 78
Width: 600
Flags: W
HStem: -16 100<271.5 368> 350 100<330.5 434.5>
Fore
384 350 m 0
 289 350 216 292 198 207 c 0
 181 125 231 84 348 84 c 0
 388 84 430 89 456 97 c 0
 476 103 482 107 512 128 c 0
 523 136 533 140 545 140 c 0
 572 140 590 117 584 89 c 0
 578 63 550 37 504 16 c 0
 459 -4 393 -16 320 -16 c 0
 223 -16 165 5 126 53 c 0
 95 93 85 146 98 207 c 0
 128 350 255 450 406 450 c 0
 463 450 509 440 543 420 c 1
 554 441 567 450 588 450 c 0
 621 450 631 430 622 384 c 2
 605 307 l 2
 600 281 596 271 587 262 c 0
 574 249 557 241 541 241 c 0
 528 241 515 247 508 255 c 1
 501 261 501 267 500 289 c 0
 500 307 496 316 485 325 c 0
 462 341 428 350 384 350 c 0
EndSplineSet
EndChar
StartChar: d
Encoding: 68 100 79
Width: 600
Flags: W
HStem: -14 100<239.5 324> 0 100<547 568> 351 100<332 407> 525 99<527 548>
Fore
664 624 m 1xb0
 552 100 l 1
 568 100 l 2
 595 100 604 98 612 91 c 0
 622 81 627 66 624 50 c 0
 620 33 607 16 590 7 c 0
 581 2 570 0 547 0 c 2
 431 0 l 1x70
 438 35 l 1
 378 -1 336 -14 277 -14 c 0
 202 -14 150 7 114 51 c 0
 77 96 66 153 80 219 c 0
 93 284 130 342 185 386 c 0
 240 430 301 451 377 451 c 0
 437 451 480 435 516 401 c 1
 543 525 l 1
 527 525 l 2
 501 525 491 527 483 534 c 0
 473 544 468 559 471 575 c 0
 475 591 487 608 504 617 c 0
 514 623 522 624 548 624 c 2
 664 624 l 1xb0
356 351 m 0
 308 351 272 339 238 311 c 0
 208 286 187 252 180 219 c 0
 164 144 210 86 300 86 c 0xb0
 348 86 385 99 419 126 c 0
 449 151 470 185 477 217 c 0
 485 253 478 286 458 311 c 0
 435 339 406 351 356 351 c 0
EndSplineSet
EndChar
StartChar: e
Encoding: 69 101 80
Width: 600
Flags: W
HStem: -16 100<216.5 347> 172 88<179 587> 350 100<314 461.5>
Fore
587 172 m 1
 179 172 l 1
 189 112 236 84 324 84 c 0
 370 84 396 88 493 112 c 0
 505 115 518 117 527 117 c 0
 554 117 570 95 564 67 c 0
 560 47 546 33 520 22 c 0
 470 2 365 -16 294 -16 c 0
 139 -16 50 80 79 216 c 0
 107 348 241 450 387 450 c 0
 536 450 624 349 595 211 c 2
 587 172 l 1
200 260 m 1
 494 260 l 1
 490 315 439 350 366 350 c 0
 293 350 227 314 200 260 c 1
EndSplineSet
EndChar
StartChar: f
Encoding: 70 102 81
Width: 600
Flags: W
HStem: 0 100<141 459> 337 100<224 292 371 543> 523 100<464.5 545>
Fore
371 337 m 1
 320 100 l 1
 459 100 l 2
 486 100 495 98 503 91 c 0
 513 81 518 66 515 50 c 0
 511 33 499 17 481 7 c 0
 474 3 458 0 438 0 c 2
 141 0 l 2
 118 0 105 3 97 10 c 0
 87 19 82 35 86 50 c 0
 89 67 102 84 119 93 c 0
 129 99 136 100 162 100 c 2
 220 100 l 1
 271 337 l 1
 224 337 l 2
 200 337 188 339 181 347 c 1
 170 356 165 371 168 387 c 0
 172 404 184 421 201 430 c 0
 212 436 219 437 246 437 c 2
 292 437 l 1
 300 474 l 2
 319 566 405 623 524 623 c 0
 566 623 628 616 658 607 c 0
 684 600 695 583 690 560 c 0
 684 531 658 509 632 509 c 0
 626 509 616 510 605 512 c 0
 572 518 525 523 494 523 c 0
 437 523 407 507 400 474 c 2
 392 437 l 1
 543 437 l 2
 570 437 577 435 586 428 c 0
 597 418 602 403 598 387 c 0
 595 370 582 354 565 344 c 0
 556 339 544 337 522 337 c 2
 371 337 l 1
EndSplineSet
EndChar
StartChar: g
Encoding: 71 103 82
Width: 600
Flags: W
HStem: -205 100<163 329.5> -14 100<199 327> 337 100<582 632.5> 351 100<298 392>
Fore
495 401 m 1xd0
 503 437 l 1
 619 437 l 2
 646 437 654 435 663 428 c 0
 673 418 678 403 674 387 c 0
 671 370 658 353 641 344 c 0
 632 339 621 337 598 337 c 2
 582 337 l 1xe0
 506 -20 l 2
 483 -126 384 -205 275 -205 c 2
 163 -205 l 2
 138 -205 128 -203 121 -195 c 1
 109 -186 105 -171 108 -155 c 0
 112 -138 124 -121 141 -112 c 0
 151 -106 159 -105 185 -105 c 2
 294 -105 l 2
 351 -105 395 -72 406 -20 c 2
 417 35 l 1
 364 1 318 -14 266 -14 c 0
 132 -14 51 86 79 218 c 0
 108 351 231 451 365 451 c 0
 419 451 463 434 495 401 c 1xd0
346 351 m 0xd0
 270 351 195 292 180 219 c 0
 164 145 213 86 289 86 c 0
 365 86 441 145 456 217 c 0
 472 292 424 351 346 351 c 0xd0
EndSplineSet
EndChar
StartChar: h
Encoding: 72 104 83
Width: 600
Flags: W
HStem: 0 100<89 222 391 515 403 536> 350 100<371.5 481> 524 100<190 212>
Fore
328 624 m 1
 278 389 l 1
 326 430 376 450 428 450 c 0
 534 450 591 384 569 284 c 2
 530 100 l 1
 536 100 l 2
 563 100 572 98 580 91 c 0
 590 81 595 66 592 50 c 0
 588 33 575 16 558 7 c 0
 549 2 536 0 515 0 c 2
 403 0 l 2
 379 0 367 3 359 9 c 0
 348 19 343 34 347 50 c 0
 350 67 363 83 380 93 c 0
 390 98 399 100 424 100 c 2
 430 100 l 1
 467 271 l 2
 474 305 472 317 458 331 c 0
 444 345 426 350 395 350 c 0
 348 350 324 338 255 283 c 1
 216 100 l 1
 222 100 l 2
 250 100 258 98 266 91 c 0
 277 81 282 66 279 50 c 0
 275 33 263 17 245 7 c 0
 236 2 222 0 201 0 c 2
 89 0 l 2
 65 0 54 3 46 9 c 0
 35 19 30 35 34 50 c 0
 37 67 50 84 67 93 c 0
 77 98 85 100 110 100 c 2
 116 100 l 1
 206 524 l 1
 190 524 l 2
 164 524 155 526 146 533 c 0
 136 543 132 559 135 574 c 0
 139 591 151 608 168 617 c 0
 178 622 188 624 212 624 c 2
 328 624 l 1
EndSplineSet
EndChar
StartChar: i
Encoding: 73 105 84
Width: 600
Flags: W
HStem: 0 100<128 493> 337 100<244 322> 603 20G<350 468>
Fore
443 437 m 1
 371 100 l 1
 493 100 l 2
 520 100 528 98 536 91 c 0
 547 81 552 66 549 50 c 0
 545 33 533 17 515 7 c 0
 508 3 492 0 472 0 c 2
 128 0 l 2
 105 0 92 3 85 10 c 0
 74 19 69 34 73 50 c 0
 76 67 89 84 106 93 c 0
 116 99 123 100 149 100 c 2
 271 100 l 1
 322 337 l 1
 244 337 l 2
 219 337 207 339 200 347 c 1
 189 356 184 371 187 387 c 0
 191 404 203 421 220 430 c 0
 231 436 239 437 265 437 c 2
 443 437 l 1
468 623 m 1
 446 518 l 1
 328 518 l 1
 350 623 l 1
 468 623 l 1
EndSplineSet
EndChar
StartChar: j
Encoding: 74 106 85
Width: 600
Flags: W
HStem: -205 100<139 307.5> 337 100<258 581> 603 20G<443 562>
Fore
460 337 m 1
 258 337 l 2
 233 337 222 339 215 347 c 1
 204 356 199 372 202 387 c 0
 206 404 218 421 235 430 c 0
 246 436 253 437 279 437 c 2
 581 437 l 1
 484 -20 l 2
 461 -125 362 -205 253 -205 c 2
 139 -205 l 2
 114 -205 104 -203 97 -195 c 1
 85 -186 81 -170 84 -155 c 0
 88 -138 101 -121 117 -112 c 0
 127 -106 136 -105 161 -105 c 2
 272 -105 l 2
 329 -105 373 -72 384 -20 c 2
 460 337 l 1
562 623 m 1
 540 518 l 1
 421 518 l 1
 443 623 l 1
 562 623 l 1
EndSplineSet
EndChar
StartChar: k
Encoding: 75 107 86
Width: 600
Flags: W
HStem: 0 100<77 136 492 525> 337 100<501 562.5> 524 100<210 232>
Fore
250 164 m 1
 215 0 l 1
 99 0 l 2
 55 0 37 17 44 50 c 0
 47 67 60 84 77 93 c 0
 87 99 95 100 120 100 c 2
 136 100 l 1
 226 524 l 1
 210 524 l 2
 184 524 175 526 166 533 c 0
 156 543 152 558 155 574 c 0
 159 591 171 608 188 617 c 0
 198 623 208 624 232 624 c 2
 348 624 l 1
 276 287 l 1
 368 350 l 1
 359 364 357 373 360 387 c 0
 364 404 376 420 393 430 c 0
 402 435 414 437 438 437 c 2
 550 437 l 2
 575 437 585 435 594 428 c 0
 605 418 609 403 605 387 c 0
 602 370 589 354 572 344 c 0
 563 339 552 337 529 337 c 2
 501 337 l 1
 362 241 l 1
 492 100 l 1
 525 100 l 2
 553 100 561 98 569 91 c 0
 580 81 585 66 582 50 c 0
 578 33 566 17 548 7 c 0
 539 2 526 0 504 0 c 2
 386 0 l 2
 342 0 324 17 331 50 c 0
 334 64 340 74 354 87 c 1
 271 178 l 1
 250 164 l 1
EndSplineSet
EndChar
StartChar: l
Encoding: 76 108 87
Width: 600
Flags: W
HStem: 0 100<128 493> 524 100<283 361>
Fore
483 624 m 1
 371 100 l 1
 493 100 l 2
 520 100 528 98 536 91 c 0
 547 81 552 66 549 50 c 0
 545 33 533 17 515 7 c 0
 508 3 492 0 472 0 c 2
 128 0 l 2
 105 0 92 3 85 10 c 0
 74 19 69 35 73 50 c 0
 76 67 89 84 106 93 c 0
 116 99 123 100 149 100 c 2
 271 100 l 1
 361 524 l 1
 283 524 l 2
 258 524 247 526 240 534 c 1
 227 543 224 558 227 574 c 0
 231 592 243 608 260 617 c 0
 270 623 280 624 305 624 c 2
 483 624 l 1
EndSplineSet
EndChar
StartChar: m
Encoding: 77 109 88
Width: 600
Flags: W
HStem: 0 100<43 62 48 181.5 346 392 557 603> 350 100<277.5 341.5 489 565.5>
Fore
63 387 m 0
 70 421 101 437 141 437 c 2
 234 437 l 1
 229 413 l 1
 270 441 292 450 322 450 c 0
 361 450 390 434 413 401 c 1
 451 435 487 450 528 450 c 0
 603 450 647 394 631 319 c 2
 584 100 l 1
 622 100 640 82 634 50 c 0
 627 17 601 0 557 0 c 2
 463 0 l 1
 529 311 l 2
 535 340 528 350 502 350 c 0
 476 350 458 341 417 305 c 1
 373 100 l 1
 411 100 429 81 423 50 c 0
 419 33 407 17 389 7 c 0
 380 2 367 0 346 0 c 2
 252 0 l 1
 318 311 l 2
 324 339 316 350 291 350 c 0
 264 350 243 339 206 305 c 1
 162 100 l 1
 201 100 219 82 213 50 c 0
 209 33 197 17 179 7 c 0
 170 2 157 0 136 0 c 2
 48 0 l 2
 24 0 12 3 4 10 c 0
 -7 19 -12 35 -8 50 c 0
 -2 82 24 100 62 100 c 1
 113 337 l 1
 75 338 57 356 63 387 c 0
EndSplineSet
EndChar
StartChar: n
Encoding: 78 110 89
Width: 600
Flags: W
HStem: 0 100<77 201 89 222 411.5 431 416 550.5> 350 100<371 478>
Fore
116 387 m 0
 124 423 155 437 194 437 c 2
 288 437 l 1
 278 389 l 1
 335 435 373 450 428 450 c 0
 528 450 593 392 570 282 c 2
 531 100 l 1
 570 100 588 82 582 50 c 0
 578 33 565 16 548 7 c 0
 539 2 526 0 505 0 c 2
 416 0 l 2
 371 0 353 17 360 50 c 0
 366 82 392 100 431 100 c 1
 469 278 l 2
 480 327 456 350 394 350 c 0
 348 350 313 333 255 282 c 1
 216 100 l 1
 222 100 l 2
 249 100 257 98 265 91 c 0
 276 81 281 66 278 50 c 0
 274 33 262 17 244 7 c 0
 235 2 222 0 201 0 c 2
 89 0 l 2
 65 0 54 3 45 10 c 0
 35 19 30 35 34 50 c 0
 37 67 50 84 67 93 c 0
 77 98 85 100 110 100 c 2
 116 100 l 1
 167 337 l 1
 128 338 109 355 116 387 c 0
EndSplineSet
EndChar
StartChar: o
Encoding: 79 111 90
Width: 600
Flags: W
HStem: -16 100<225 369> 350 100<325 469.5>
Fore
399 450 m 0
 540 450 632 346 604 217 c 0
 576 87 441 -16 297 -16 c 0
 153 -16 60 87 88 217 c 0
 116 349 251 450 399 450 c 0
376 350 m 0
 285 350 204 293 188 217 c 0
 172 142 229 84 318 84 c 0
 407 84 488 142 504 217 c 0
 520 291 463 350 376 350 c 0
EndSplineSet
EndChar
StartChar: p
Encoding: 80 112 91
Width: 600
Flags: W
HStem: -205 100<14 210> 10 100<301.5 400.5> 337 100<130 151> 350 100<376 493>
Fore
188 66 m 1xd0
 152 -105 l 1
 210 -105 l 2
 236 -105 245 -107 254 -114 c 0
 265 -124 268 -139 265 -155 c 0
 261 -172 249 -188 232 -198 c 0
 223 -203 210 -205 188 -205 c 2
 14 -205 l 2
 -11 -205 -21 -203 -29 -195 c 0
 -40 -186 -44 -171 -41 -155 c 0
 -37 -138 -25 -121 -8 -112 c 0
 2 -106 12 -105 36 -105 c 2
 52 -105 l 1
 146 337 l 1
 130 337 l 2
 104 337 94 339 86 346 c 0
 76 356 71 371 74 387 c 0
 78 404 90 421 107 430 c 0
 117 435 127 437 151 437 c 2
 267 437 l 1xe0
 257 392 l 1
 315 434 361 450 423 450 c 0
 563 450 646 353 619 224 c 0
 592 101 470 10 331 10 c 0
 272 10 232 26 188 66 c 1xd0
397 350 m 0xd0
 355 350 320 341 290 321 c 0
 257 300 230 263 223 231 c 0
 208 160 258 110 346 110 c 0
 432 110 505 160 520 230 c 0
 527 263 516 300 491 321 c 0
 469 341 438 350 397 350 c 0xd0
EndSplineSet
EndChar
StartChar: q
Encoding: 81 113 92
Width: 600
Flags: W
HStem: -205 100<316.5 503 509 525> 10 100<207.5 326> 337 100<603 653.5> 350 100<303 404.5>
Fore
409 -105 m 1xe0
 445 66 l 1
 385 26 336 10 277 10 c 0
 138 10 54 101 81 224 c 0
 108 354 233 450 373 450 c 0xd0
 436 450 474 434 514 392 c 1
 524 437 l 1
 640 437 l 2
 667 437 675 435 684 428 c 0
 694 418 699 403 695 387 c 0
 692 370 679 353 662 344 c 0
 653 339 642 337 619 337 c 2
 603 337 l 1
 509 -105 l 1
 525 -105 l 2
 552 -105 560 -107 569 -114 c 0
 579 -124 583 -139 580 -155 c 0
 576 -172 564 -188 547 -198 c 0
 538 -203 525 -205 503 -205 c 2
 329 -205 l 2
 304 -205 294 -203 286 -195 c 0
 275 -185 271 -171 274 -155 c 0
 278 -138 290 -121 307 -112 c 0
 316 -107 327 -105 351 -105 c 2
 409 -105 l 1xe0
355 350 m 0
 314 350 279 340 249 321 c 0
 216 299 189 263 182 230 c 0
 175 197 186 161 211 139 c 0
 232 120 263 110 305 110 c 0
 347 110 384 120 413 139 c 0
 446 161 473 197 480 229 c 0
 495 300 444 350 355 350 c 0
EndSplineSet
EndChar
StartChar: r
Encoding: 82 114 93
Width: 600
Flags: W
HStem: 0 100<120 438> 337 100<214 250> 349 100<501 557.5>
Fore
371 437 m 1xc0
 357 372 l 1
 450 432 491 449 540 449 c 0
 575 449 605 437 630 411 c 0
 648 394 652 382 648 364 c 0
 642 336 615 313 588 313 c 0
 574 313 565 318 552 331 c 0
 540 344 531 349 517 349 c 0xa0
 485 349 442 325 331 247 c 1
 299 100 l 1
 438 100 l 2
 466 100 474 98 482 91 c 0
 493 81 498 66 495 50 c 0
 491 33 478 16 461 7 c 0
 454 3 438 0 417 0 c 2
 120 0 l 2
 97 0 84 3 76 10 c 0
 66 19 61 35 65 50 c 0
 68 67 81 84 98 93 c 0
 108 99 115 100 141 100 c 2
 199 100 l 1
 250 337 l 1
 215 337 l 2
 190 337 179 339 172 347 c 1
 161 356 156 371 159 387 c 0
 166 418 192 437 236 437 c 2
 371 437 l 1xc0
EndSplineSet
EndChar
StartChar: s
Encoding: 83 115 94
Width: 600
Flags: W
HStem: -16 100<272.5 365.5> 350 100<334 418.5>
Fore
516 281 m 0
 490 281 480 298 472 321 c 1
 448 341 417 350 375 350 c 0
 324 350 273 333 269 315 c 0
 267 306 275 297 290 291 c 0
 303 286 309 285 371 276 c 0
 444 266 481 255 508 238 c 0
 546 214 563 171 554 125 c 0
 536 43 430 -16 301 -16 c 0
 244 -16 195 -6 159 13 c 1
 146 4 137 1 124 1 c 0
 106 1 92 9 85 25 c 0
 82 34 82 43 87 67 c 2
 94 100 l 2
 100 127 104 136 114 146 c 0
 127 160 142 167 159 167 c 0
 185 167 199 153 201 123 c 1
 225 97 264 84 318 84 c 0
 382 84 439 104 444 127 c 0
 447 140 437 154 417 162 c 0
 402 169 382 173 329 179 c 0
 192 194 142 234 159 313 c 0
 176 393 274 450 394 450 c 0
 443 450 482 442 517 424 c 1
 529 443 540 450 555 450 c 0
 587 450 597 430 588 384 c 2
 580 347 l 2
 574 321 570 311 561 301 c 0
 548 289 531 281 516 281 c 0
EndSplineSet
EndChar
StartChar: t
Encoding: 84 116 95
Width: 600
Flags: W
HStem: -16 100<239 344.5> 337 100<151 186 286 488> 571 20G<282 298.5>
Fore
286 337 m 1
 244 141 l 2
 240 120 240 111 244 104 c 0
 253 91 280 84 318 84 c 0
 371 84 421 95 471 118 c 0
 490 127 497 129 508 129 c 0
 535 129 552 106 546 78 c 0
 540 54 526 41 484 24 c 0
 430 1 348 -16 296 -16 c 0
 182 -16 122 37 140 122 c 2
 186 337 l 1
 151 337 l 2
 126 337 115 339 107 347 c 0
 97 356 92 372 95 387 c 0
 99 404 111 421 128 430 c 0
 139 436 146 437 172 437 c 2
 207 437 l 1
 226 525 l 2
 231 551 235 561 245 571 c 0
 257 583 274 591 290 591 c 0
 307 591 322 582 328 567 c 0
 332 558 331 551 326 525 c 2
 307 437 l 1
 488 437 l 2
 515 437 522 435 532 428 c 1
 542 418 547 403 543 387 c 0
 540 370 527 353 510 344 c 0
 501 339 489 337 467 337 c 2
 286 337 l 1
EndSplineSet
EndChar
StartChar: u
Encoding: 85 117 96
Width: 600
Flags: W
HStem: -13 100<219 326> 0 100<505 550.5> 337 100<140 172 447 482>
Fore
270 -13 m 0xa0
 168 -13 105 46 128 156 c 2
 167 337 l 1
 140 337 l 2
 107 337 89 358 95 387 c 0
 99 404 111 421 128 430 c 0
 139 436 147 437 172 437 c 2
 288 437 l 1
 229 159 l 2
 218 110 241 87 301 87 c 0xa0
 351 87 379 100 443 155 c 1
 482 337 l 1
 447 337 l 2
 422 337 416 336 404 347 c 24
 392 358 388 372 391 387 c 0
 395 404 407 421 424 430 c 0
 435 436 444 437 468 437 c 2
 603 437 l 1
 531 100 l 1
 570 100 588 82 582 50 c 0
 578 33 566 17 548 7 c 0
 539 2 526 0 505 0 c 2
 410 0 l 1x60
 420 48 l 1
 360 1 325 -13 270 -13 c 0xa0
EndSplineSet
EndChar
StartChar: v
Encoding: 86 118 97
Width: 600
Flags: W
HStem: 0 21G<247 351> 337 100<138 291 471 627>
Fore
328 122 m 1
 481 337 l 1
 471 337 l 2
 446 337 435 339 428 346 c 0
 417 356 412 371 415 387 c 0
 419 404 431 421 448 430 c 0
 458 435 468 437 492 437 c 2
 627 437 l 2
 653 437 662 435 671 428 c 0
 681 418 686 403 682 387 c 0
 679 370 666 353 649 344 c 0
 640 339 629 337 606 337 c 2
 590 337 l 1
 351 0 l 1
 247 0 l 1
 152 337 l 1
 138 337 l 2
 113 337 102 339 95 346 c 0
 84 356 79 371 82 387 c 0
 86 404 98 421 115 430 c 0
 125 435 135 437 159 437 c 2
 291 437 l 2
 317 437 326 435 335 428 c 0
 345 418 350 403 346 387 c 0
 343 370 330 353 313 344 c 0
 304 339 293 337 270 337 c 2
 265 337 l 1
 328 122 l 1
EndSplineSet
EndChar
StartChar: w
Encoding: 87 119 98
Width: 600
Flags: W
HStem: 0 21G<139 233 372 464> 338 99<232 264 511.5 534>
Fore
457 387 m 0
 464 417 489 437 534 437 c 2
 627 437 l 2
 653 437 662 435 670 428 c 0
 681 418 686 403 682 387 c 0
 676 358 653 340 620 338 c 1
 464 0 l 1
 372 0 l 1
 339 181 l 1
 233 0 l 1
 139 0 l 1
 126 338 l 1
 92 340 76 358 82 387 c 0
 90 423 121 437 159 437 c 2
 251 437 l 2
 277 437 286 435 295 428 c 0
 305 418 310 403 306 387 c 0
 303 370 290 354 274 345 c 0
 265 340 257 338 232 338 c 1
 238 185 l 1
 332 343 l 1
 420 343 l 1
 447 185 l 1
 520 338 l 1
 513 338 l 2
 487 338 477 340 470 347 c 0
 459 356 454 372 457 387 c 0
EndSplineSet
EndChar
StartChar: x
Encoding: 88 120 99
Width: 600
Flags: W
HStem: 0 21G<87 198 401 513> 417 20G<199 291 493 584>
Fore
416 386 m 0
 424 423 455 437 493 437 c 2
 584 437 l 2
 610 437 619 435 628 428 c 0
 639 418 644 403 640 387 c 0
 634 358 611 340 577 337 c 1
 421 227 l 1
 546 100 l 1
 580 98 596 80 590 50 c 0
 586 33 572 16 556 7 c 0
 547 2 534 0 513 0 c 2
 401 0 l 2
 376 0 365 3 356 10 c 0
 345 20 341 34 345 51 c 0
 350 74 369 93 395 100 c 1
 333 161 l 1
 247 100 l 1
 273 88 280 75 275 51 c 0
 268 17 242 0 198 0 c 2
 87 0 l 2
 43 0 25 17 32 50 c 0
 38 80 62 98 96 100 c 1
 268 228 l 1
 164 337 l 1
 131 340 116 358 122 387 c 0
 130 423 161 437 199 437 c 2
 291 437 l 2
 317 437 326 435 335 427 c 0
 345 418 350 403 346 388 c 0
 343 370 330 353 311 342 c 1
 361 293 l 1
 433 343 l 1
 417 356 412 369 416 386 c 0
EndSplineSet
EndChar
StartChar: y
Encoding: 89 121 100
Width: 600
Flags: W
HStem: -205 100<43 280> 337 100<256 283 469.5 514>
Fore
436 387 m 0
 444 423 475 437 514 437 c 2
 606 437 l 2
 632 437 641 435 649 428 c 0
 661 418 665 403 661 387 c 0
 655 358 632 340 599 337 c 1
 275 -105 l 1
 280 -105 l 2
 306 -105 315 -107 324 -114 c 0
 334 -124 338 -139 335 -155 c 0
 331 -172 319 -188 302 -198 c 0
 293 -203 280 -205 258 -205 c 2
 43 -205 l 2
 18 -205 13 -206 1 -195 c 24
 -11 -184 -15 -171 -12 -155 c 0
 -8 -138 4 -121 21 -112 c 0
 31 -107 41 -105 65 -105 c 2
 165 -105 l 1
 243 3 l 1
 142 337 l 1
 111 341 97 359 103 387 c 0
 111 422 143 437 180 437 c 2
 270 437 l 2
 296 437 305 435 314 428 c 0
 324 418 329 403 325 387 c 0
 319 356 294 338 256 337 c 1
 322 114 l 1
 490 337 l 1
 449 337 429 355 436 387 c 0
EndSplineSet
EndChar
StartChar: z
Encoding: 90 122 101
Width: 600
Flags: W
HStem: 0 100<85 519> 337 100<190 599>
Fore
265 100 m 1
 440 100 l 1
 450 135 472 154 502 154 c 0
 519 154 534 145 540 130 c 0
 544 121 543 114 538 88 c 2
 519 0 l 1
 85 0 l 1
 103 83 l 1
 418 337 l 1
 269 337 l 1
 267 328 l 2
 261 301 257 293 248 283 c 0
 235 270 219 262 203 262 c 0
 186 262 171 271 165 286 c 0
 162 295 162 305 167 328 c 2
 190 437 l 1
 599 437 l 1
 582 356 l 1
 265 100 l 1
EndSplineSet
EndChar
StartChar: braceleft
Encoding: 91 123 102
Width: 600
Flags: W
HStem: 603 20G<474.5 526>
Fore
451 485 m 2
 418 328 l 2
 409 285 399 268 370 240 c 1
 388 211 389 194 378 142 c 2
 345 -15 l 2
 339 -42 345 -50 373 -52 c 0
 402 -54 417 -75 411 -103 c 0
 405 -133 378 -153 345 -153 c 0
 275 -153 228 -93 243 -22 c 2
 280 151 l 2
 286 179 282 186 256 189 c 0
 225 193 212 210 218 240 c 0
 224 269 245 287 278 290 c 0
 304 293 312 301 318 328 c 2
 353 492 l 2
 368 563 440 623 509 623 c 0
 543 623 561 603 555 573 c 0
 549 545 524 524 495 522 c 0
 467 521 457 512 451 485 c 2
EndSplineSet
EndChar
StartChar: bar
Encoding: 92 124 103
Width: 600
Flags: W
HStem: 602 20G<424 440.5>
Fore
468 556 m 6
 332 -87 l 6
 326 -112 322 -122 313 -132 c 4
 300 -145 283 -153 267 -153 c 4
 250 -153 236 -144 230 -129 c 4
 226 -121 227 -110 232 -87 c 6
 368 556 l 6
 374 582 378 592 387 602 c 4
 400 614 416 622 432 622 c 4
 449 622 464 613 470 598 c 4
 473 589 473 580 468 556 c 6
EndSplineSet
EndChar
StartChar: braceright
Encoding: 93 125 104
Width: 600
Flags: W
HStem: 603 20G<337.5 389>
Fore
249 -15 m 2
 282 142 l 2
 291 185 301 202 330 230 c 1
 312 259 311 276 322 328 c 2
 355 485 l 2
 361 512 355 520 327 522 c 0
 298 524 283 545 289 573 c 0
 295 603 321 623 354 623 c 0
 424 623 472 563 457 492 c 2
 420 319 l 2
 414 291 418 284 444 281 c 0
 475 277 488 260 482 230 c 0
 476 201 455 183 422 180 c 0
 396 177 388 169 382 142 c 2
 347 -22 l 2
 332 -93 259 -153 190 -153 c 0
 156 -153 139 -133 145 -103 c 0
 151 -75 176 -54 205 -52 c 0
 233 -51 243 -42 249 -15 c 2
EndSplineSet
EndChar
StartChar: asciitilde
Encoding: 94 126 105
Width: 600
Flags: W
Fore
565 364 m 0
 592 364 610 341 605 314 c 0
 600 294 590 280 548 241 c 0
 502 197 468 179 429 179 c 0
 390 179 357 200 308 254 c 0
 291 272 280 281 272 281 c 0
 262 281 250 272 216 239 c 0
 183 207 174 201 156 201 c 0
 129 201 110 225 116 252 c 0
 120 271 134 290 169 322 c 0
 218 367 254 385 295 385 c 0
 337 385 361 370 415 307 c 1
 430 292 440 284 449 284 c 0
 460 284 476 297 508 330 c 0
 534 357 545 364 565 364 c 0
EndSplineSet
EndChar
StartChar: exclamdown
Encoding: 96 161 107
Width: 600
Flags: W
HStem: 294 132<354 400>
Fore
198 -114 m 1
 290 183 l 2
 299 214 321 232 349 232 c 0
 377 232 392 213 389 183 c 2
 355 -114 l 1
 353 -127 351 -141 350 -147 c 0
 340 -193 299 -227 252 -227 c 0
 206 -227 179 -193 189 -147 c 0
 190 -140 194 -126 198 -114 c 1
383 426 m 2
 400 426 l 2
 437 426 459 397 452 360 c 0
 444 323 408 294 371 294 c 2
 354 294 l 2
 317 294 294 323 302 360 c 0
 309 397 346 426 383 426 c 2
EndSplineSet
EndChar
StartChar: cent
Encoding: 97 162 108
Width: 600
Flags: W
Fore
372 99 m 1
 356 22 l 2
 350 -5 346 -13 337 -23 c 0
 324 -36 308 -44 292 -44 c 0
 275 -44 261 -35 254 -20 c 0
 250 -12 251 -1 256 22 c 2
 273 103 l 1
 175 128 127 209 149 312 c 0
 170 409 257 493 361 517 c 1
 377 594 l 2
 383 621 387 630 397 640 c 0
 410 654 426 661 442 661 c 0
 458 661 474 652 479 637 c 0
 483 628 483 620 477 594 c 2
 463 527 l 1
 493 522 513 515 531 503 c 1
 541 506 546 507 552 507 c 0
 570 507 584 498 591 483 c 0
 595 474 594 467 589 441 c 2
 580 399 l 2
 574 372 570 364 561 354 c 0
 548 341 532 333 516 333 c 0
 504 333 490 339 484 346 c 1
 478 354 478 354 477 384 c 0
 476 414 456 427 411 427 c 0
 332 427 263 377 249 310 c 0
 236 247 280 197 352 197 c 0
 389 197 425 208 465 233 c 0
 478 241 489 245 501 245 c 0
 527 245 546 221 540 194 c 0
 531 152 463 114 372 99 c 1
EndSplineSet
EndChar
StartChar: sterling
Encoding: 98 163 109
Width: 600
Flags: W
HStem: 0 100<109.5 471> 243 100<138.5 220 319 400.5> 444 21G<492.5 515.5> 498 100<375.5 465>
Fore
366 243 m 2
 321 243 l 1
 319 231 317 221 316 216 c 0
 307 172 294 142 268 100 c 1
 471 100 l 1
 482 130 502 146 530 146 c 0
 561 146 576 124 569 90 c 0
 557 32 512 0 442 0 c 2
 121 0 l 2
 98 0 86 3 78 10 c 0
 67 19 62 35 66 51 c 0
 72 78 90 93 126 100 c 0
 152 105 165 113 178 132 c 0
 196 157 209 188 217 224 c 0
 217 227 219 235 220 243 c 1
 151 243 l 2
 126 243 115 245 108 252 c 0
 97 262 92 277 95 293 c 0
 99 310 112 327 128 336 c 0
 139 342 147 343 172 343 c 2
 216 343 l 1
 212 379 212 403 218 432 c 0
 238 529 325 598 426 598 c 0
 504 598 573 546 562 495 c 0
 556 467 529 444 502 444 c 0
 483 444 479 447 461 472 c 0
 449 490 431 498 404 498 c 0
 363 498 326 472 319 437 c 0
 314 416 314 414 319 343 c 1
 387 343 l 2
 414 343 422 341 431 334 c 0
 442 324 447 309 443 293 c 0
 440 276 427 260 410 250 c 0
 400 245 390 243 366 243 c 2
EndSplineSet
EndChar
StartChar: currency
Encoding: 99 164 110
Width: 600
Flags: W
HStem: 97 100<303 367.5> 388 100<356 422>
Fore
213 388 m 1
 198 408 166 438 173 469 c 0
 178 496 206 519 234 519 c 0
 251 519 257 515 276 493 c 2
 301 462 l 1
 342 482 368 488 404 488 c 0
 440 488 462 481 495 461 c 1
 532 491 l 2
 559 513 568 517 585 517 c 0
 613 517 631 494 625 466 c 0
 621 449 616 442 589 420 c 2
 551 388 l 1
 563 351 564 327 556 292 c 0
 549 257 538 233 510 196 c 1
 535 162 l 2
 552 141 555 132 552 116 c 0
 546 88 517 64 489 64 c 0
 472 64 465 68 448 90 c 2
 421 122 l 1
 381 103 356 97 321 97 c 0
 285 97 263 103 230 123 c 1
 190 91 l 2
 162 68 155 64 138 64 c 0
 110 64 91 87 97 115 c 0
 101 132 107 139 133 162 c 2
 173 196 l 1
 162 233 161 257 168 292 c 0
 176 328 187 352 213 388 c 1
382 388 m 0
 330 388 280 346 268 293 c 0
 257 241 291 197 342 197 c 0
 393 197 445 241 456 292 c 0
 468 346 435 388 382 388 c 0
EndSplineSet
EndChar
StartChar: yen
Encoding: 100 165 111
Width: 600
Flags: W
HStem: 0 100<203 419> 135 56<182 291 379 488> 225 56<191 298 398 507> 480 100<184 210 616 650>
Fore
375 348 m 1
 498 481 l 1
 474 488 463 506 468 530 c 0
 471 547 484 564 501 573 c 0
 511 579 519 580 545 580 c 2
 636 580 l 2
 664 580 671 578 679 571 c 0
 690 561 695 546 692 530 c 0
 688 513 676 497 659 487 c 0
 651 483 625 480 616 480 c 1
 435 281 l 1
 507 281 l 2
 527 281 536 271 532 253 c 0
 528 235 515 225 495 225 c 2
 398 225 l 1
 391 191 l 1
 488 191 l 2
 508 191 516 181 513 163 c 0
 509 145 496 135 476 135 c 2
 379 135 l 1
 371 100 l 1
 418 100 l 2
 445 100 453 98 461 91 c 0
 473 81 477 66 474 50 c 0
 467 17 441 0 397 0 c 2
 203 0 l 2
 180 0 167 3 160 10 c 0
 149 19 144 35 148 50 c 0
 151 67 164 84 181 93 c 0
 191 99 199 100 225 100 c 2
 271 100 l 1
 279 135 l 1
 182 135 l 2
 162 135 153 145 157 163 c 0
 160 181 174 191 194 191 c 2
 291 191 l 1
 298 225 l 1
 201 225 l 2
 181 225 172 235 176 253 c 0
 180 271 192 281 213 281 c 2
 285 281 l 1
 189 481 l 1
 187 480 185 480 184 480 c 0
 149 477 127 499 134 530 c 0
 137 547 150 564 167 573 c 0
 177 579 184 580 210 580 c 2
 302 580 l 2
 331 580 338 578 347 570 c 0
 358 560 362 546 359 530 c 0
 354 506 333 486 309 482 c 1
 375 348 l 1
EndSplineSet
EndChar
StartChar: brokenbar
Encoding: 101 166 112
Width: 600
Flags: W
HStem: 602 20G<424 445.5>
Fore
468 556 m 2
 425 353 l 2
 419 326 416 318 406 308 c 0
 394 295 377 287 361 287 c 0
 344 287 329 296 323 311 c 0
 320 319 320 330 325 353 c 2
 368 556 l 2
 373 581 378 592 387 601 c 0
 400 614 416 622 432 622 c 0
 459 622 474 605 472 577 c 0
 470 566 470 564 468 556 c 2
375 116 m 2
 332 -87 l 2
 326 -112 322 -122 313 -132 c 0
 300 -145 283 -153 267 -153 c 0
 250 -153 236 -144 230 -129 c 0
 226 -121 227 -110 232 -87 c 2
 275 116 l 2
 280 142 284 152 293 162 c 0
 306 174 323 182 339 182 c 0
 356 182 371 173 377 158 c 0
 380 149 380 140 375 116 c 2
EndSplineSet
EndChar
StartChar: section
Encoding: 102 167 113
Width: 600
Flags: W
HStem: -170 88<45 315> 493 90<392 643>
Fore
536 493 m 1
 392 493 l 2
 353 493 317 469 311 440 c 0
 305 415 333 383 397 342 c 2
 478 291 l 2
 581 226 605 191 591 129 c 0
 578 68 532 25 464 10 c 1
 465 -7 464 -16 461 -28 c 0
 454 -63 434 -94 403 -123 c 0
 366 -156 329 -170 276 -170 c 2
 45 -170 l 1
 72 -43 l 2
 80 -6 98 12 128 12 c 0
 144 12 156 4 161 -9 c 0
 165 -16 164 -22 160 -43 c 2
 152 -82 l 1
 297 -82 l 2
 333 -82 369 -57 375 -29 c 0
 380 -3 353 29 291 69 c 2
 198 130 l 2
 111 187 84 226 96 283 c 0
 109 342 154 384 222 402 c 1
 221 414 221 420 224 432 c 0
 232 469 255 507 288 535 c 0
 326 569 365 583 418 583 c 2
 643 583 l 1
 616 456 l 2
 611 433 609 427 600 419 c 0
 590 408 574 401 560 401 c 0
 545 401 532 409 526 421 c 0
 524 428 524 437 528 456 c 2
 536 493 l 1
416 214 m 2
 330 271 l 2
 300 290 291 297 261 326 c 1
 222 326 199 314 194 292 c 0
 189 266 210 239 262 205 c 2
 352 147 l 1
 398 114 412 103 426 88 c 1
 443 88 l 1
 468 89 490 102 494 121 c 0
 499 144 471 178 416 214 c 2
EndSplineSet
EndChar
StartChar: dieresis
Encoding: 103 168 114
Width: 600
Flags: W
HStem: 534 120<293.5 352 501.5 560>
Fore
335 654 m 0
 369 654 389 627 382 593 c 0
 375 561 343 534 310 534 c 0
 277 534 255 561 262 594 c 0
 269 627 302 654 335 654 c 0
543 654 m 0
 577 654 597 627 590 593 c 0
 583 561 551 534 518 534 c 0
 485 534 463 561 470 594 c 0
 477 627 510 654 543 654 c 0
EndSplineSet
EndChar
StartChar: copyright
Encoding: 104 169 115
Width: 600
Flags: W
HStem: -15 73<210.5 379.5> 118 71<279 362.5> 395 71<345.5 404> 525 73<341.5 511>
Fore
192 269 m 2
 200 305 l 2
 219 397 301 466 390 466 c 0
 418 466 440 461 465 447 c 1
 473 459 483 466 497 466 c 0
 517 466 527 451 522 428 c 1
 509 368 l 1
 503 340 487 324 465 324 c 0
 444 324 436 335 437 360 c 0
 438 379 411 395 377 395 c 0
 326 395 282 357 271 304 c 2
 263 270 l 2
 253 221 284 189 343 189 c 0
 382 189 396 194 424 218 c 0
 433 225 443 229 452 229 c 0
 471 229 484 212 480 193 c 0
 472 154 398 118 327 118 c 0
 231 118 174 182 192 269 c 2
426 598 m 0
 596 598 704 461 668 292 c 0
 632 121 466 -15 293 -15 c 0
 128 -15 19 124 55 292 c 0
 91 461 257 598 426 598 c 0
412 525 m 0
 282 525 155 421 128 292 c 0
 101 164 183 58 309 58 c 0
 441 58 567 161 595 292 c 0
 622 421 540 525 412 525 c 0
EndSplineSet
EndChar
StartChar: ordfeminine
Encoding: 105 170 116
Width: 600
Flags: W
HStem: 182 77<215 504> 273 79<268.5 343> 284 78<499 515.5> 417 70<356 406> 517 78<394.5 462.5>
Fore
414 284 m 1xb8
 417 295 l 1
 373 279 343 273 304 273 c 0xd8
 233 273 185 316 196 369 c 0
 201 390 217 415 238 434 c 0
 278 470 329 487 396 487 c 0
 416 487 428 486 456 482 c 1
 458 490 l 2
 462 509 447 517 406 517 c 0
 383 517 358 514 325 506 c 0
 313 503 301 501 295 501 c 0
 274 501 261 519 266 541 c 0
 269 557 281 569 297 575 c 0
 334 587 383 595 418 595 c 0
 507 595 550 557 536 490 c 2
 509 362 l 1
 515 362 l 2
 550 362 563 350 558 323 c 0
 552 298 532 284 499 284 c 2
 414 284 l 1xb8
435 383 m 1
 441 410 l 1
 410 416 396 417 377 417 c 0
 335 417 293 397 288 374 c 0
 286 361 302 352 327 352 c 0
 359 352 406 365 435 383 c 1
471 182 m 2
 215 182 l 2
 171 182 164 189 172 227 c 0
 178 252 190 259 231 259 c 2
 486 259 l 2
 522 259 536 247 530 221 c 0
 524 195 505 182 471 182 c 2
EndSplineSet
EndChar
StartChar: guillemotleft
Encoding: 106 171 117
Width: 600
Flags: W
Fore
221 218 m 1
 342 77 l 2
 351 67 355 59 353 50 c 0
 349 34 331 20 313 20 c 0
 304 20 300 22 288 33 c 2
 79 218 l 1
 366 402 l 2
 383 413 388 415 398 415 c 0
 415 415 427 401 424 385 c 0
 422 376 416 368 402 358 c 1
 221 218 l 1
450 218 m 1
 571 77 l 2
 580 67 584 59 582 50 c 0
 578 34 560 20 542 20 c 0
 533 20 529 22 517 33 c 2
 308 218 l 1
 595 402 l 2
 612 413 617 415 627 415 c 0
 644 415 656 401 653 385 c 0
 651 376 645 368 631 358 c 1
 450 218 l 1
EndSplineSet
EndChar
StartChar: logicalnot
Encoding: 107 172 118
Width: 600
Flags: W
HStem: 345 100<181 560>
Fore
560 445 m 1
 503 181 l 2
 498 154 494 146 485 136 c 0
 472 123 455 115 439 115 c 0
 422 115 407 124 402 139 c 0
 398 148 399 158 403 181 c 2
 438 345 l 1
 181 345 l 2
 157 345 146 347 138 355 c 1
 127 364 123 380 126 395 c 0
 130 412 142 429 159 438 c 0
 169 444 177 445 203 445 c 2
 560 445 l 1
EndSplineSet
EndChar
StartChar: registered
Encoding: 109 174 120
Width: 600
Flags: W
HStem: -15 73<210.5 379.5> 126 71<225 239 226 324> 387 71<351 426.5> 525 73<342.5 511>
Fore
321 246 m 1
 311 197 l 1
 337 197 350 184 345 162 c 0
 341 139 322 126 294 126 c 2
 226 126 l 2
 197 126 184 139 188 162 c 0
 193 184 211 197 239 197 c 1
 279 387 l 1
 251 388 239 401 244 423 c 0
 249 446 267 458 296 458 c 2
 389 458 l 2
 464 458 507 415 494 354 c 0
 486 317 455 283 415 266 c 1
 434 244 439 235 453 197 c 1
 475 195 486 182 481 162 c 0
 477 139 458 126 430 126 c 2
 390 126 l 1
 388 175 362 233 336 246 c 1
 321 246 l 1
336 316 m 1
 361 316 l 2
 392 316 419 333 423 355 c 0
 427 374 409 387 376 387 c 2
 351 387 l 1
 336 316 l 1
427 598 m 0
 595 598 704 461 668 292 c 0
 632 121 466 -15 293 -15 c 0
 128 -15 19 124 55 292 c 0
 91 460 258 598 427 598 c 0
412 525 m 0
 283 525 155 420 128 292 c 0
 101 164 183 58 309 58 c 0
 441 58 567 161 595 292 c 0
 622 420 540 525 412 525 c 0
EndSplineSet
EndChar
StartChar: macron
Encoding: 110 175 121
Width: 600
Flags: W
HStem: 546 80<281.5 555>
Fore
311 626 m 2
 555 626 l 2
 578 626 589 623 595 615 c 0
 599 608 601 594 600 586 c 0
 594 561 571 546 538 546 c 2
 294 546 l 2
 269 546 261 548 255 558 c 0
 250 566 248 578 250 586 c 0
 255 611 277 626 311 626 c 2
EndSplineSet
EndChar
StartChar: degree
Encoding: 111 176 122
Width: 600
Flags: W
HStem: 243 61<303 399.5> 535 61<378.5 475.5>
Fore
427 596 m 0
 524 596 585 517 564 420 c 0
 543 321 449 243 350 243 c 0
 256 243 194 323 214 420 c 0
 235 517 330 596 427 596 c 0
414 535 m 0
 351 535 289 483 275 420 c 0
 262 357 303 304 364 304 c 0
 428 304 490 356 503 420 c 0
 517 483 477 535 414 535 c 0
EndSplineSet
EndChar
StartChar: plusminus
Encoding: 112 177 123
Width: 600
Flags: W
HStem: 0 100<96 513> 330 100<178 341 420 582> 604 20G<425 441.5>
Fore
420 330 m 1
 399 230 l 2
 393 203 389 195 380 185 c 0
 368 172 351 164 335 164 c 0
 318 164 303 174 297 188 c 0
 294 197 294 207 299 230 c 2
 320 330 l 1
 178 330 l 2
 154 330 143 332 135 340 c 1
 124 349 120 365 123 380 c 0
 126 397 140 414 156 423 c 0
 166 429 174 430 199 430 c 2
 341 430 l 1
 369 558 l 2
 374 584 378 594 388 603 c 1
 400 616 417 624 433 624 c 0
 450 624 465 615 471 600 c 0
 475 591 474 584 469 558 c 2
 441 430 l 1
 582 430 l 2
 610 430 618 428 626 421 c 0
 637 411 642 396 639 380 c 0
 635 363 623 346 606 337 c 0
 597 332 584 330 561 330 c 2
 420 330 l 1
129 100 m 2
 513 100 l 2
 540 100 548 98 556 91 c 0
 567 81 572 66 569 50 c 0
 565 33 552 16 535 7 c 0
 526 2 514 0 492 0 c 2
 108 0 l 2
 84 0 72 2 65 10 c 1
 54 19 49 35 53 50 c 0
 56 67 70 84 86 93 c 0
 96 99 104 100 129 100 c 2
EndSplineSet
EndChar
StartChar: twosuperior
Encoding: 113 178 124
Width: 600
Flags: W
HStem: 247 99<459.5 482> 247 67<202 429> 570 67<402.5 466.5>
Fore
320 314 m 1x60
 429 314 l 1x60
 436 335 450 346 469 346 c 0
 492 346 500 332 493 303 c 2
 482 247 l 1xa0
 202 247 l 1
 216 315 l 1
 435 469 463 492 469 520 c 0
 474 548 451 570 414 570 c 0
 391 570 369 562 353 546 c 0
 347 540 346 539 336 520 c 0
 329 508 314 500 301 500 c 0
 282 500 270 515 274 533 c 0
 279 553 301 583 326 602 c 0
 356 624 393 637 429 637 c 0
 504 637 550 586 535 517 c 0
 524 466 495 439 320 314 c 1x60
EndSplineSet
EndChar
StartChar: threesuperior
Encoding: 114 179 125
Width: 600
Flags: W
HStem: 238 67<297 378> 418 66<375 414> 570 67<403.5 473.5>
Fore
389 484 m 2
 414 484 l 2
 441 484 469 505 474 528 c 0
 480 554 458 570 420 570 c 0
 387 570 371 564 347 543 c 0
 340 537 330 533 321 533 c 0
 303 533 292 549 296 567 c 0
 303 604 371 637 437 637 c 0
 510 637 555 591 541 529 c 0
 535 498 511 469 477 450 c 2
 477 450 474 449 473 448 c 1
 510 427 526 393 517 355 c 0
 510 322 485 287 453 266 c 0
 423 247 386 238 336 238 c 0
 258 238 212 259 219 292 c 0
 223 311 241 326 259 326 c 0
 267 326 271 325 280 318 c 0
 292 308 310 305 348 305 c 0
 408 305 444 323 451 357 c 0
 455 378 442 399 418 411 c 0
 407 416 403 417 375 418 c 0
 354 420 344 432 348 451 c 0
 352 470 370 484 389 484 c 2
EndSplineSet
EndChar
StartChar: acute
Encoding: 115 180 126
Width: 600
Flags: W
Fore
585 624 m 1
 428 512 l 2
 410 500 402 496 392 496 c 0
 372 496 359 513 363 532 c 0
 366 545 375 556 394 569 c 2
 551 680 l 2
 569 693 575 696 586 696 c 0
 607 696 620 680 615 659 c 0
 613 647 604 637 585 624 c 1
EndSplineSet
EndChar
StartChar: paragraph
Encoding: 117 182 127
Width: 600
Flags: W
HStem: -174 78<136.5 291 448 485> 505 78<429 644>
Fore
575 505 m 1
 448 -96 l 1
 484 -96 l 2
 521 -96 535 -109 529 -135 c 0
 524 -161 503 -174 467 -174 c 2
 374 -174 l 2
 353 -174 345 -165 341 -140 c 1
 324 -168 315 -174 291 -174 c 2
 154 -174 l 2
 119 -174 104 -161 109 -135 c 0
 112 -122 123 -109 135 -102 c 0
 144 -97 150 -96 171 -96 c 2
 250 -96 l 1
 309 185 l 1
 183 198 107 272 126 361 c 2
 136 407 l 2
 156 504 287 583 429 583 c 2
 626 583 l 2
 662 583 677 570 672 544 c 0
 666 518 646 505 609 505 c 2
 575 505 l 1
327 266 m 1
 376 500 l 1
 306 486 258 450 248 405 c 2
 239 361 l 2
 229 316 263 280 327 266 c 1
499 505 m 1
 455 505 l 1
 328 -96 l 1
 339 -102 343 -108 345 -124 c 1
 352 -109 359 -102 372 -96 c 1
 499 505 l 1
EndSplineSet
EndChar
StartChar: periodcentered
Encoding: 118 183 128
Width: 600
Flags: W
HStem: 214 132<336 383>
Fore
354 214 m 2
 336 214 l 2
 300 214 277 244 285 280 c 0
 292 316 329 346 365 346 c 2
 383 346 l 2
 420 346 442 317 435 280 c 0
 427 243 391 214 354 214 c 2
EndSplineSet
EndChar
StartChar: cedilla
Encoding: 119 184 129
Width: 600
Flags: W
HStem: -229 70<232 282> -100 100<260.5 280>
Fore
251 -229 m 0
 213 -229 136 -209 145 -166 c 0
 149 -147 168 -131 187 -131 c 0
 195 -131 198 -132 214 -142 c 0
 230 -152 250 -159 267 -159 c 0
 290 -159 305 -150 309 -134 c 0
 313 -113 297 -100 263 -100 c 0
 258 -100 254 -100 240 -102 c 1
 262 0 l 1
 332 0 l 1
 323 -41 l 1
 372 -52 390 -81 379 -132 c 0
 367 -189 313 -229 251 -229 c 0
EndSplineSet
EndChar
StartChar: onesuperior
Encoding: 120 185 130
Width: 600
Flags: W
HStem: 247 67<262 334 263 458>
Fore
470 638 m 1
 401 314 l 1
 458 314 l 2
 487 314 498 303 494 281 c 0
 489 259 472 247 444 247 c 2
 263 247 l 2
 235 247 221 259 226 281 c 0
 230 303 247 314 277 314 c 2
 334 314 l 1
 384 551 l 1
 334 539 l 2
 322 536 319 535 313 535 c 0
 296 535 285 551 289 570 c 0
 293 589 304 597 330 604 c 2
 470 638 l 1
EndSplineSet
EndChar
StartChar: ordmasculine
Encoding: 121 186 131
Width: 600
Flags: W
HStem: 182 77<213 501> 273 78<312 405.5> 517 78<380.5 474.5>
Fore
427 595 m 0
 522 595 582 521 562 428 c 0
 544 343 452 273 359 273 c 0
 265 273 204 343 222 430 c 0
 242 520 334 595 427 595 c 0
411 517 m 0
 362 517 311 477 301 430 c 0
 292 388 328 351 376 351 c 0
 424 351 474 388 483 430 c 0
 493 477 460 517 411 517 c 0
467 182 m 2
 213 182 l 2
 178 182 163 195 169 221 c 0
 172 233 181 246 194 253 c 0
 203 258 208 259 229 259 c 2
 483 259 l 2
 519 259 533 247 527 221 c 0
 521 195 502 182 467 182 c 2
EndSplineSet
EndChar
StartChar: guillemotright
Encoding: 122 187 132
Width: 600
Flags: W
Fore
476 217 m 1
 355 358 l 2
 346 368 343 376 345 385 c 0
 348 401 366 415 384 415 c 0
 393 415 398 413 409 402 c 2
 617 217 l 1
 331 33 l 2
 315 22 309 20 299 20 c 0
 282 20 270 34 274 50 c 0
 276 59 281 67 295 77 c 1
 476 217 l 1
246 217 m 1
 125 358 l 2
 116 368 113 376 115 385 c 0
 118 401 136 415 154 415 c 0
 163 415 168 413 179 402 c 2
 387 217 l 1
 101 33 l 2
 85 22 79 20 69 20 c 0
 52 20 40 34 44 50 c 0
 46 59 51 67 65 77 c 1
 246 217 l 1
EndSplineSet
EndChar
StartChar: onequarter
Encoding: 123 188 133
Width: 600
Flags: W
HStem: 0 67<492 539> 83 67<478 557> 247 67<62 134 63 258> 567 20G<567.5 583.5>
Fore
270 638 m 1
 201 314 l 1
 258 314 l 2
 287 314 298 303 294 281 c 0
 289 259 272 247 244 247 c 2
 63 247 l 2
 35 247 21 259 26 281 c 0
 30 303 47 314 77 314 c 2
 134 314 l 1
 184 551 l 1
 134 539 l 2
 122 536 119 535 113 535 c 0
 96 535 85 551 89 570 c 0
 93 589 104 597 130 604 c 2
 270 638 l 1
585 528 m 2
 229 77 l 2
 214 58 204 51 190 51 c 0
 172 51 159 67 163 84 c 0
 164 90 169 99 178 110 c 1
 534 561 l 2
 550 581 560 587 575 587 c 0
 592 587 605 571 602 555 c 0
 600 548 596 541 585 528 c 2
673 380 m 1
 624 150 l 1
 647 149 658 137 654 117 c 0
 650 97 634 84 610 83 c 1
 606 67 l 1
 629 66 640 54 636 34 c 0
 632 12 613 0 585 0 c 2
 506 0 l 2
 478 0 466 12 470 34 c 0
 475 56 491 67 520 67 c 2
 539 67 l 1
 543 83 l 1
 380 83 l 1
 391 138 l 1
 589 380 l 1
 673 380 l 1
557 150 m 1
 584 279 l 1
 478 150 l 1
 557 150 l 1
EndSplineSet
Ligature: 8 2 'frac' one slash four
Ligature: 8 2 'frac' one fraction four
EndChar
StartChar: onehalf
Encoding: 124 189 134
Width: 600
Flags: W
HStem: 0 99<606.5 629> 0 67<349 576> 247 67<62 134 63 258> 323 67<550.5 614.5> 567 20G<567.5 583.5>
Fore
270 638 m 1x38
 201 314 l 1
 258 314 l 2
 287 314 298 303 294 281 c 0
 289 259 272 247 244 247 c 2
 63 247 l 2
 35 247 21 259 26 281 c 0
 30 303 47 314 77 314 c 2
 134 314 l 1
 184 551 l 1
 134 539 l 2
 122 536 119 535 113 535 c 0
 96 535 85 551 89 570 c 0
 93 589 104 597 130 604 c 2
 270 638 l 1x38
585 528 m 2
 229 77 l 2
 214 58 204 51 190 51 c 0
 172 51 159 67 163 84 c 0
 164 90 169 99 178 110 c 1
 534 561 l 2
 550 581 560 587 575 587 c 0
 592 587 605 571 602 555 c 0
 600 548 596 541 585 528 c 2
467 67 m 1x78
 576 67 l 1x78
 584 88 597 99 616 99 c 0
 639 99 647 85 641 56 c 2
 629 0 l 1xb8
 349 0 l 1
 363 68 l 1
 582 222 610 245 616 273 c 0
 622 301 599 323 562 323 c 0
 539 323 517 315 501 299 c 0
 494 293 493 292 483 273 c 0
 476 261 462 253 449 253 c 0
 430 253 418 268 422 286 c 0
 426 306 448 336 473 355 c 0
 503 377 541 390 577 390 c 0
 652 390 697 339 682 270 c 0
 672 219 643 192 467 67 c 1x78
EndSplineSet
Ligature: 8 2 'frac' one slash two
Ligature: 8 2 'frac' one fraction two
EndChar
StartChar: threequarters
Encoding: 125 190 135
Width: 600
Flags: W
HStem: 0 67<493 540> 83 67<478 558> 238 67<97 178> 418 66<175 214> 570 67<203.5 273.5>
Fore
189 484 m 2
 214 484 l 2
 241 484 269 505 274 528 c 0
 280 554 258 570 220 570 c 0
 187 570 171 564 147 543 c 0
 140 537 130 533 121 533 c 0
 103 533 92 549 96 567 c 0
 103 604 171 637 237 637 c 0
 310 637 355 591 341 529 c 0
 335 498 311 469 277 450 c 2
 277 450 274 449 273 448 c 1
 310 427 326 393 317 355 c 0
 310 322 285 287 253 266 c 0
 223 247 186 238 136 238 c 0
 58 238 12 259 19 292 c 0
 23 311 41 326 59 326 c 0
 67 326 71 325 80 318 c 0
 92 308 110 305 148 305 c 0
 208 305 244 323 251 357 c 0
 255 378 242 399 218 411 c 0
 207 416 203 417 175 418 c 0
 154 420 144 432 148 451 c 0
 152 470 170 484 189 484 c 2
586 528 m 2
 229 77 l 2
 214 58 204 51 190 51 c 0
 172 51 159 66 163 84 c 0
 164 91 168 97 178 110 c 2
 535 561 l 2
 550 581 560 587 575 587 c 0
 592 587 605 571 602 555 c 0
 601 549 595 539 586 528 c 2
674 380 m 1
 625 150 l 1
 648 149 659 137 655 117 c 0
 651 97 635 84 611 83 c 1
 607 67 l 1
 630 66 641 54 637 34 c 0
 633 12 614 0 586 0 c 2
 507 0 l 2
 479 0 466 12 470 34 c 0
 475 56 491 67 521 67 c 2
 540 67 l 1
 544 83 l 1
 380 83 l 1
 391 138 l 1
 590 380 l 1
 674 380 l 1
558 150 m 1
 585 279 l 1
 478 150 l 1
 558 150 l 1
EndSplineSet
Ligature: 8 2 'frac' three slash four
Ligature: 8 2 'frac' three fraction four
EndChar
StartChar: questiondown
Encoding: 126 191 136
Width: 600
Flags: W
HStem: -227 100<182 283> 254 132<343 388>
Fore
477 -89 m 2
 460 -168 l 1
 353 -215 308 -227 244 -227 c 0
 120 -227 51 -150 75 -38 c 0
 92 43 145 90 277 143 c 1
 289 179 310 197 339 197 c 0
 356 197 371 188 377 173 c 0
 380 164 380 154 375 131 c 2
 363 75 l 1
 225 26 183 0 174 -43 c 0
 163 -93 200 -127 264 -127 c 0
 302 -127 338 -119 374 -103 c 1
 377 -89 l 2
 383 -62 387 -54 396 -44 c 0
 408 -31 426 -23 441 -23 c 0
 458 -23 473 -33 479 -47 c 0
 482 -55 482 -66 477 -89 c 2
371 386 m 2
 388 386 l 2
 425 386 449 356 441 320 c 0
 433 284 397 254 360 254 c 2
 343 254 l 2
 306 254 283 283 291 320 c 0
 299 357 334 386 371 386 c 2
EndSplineSet
EndChar
StartChar: Agrave
Encoding: 127 192 137
Width: 600
Flags: W
HStem: 0 100<45 199 404 555 416 588> 158 100<212 450> 483 100<241 304>
Fore
450 158 m 1
 212 158 l 1
 176 100 l 1
 199 100 l 2
 226 100 234 98 242 91 c 0
 253 81 258 66 255 50 c 0
 251 33 238 16 221 7 c 0
 212 2 199 0 178 0 c 2
 45 0 l 2
 1 0 -17 17 -10 50 c 0
 -7 67 6 84 23 93 c 0
 33 99 42 100 67 100 c 1
 304 483 l 1
 241 483 l 2
 215 483 205 485 197 492 c 0
 186 502 181 517 184 533 c 0
 188 550 200 566 217 576 c 0
 228 582 235 583 262 583 c 2
 478 583 l 1
 574 100 l 1
 602 100 611 98 619 90 c 0
 630 81 635 66 632 50 c 0
 628 33 615 16 598 7 c 0
 589 2 576 0 555 0 c 2
 416 0 l 2
 392 0 381 3 373 10 c 0
 362 19 357 34 361 50 c 0
 364 67 377 84 394 93 c 0
 404 99 411 100 437 100 c 2
 460 100 l 1
 450 158 l 1
430 258 m 1
 393 450 l 1
 273 258 l 1
 430 258 l 1
385 824 m 2
 494 712 l 2
 508 699 512 688 510 676 c 0
 506 657 485 640 465 640 c 0
 456 640 447 645 436 656 c 2
 327 767 l 2
 313 781 309 790 312 803 c 0
 316 823 335 839 356 839 c 0
 366 839 373 835 385 824 c 2
EndSplineSet
EndChar
StartChar: Aacute
Encoding: 128 193 138
Width: 600
Flags: W
HStem: 0 100<45 199 404 555 416 588> 158 100<212 450> 483 100<241 304>
Fore
450 158 m 1
 212 158 l 1
 176 100 l 1
 199 100 l 2
 226 100 234 98 242 91 c 0
 253 81 258 66 255 50 c 0
 251 33 238 16 221 7 c 0
 212 2 199 0 178 0 c 2
 45 0 l 2
 1 0 -17 17 -10 50 c 0
 -7 67 6 84 23 93 c 0
 33 99 42 100 67 100 c 1
 304 483 l 1
 241 483 l 2
 215 483 205 485 197 492 c 0
 186 502 181 517 184 533 c 0
 188 550 200 566 217 576 c 0
 228 582 235 583 262 583 c 2
 478 583 l 1
 574 100 l 1
 602 100 611 98 619 90 c 0
 630 81 635 66 632 50 c 0
 628 33 615 16 598 7 c 0
 589 2 576 0 555 0 c 2
 416 0 l 2
 392 0 381 3 373 10 c 0
 362 19 357 34 361 50 c 0
 364 67 377 84 394 93 c 0
 404 99 411 100 437 100 c 2
 460 100 l 1
 450 158 l 1
430 258 m 1
 393 450 l 1
 273 258 l 1
 430 258 l 1
573 767 m 1
 416 656 l 2
 401 645 390 640 381 640 c 0
 361 640 348 657 352 676 c 0
 354 688 364 700 382 712 c 1
 539 824 l 2
 555 835 564 839 574 839 c 0
 595 839 608 823 604 803 c 0
 601 790 593 780 573 767 c 1
EndSplineSet
EndChar
StartChar: Acircumflex
Encoding: 129 194 139
Width: 600
Flags: W
HStem: 0 100<45 199 404 555 416 588> 158 100<212 450> 483 100<241 304>
Fore
450 158 m 1
 212 158 l 1
 176 100 l 1
 199 100 l 2
 226 100 234 98 242 91 c 0
 253 81 258 66 255 50 c 0
 251 33 238 16 221 7 c 0
 212 2 199 0 178 0 c 2
 45 0 l 2
 1 0 -17 17 -10 50 c 0
 -7 67 6 84 23 93 c 0
 33 99 42 100 67 100 c 1
 304 483 l 1
 241 483 l 2
 215 483 205 485 197 492 c 0
 186 502 181 517 184 533 c 0
 188 550 200 566 217 576 c 0
 228 582 235 583 262 583 c 2
 478 583 l 1
 574 100 l 1
 602 100 611 98 619 90 c 0
 630 81 635 66 632 50 c 0
 628 33 615 16 598 7 c 0
 589 2 576 0 555 0 c 2
 416 0 l 2
 392 0 381 3 373 10 c 0
 362 19 357 34 361 50 c 0
 364 67 377 84 394 93 c 0
 404 99 411 100 437 100 c 2
 460 100 l 1
 450 158 l 1
430 258 m 1
 393 450 l 1
 273 258 l 1
 430 258 l 1
443 750 m 1
 310 653 l 2
 296 643 288 640 279 640 c 0
 260 640 248 657 251 675 c 0
 254 689 257 692 283 711 c 2
 462 839 l 1
 586 711 l 1
 594 702 606 693 602 675 c 0
 599 657 579 640 561 640 c 0
 551 640 544 644 535 653 c 2
 443 750 l 1
EndSplineSet
EndChar
StartChar: Atilde
Encoding: 130 195 140
Width: 600
Flags: W
HStem: 0 100<45 199 404 555 416 588> 158 100<212 450> 483 100<241 304> 667 69<490 519.5> 730 69<356 389.5>
Fore
450 158 m 1xe0
 212 158 l 1
 176 100 l 1
 199 100 l 2
 226 100 234 98 242 91 c 0
 253 81 258 66 255 50 c 0
 251 33 238 16 221 7 c 0
 212 2 199 0 178 0 c 2
 45 0 l 2
 1 0 -17 17 -10 50 c 0
 -7 67 6 84 23 93 c 0
 33 99 42 100 67 100 c 1
 304 483 l 1
 241 483 l 2
 215 483 205 485 197 492 c 0
 186 502 181 517 184 533 c 0
 188 550 200 566 217 576 c 0
 228 582 235 583 262 583 c 2
 478 583 l 1
 574 100 l 1
 602 100 611 98 619 90 c 0
 630 81 635 66 632 50 c 0
 628 33 615 16 598 7 c 0
 589 2 576 0 555 0 c 2
 416 0 l 2
 392 0 381 3 373 10 c 0
 362 19 357 34 361 50 c 0
 364 67 377 84 394 93 c 0
 404 99 411 100 437 100 c 2
 460 100 l 1
 450 158 l 1xe0
430 258 m 1
 393 450 l 1
 273 258 l 1
 430 258 l 1
606 799 m 0xe8
 623 799 635 785 632 771 c 0
 629 756 618 741 591 715 c 0
 557 681 530 667 501 667 c 0xf0
 479 667 449 681 411 709 c 0
 387 726 379 730 365 730 c 0
 347 730 338 723 301 685 c 0
 290 675 281 670 271 670 c 0
 254 670 243 683 247 700 c 0
 250 714 264 733 285 754 c 0
 316 783 349 799 378 799 c 0xe8
 401 799 417 792 460 762 c 0
 489 742 501 736 512 736 c 0xf0
 527 736 532 739 560 769 c 0
 579 789 594 799 606 799 c 0xe8
EndSplineSet
EndChar
StartChar: Adieresis
Encoding: 131 196 141
Width: 600
Flags: W
HStem: 0 100<45 199 404 555 416 588> 158 100<212 450> 483 100<241 304> 678 120<306.5 366 514.5 574>
Fore
450 158 m 1
 212 158 l 1
 176 100 l 1
 199 100 l 2
 226 100 234 98 242 91 c 0
 253 81 258 66 255 50 c 0
 251 33 238 16 221 7 c 0
 212 2 199 0 178 0 c 2
 45 0 l 2
 1 0 -17 17 -10 50 c 0
 -7 67 6 84 23 93 c 0
 33 99 42 100 67 100 c 1
 304 483 l 1
 241 483 l 2
 215 483 205 485 197 492 c 0
 186 502 181 517 184 533 c 0
 188 550 200 566 217 576 c 0
 228 582 235 583 262 583 c 2
 478 583 l 1
 574 100 l 1
 602 100 611 98 619 90 c 0
 630 81 635 66 632 50 c 0
 628 33 615 16 598 7 c 0
 589 2 576 0 555 0 c 2
 416 0 l 2
 392 0 381 3 373 10 c 0
 362 19 357 34 361 50 c 0
 364 67 377 84 394 93 c 0
 404 99 411 100 437 100 c 2
 460 100 l 1
 450 158 l 1
430 258 m 1
 393 450 l 1
 273 258 l 1
 430 258 l 1
349 798 m 0
 383 798 403 771 396 737 c 0
 389 705 356 678 323 678 c 0
 290 678 269 705 276 738 c 0
 283 771 316 798 349 798 c 0
557 798 m 0
 591 798 611 771 604 737 c 0
 597 705 564 678 531 678 c 0
 498 678 477 705 484 738 c 0
 491 771 524 798 557 798 c 0
EndSplineSet
EndChar
StartChar: Aring
Encoding: 132 197 142
Width: 600
Flags: W
HStem: 0 100<45 199 404 555 416 588> 158 100<212 450> 483 100<241 304> 630 54<383.5 450> 818 53<434.5 502>
Fore
450 158 m 1
 212 158 l 1
 176 100 l 1
 199 100 l 2
 226 100 234 98 242 91 c 0
 253 81 258 66 255 50 c 0
 251 33 238 16 221 7 c 0
 212 2 199 0 178 0 c 2
 45 0 l 2
 1 0 -17 17 -10 50 c 0
 -7 67 6 84 23 93 c 0
 33 99 42 100 67 100 c 1
 304 483 l 1
 241 483 l 2
 215 483 205 485 197 492 c 0
 186 502 181 517 184 533 c 0
 188 550 200 566 217 576 c 0
 228 582 235 583 262 583 c 2
 478 583 l 1
 574 100 l 1
 602 100 611 98 619 90 c 0
 630 81 635 66 632 50 c 0
 628 33 615 16 598 7 c 0
 589 2 576 0 555 0 c 2
 416 0 l 2
 392 0 381 3 373 10 c 0
 362 19 357 34 361 50 c 0
 364 67 377 84 394 93 c 0
 404 99 411 100 437 100 c 2
 460 100 l 1
 450 158 l 1
430 258 m 1
 393 450 l 1
 273 258 l 1
 430 258 l 1
468 871 m 0
 536 871 579 816 565 749 c 0
 552 685 483 630 417 630 c 0
 350 630 306 685 320 751 c 0
 333 816 401 871 468 871 c 0
457 818 m 0
 419 818 380 787 373 751 c 0
 365 715 390 684 428 684 c 0
 465 684 505 715 512 750 c 0
 520 787 495 818 457 818 c 0
EndSplineSet
EndChar
StartChar: AE
Encoding: 133 198 143
Width: 600
Flags: W
HStem: 0 100<24 74 248 614> 483 100<257 717>
Fore
74 100 m 1
 271 483 l 1
 257 483 l 2
 232 483 221 485 214 492 c 0
 203 502 198 518 201 533 c 0
 205 550 218 567 234 576 c 0
 245 582 252 583 278 583 c 2
 717 583 l 1
 682 418 l 2
 676 391 672 383 663 373 c 0
 651 360 634 352 618 352 c 0
 601 352 587 361 580 376 c 0
 577 384 577 395 582 418 c 2
 596 483 l 1
 470 483 l 1
 440 342 l 1
 459 342 l 1
 468 377 490 397 520 397 c 0
 537 397 552 388 558 373 c 0
 562 364 562 357 556 331 c 2
 540 253 l 2
 534 226 530 218 521 208 c 0
 508 195 492 187 476 187 c 0
 446 187 431 208 438 243 c 1
 419 243 l 1
 388 100 l 1
 535 100 l 1
 540 123 l 2
 545 148 550 158 559 168 c 0
 571 181 588 189 604 189 c 0
 621 189 636 180 642 165 c 0
 646 156 645 148 640 123 c 2
 614 0 l 1
 265 0 l 2
 231 0 213 20 220 52 c 0
 226 79 252 100 280 100 c 2
 288 100 l 1
 301 158 l 1
 208 158 l 1
 178 100 l 1
 203 96 215 79 209 53 c 0
 202 19 177 0 141 0 c 2
 46 0 l 2
 2 0 -16 17 -9 50 c 0
 -6 67 7 84 24 93 c 0
 34 99 43 100 67 100 c 2
 74 100 l 1
322 259 m 1
 367 471 l 1
 258 259 l 1
 322 259 l 1
EndSplineSet
EndChar
StartChar: Ccedilla
Encoding: 134 199 144
Width: 600
Flags: W
HStem: -229 70<238 288> 497 100<354.5 458>
Fore
258 -229 m 0
 218 -229 140 -211 150 -166 c 0
 154 -147 173 -131 192 -131 c 0
 200 -131 202 -132 219 -142 c 0
 234 -153 255 -159 272 -159 c 0
 295 -159 310 -150 314 -134 c 0
 318 -113 302 -100 271 -100 c 0
 267 -100 263 -100 245 -102 c 1
 265 -9 l 1
 209 3 177 16 146 43 c 0
 91 92 68 167 86 249 c 2
 100 315 l 2
 134 475 277 597 432 597 c 0
 484 597 517 589 567 563 c 2
 576 559 l 1
 593 577 606 583 623 583 c 0
 641 583 655 574 661 559 c 0
 665 550 664 542 659 517 c 2
 641 433 l 2
 636 408 631 397 622 388 c 0
 610 375 593 367 577 367 c 0
 564 367 551 373 545 381 c 0
 539 389 538 396 538 420 c 0
 539 444 532 457 507 473 c 0
 483 488 449 497 415 497 c 0
 313 497 222 421 200 315 c 2
 186 251 l 2
 165 151 228 86 347 86 c 0
 393 86 435 94 463 109 c 0
 475 115 475 115 508 143 c 0
 522 154 535 159 548 159 c 0
 575 159 593 136 587 108 c 0
 581 82 545 48 496 23 c 0
 451 1 404 -10 334 -14 c 1
 328 -42 l 1
 377 -52 395 -81 384 -132 c 0
 372 -188 318 -229 258 -229 c 0
EndSplineSet
EndChar
StartChar: Egrave
Encoding: 135 200 145
Width: 600
Flags: W
HStem: 0 100<67.5 550> 243 99<246 352> 483 100<182 652>
Fore
246 243 m 1
 215 100 l 1
 471 100 l 1
 482 152 l 2
 488 180 492 188 501 198 c 0
 514 212 531 219 547 219 c 0
 564 219 578 210 584 195 c 0
 588 186 588 177 582 152 c 2
 550 0 l 1
 79 0 l 2
 56 0 43 3 36 10 c 0
 25 19 20 34 24 50 c 0
 27 67 40 83 57 93 c 0
 67 99 76 100 100 100 c 2
 115 100 l 1
 197 483 l 1
 182 483 l 2
 157 483 146 485 139 492 c 0
 128 502 123 517 126 533 c 0
 130 550 143 567 159 576 c 0
 170 582 177 583 203 583 c 2
 652 583 l 1
 620 433 l 2
 614 405 610 397 601 387 c 0
 588 374 572 366 556 366 c 0
 539 366 525 375 518 390 c 0
 515 399 515 409 520 433 c 2
 531 483 l 1
 297 483 l 1
 267 342 l 1
 352 342 l 1
 353 349 l 2
 359 376 363 385 372 395 c 0
 385 408 401 416 416 416 c 0
 443 416 458 398 456 370 c 0
 455 361 454 358 452 349 c 2
 428 236 l 2
 423 210 419 200 410 191 c 0
 397 178 380 170 365 170 c 0
 348 170 333 179 327 194 c 0
 324 203 324 212 329 236 c 2
 331 243 l 1
 246 243 l 1
386 824 m 2
 495 712 l 2
 509 699 513 688 511 676 c 0
 507 657 486 640 466 640 c 0
 457 640 448 645 437 656 c 2
 328 767 l 2
 314 781 310 790 313 803 c 0
 317 823 336 839 357 839 c 0
 367 839 374 835 386 824 c 2
EndSplineSet
EndChar
StartChar: Eacute
Encoding: 136 201 146
Width: 600
Flags: W
HStem: 0 100<67.5 550> 243 99<246 352> 483 100<182 652>
Fore
246 243 m 1
 215 100 l 1
 471 100 l 1
 482 152 l 2
 488 180 492 188 501 198 c 0
 514 212 531 219 547 219 c 0
 564 219 578 210 584 195 c 0
 588 186 588 177 582 152 c 2
 550 0 l 1
 79 0 l 2
 56 0 43 3 36 10 c 0
 25 19 20 34 24 50 c 0
 27 67 40 83 57 93 c 0
 67 99 76 100 100 100 c 2
 115 100 l 1
 197 483 l 1
 182 483 l 2
 157 483 146 485 139 492 c 0
 128 502 123 517 126 533 c 0
 130 550 143 567 159 576 c 0
 170 582 177 583 203 583 c 2
 652 583 l 1
 620 433 l 2
 614 405 610 397 601 387 c 0
 588 374 572 366 556 366 c 0
 539 366 525 375 518 390 c 0
 515 399 515 409 520 433 c 2
 531 483 l 1
 297 483 l 1
 267 342 l 1
 352 342 l 1
 353 349 l 2
 359 376 363 385 372 395 c 0
 385 408 401 416 416 416 c 0
 443 416 458 398 456 370 c 0
 455 361 454 358 452 349 c 2
 428 236 l 2
 423 210 419 200 410 191 c 0
 397 178 380 170 365 170 c 0
 348 170 333 179 327 194 c 0
 324 203 324 212 329 236 c 2
 331 243 l 1
 246 243 l 1
580 767 m 1
 423 656 l 2
 408 645 397 640 388 640 c 0
 368 640 355 657 359 676 c 0
 361 688 371 700 389 712 c 1
 546 824 l 2
 562 835 571 839 581 839 c 0
 602 839 615 823 611 803 c 0
 608 790 600 780 580 767 c 1
EndSplineSet
EndChar
StartChar: Ecircumflex
Encoding: 137 202 147
Width: 600
Flags: W
HStem: 0 100<67.5 550> 243 99<246 352> 483 100<182 652>
Fore
246 243 m 1
 215 100 l 1
 471 100 l 1
 482 152 l 2
 488 180 492 188 501 198 c 0
 514 212 531 219 547 219 c 0
 564 219 578 210 584 195 c 0
 588 186 588 177 582 152 c 2
 550 0 l 1
 79 0 l 2
 56 0 43 3 36 10 c 0
 25 19 20 34 24 50 c 0
 27 67 40 83 57 93 c 0
 67 99 76 100 100 100 c 2
 115 100 l 1
 197 483 l 1
 182 483 l 2
 157 483 146 485 139 492 c 0
 128 502 123 517 126 533 c 0
 130 550 143 567 159 576 c 0
 170 582 177 583 203 583 c 2
 652 583 l 1
 620 433 l 2
 614 405 610 397 601 387 c 0
 588 374 572 366 556 366 c 0
 539 366 525 375 518 390 c 0
 515 399 515 409 520 433 c 2
 531 483 l 1
 297 483 l 1
 267 342 l 1
 352 342 l 1
 353 349 l 2
 359 376 363 385 372 395 c 0
 385 408 401 416 416 416 c 0
 443 416 458 398 456 370 c 0
 455 361 454 358 452 349 c 2
 428 236 l 2
 423 210 419 200 410 191 c 0
 397 178 380 170 365 170 c 0
 348 170 333 179 327 194 c 0
 324 203 324 212 329 236 c 2
 331 243 l 1
 246 243 l 1
451 750 m 1
 318 653 l 2
 304 643 296 640 287 640 c 0
 268 640 256 657 259 675 c 0
 262 689 265 692 291 711 c 2
 470 839 l 1
 594 711 l 1
 602 702 614 693 610 675 c 0
 607 657 587 640 569 640 c 0
 559 640 552 644 543 653 c 2
 451 750 l 1
EndSplineSet
EndChar
StartChar: Edieresis
Encoding: 138 203 148
Width: 600
Flags: W
HStem: 0 100<67.5 550> 243 99<246 352> 483 100<182 652> 678 120<314.5 374 522.5 582>
Fore
246 243 m 1
 215 100 l 1
 471 100 l 1
 482 152 l 2
 488 180 492 188 501 198 c 0
 514 212 531 219 547 219 c 0
 564 219 578 210 584 195 c 0
 588 186 588 177 582 152 c 2
 550 0 l 1
 79 0 l 2
 56 0 43 3 36 10 c 0
 25 19 20 34 24 50 c 0
 27 67 40 83 57 93 c 0
 67 99 76 100 100 100 c 2
 115 100 l 1
 197 483 l 1
 182 483 l 2
 157 483 146 485 139 492 c 0
 128 502 123 517 126 533 c 0
 130 550 143 567 159 576 c 0
 170 582 177 583 203 583 c 2
 652 583 l 1
 620 433 l 2
 614 405 610 397 601 387 c 0
 588 374 572 366 556 366 c 0
 539 366 525 375 518 390 c 0
 515 399 515 409 520 433 c 2
 531 483 l 1
 297 483 l 1
 267 342 l 1
 352 342 l 1
 353 349 l 2
 359 376 363 385 372 395 c 0
 385 408 401 416 416 416 c 0
 443 416 458 398 456 370 c 0
 455 361 454 358 452 349 c 2
 428 236 l 2
 423 210 419 200 410 191 c 0
 397 178 380 170 365 170 c 0
 348 170 333 179 327 194 c 0
 324 203 324 212 329 236 c 2
 331 243 l 1
 246 243 l 1
357 798 m 0
 391 798 411 771 404 737 c 0
 397 705 364 678 331 678 c 0
 298 678 277 705 284 738 c 0
 291 771 324 798 357 798 c 0
565 798 m 0
 599 798 619 771 612 737 c 0
 605 705 572 678 539 678 c 0
 506 678 485 705 492 738 c 0
 499 771 532 798 565 798 c 0
EndSplineSet
EndChar
StartChar: Igrave
Encoding: 139 204 149
Width: 600
Flags: W
HStem: 0 100<149 473> 483 100<252 588.5 273 588.5>
Fore
453 483 m 1
 371 100 l 1
 472 100 l 2
 499 100 507 98 515 91 c 0
 527 81 531 66 528 50 c 0
 521 17 495 0 451 0 c 2
 149 0 l 2
 125 0 114 3 106 10 c 0
 95 19 90 35 94 50 c 0
 97 67 110 84 127 93 c 0
 137 99 144 100 170 100 c 2
 271 100 l 1
 353 483 l 1
 252 483 l 2
 227 483 216 485 209 492 c 0
 198 502 193 517 196 533 c 0
 200 550 213 567 229 576 c 0
 240 582 247 583 273 583 c 2
 575 583 l 2
 602 583 609 581 618 574 c 0
 630 564 634 549 630 533 c 0
 627 516 614 499 597 490 c 0
 588 485 577 483 554 483 c 2
 453 483 l 1
395 824 m 2
 504 712 l 2
 518 699 522 688 520 676 c 0
 516 657 495 640 475 640 c 0
 466 640 457 645 446 656 c 2
 337 767 l 2
 323 781 319 790 322 803 c 0
 326 823 345 839 366 839 c 0
 376 839 383 835 395 824 c 2
EndSplineSet
EndChar
StartChar: Iacute
Encoding: 140 205 150
Width: 600
Flags: W
HStem: 0 100<149 473> 483 100<252 588.5 273 588.5>
Fore
453 483 m 1
 371 100 l 1
 472 100 l 2
 499 100 507 98 515 91 c 0
 527 81 531 66 528 50 c 0
 521 17 495 0 451 0 c 2
 149 0 l 2
 125 0 114 3 106 10 c 0
 95 19 90 35 94 50 c 0
 97 67 110 84 127 93 c 0
 137 99 144 100 170 100 c 2
 271 100 l 1
 353 483 l 1
 252 483 l 2
 227 483 216 485 209 492 c 0
 198 502 193 517 196 533 c 0
 200 550 213 567 229 576 c 0
 240 582 247 583 273 583 c 2
 575 583 l 2
 602 583 609 581 618 574 c 0
 630 564 634 549 630 533 c 0
 627 516 614 499 597 490 c 0
 588 485 577 483 554 483 c 2
 453 483 l 1
615 767 m 1
 458 656 l 2
 443 645 432 640 423 640 c 0
 403 640 390 657 394 676 c 0
 396 688 406 700 424 712 c 1
 581 824 l 2
 597 835 606 839 616 839 c 0
 637 839 650 823 646 803 c 0
 643 790 635 780 615 767 c 1
EndSplineSet
EndChar
StartChar: Icircumflex
Encoding: 141 206 151
Width: 600
Flags: W
HStem: 0 100<149 473> 483 100<252 588.5 273 588.5>
Fore
453 483 m 1
 371 100 l 1
 472 100 l 2
 499 100 507 98 515 91 c 0
 527 81 531 66 528 50 c 0
 521 17 495 0 451 0 c 2
 149 0 l 2
 125 0 114 3 106 10 c 0
 95 19 90 35 94 50 c 0
 97 67 110 84 127 93 c 0
 137 99 144 100 170 100 c 2
 271 100 l 1
 353 483 l 1
 252 483 l 2
 227 483 216 485 209 492 c 0
 198 502 193 517 196 533 c 0
 200 550 213 567 229 576 c 0
 240 582 247 583 273 583 c 2
 575 583 l 2
 602 583 609 581 618 574 c 0
 630 564 634 549 630 533 c 0
 627 516 614 499 597 490 c 0
 588 485 577 483 554 483 c 2
 453 483 l 1
459 750 m 1
 326 653 l 2
 312 643 304 640 295 640 c 0
 276 640 264 657 267 675 c 0
 270 689 273 692 299 711 c 2
 478 839 l 1
 602 711 l 1
 610 702 622 693 618 675 c 0
 615 657 595 640 577 640 c 0
 567 640 560 644 551 653 c 2
 459 750 l 1
EndSplineSet
EndChar
StartChar: Idieresis
Encoding: 142 207 152
Width: 600
Flags: W
HStem: 0 100<149 473> 483 100<252 588.5 273 588.5> 678 120<323.5 383 531.5 591>
Fore
453 483 m 1
 371 100 l 1
 472 100 l 2
 499 100 507 98 515 91 c 0
 527 81 531 66 528 50 c 0
 521 17 495 0 451 0 c 2
 149 0 l 2
 125 0 114 3 106 10 c 0
 95 19 90 35 94 50 c 0
 97 67 110 84 127 93 c 0
 137 99 144 100 170 100 c 2
 271 100 l 1
 353 483 l 1
 252 483 l 2
 227 483 216 485 209 492 c 0
 198 502 193 517 196 533 c 0
 200 550 213 567 229 576 c 0
 240 582 247 583 273 583 c 2
 575 583 l 2
 602 583 609 581 618 574 c 0
 630 564 634 549 630 533 c 0
 627 516 614 499 597 490 c 0
 588 485 577 483 554 483 c 2
 453 483 l 1
366 798 m 0
 400 798 420 771 413 737 c 0
 406 705 373 678 340 678 c 0
 307 678 286 705 293 738 c 0
 300 771 333 798 366 798 c 0
574 798 m 0
 608 798 628 771 621 737 c 0
 614 705 581 678 548 678 c 0
 515 678 494 705 501 738 c 0
 508 771 541 798 574 798 c 0
EndSplineSet
EndChar
StartChar: Eth
Encoding: 143 208 153
Width: 600
Flags: W
HStem: 0 100<76 95 79 336> 243 100<118 140 226 321> 483 100<157.5 416>
Fore
126 243 m 1
 118 243 l 2
 95 243 82 246 75 253 c 0
 64 262 59 277 62 293 c 0
 66 310 79 327 95 336 c 0
 106 342 113 343 140 343 c 2
 147 343 l 1
 177 483 l 1
 138 483 119 501 126 533 c 0
 130 550 143 567 159 576 c 0
 170 582 177 583 204 583 c 2
 416 583 l 2
 562 583 648 462 615 305 c 2
 605 258 l 2
 589 185 552 123 496 75 c 0
 436 23 371 0 284 0 c 2
 79 0 l 2
 56 0 44 3 36 10 c 0
 25 19 20 35 24 50 c 0
 30 82 57 100 95 100 c 1
 126 243 l 1
226 243 m 1
 195 100 l 1
 306 100 l 2
 366 100 402 112 440 144 c 1
 474 175 495 210 505 261 c 2
 515 307 l 2
 525 354 519 398 497 432 c 0
 474 467 440 483 387 483 c 2
 277 483 l 1
 247 343 l 1
 321 343 l 2
 348 343 355 341 364 334 c 0
 376 324 380 309 376 293 c 0
 369 260 344 243 300 243 c 2
 226 243 l 1
EndSplineSet
EndChar
StartChar: Ntilde
Encoding: 144 209 154
Width: 600
Flags: W
HStem: 0 100<74.5 94 79 229> 483 100<161 182 499 654> 667 69<506 535.5> 730 69<372 405>
Fore
257 394 m 1xc0
 194 100 l 1
 229 100 l 2
 256 100 265 98 273 91 c 0
 284 81 288 66 285 50 c 0
 281 33 269 17 251 7 c 0
 244 3 228 0 208 0 c 2
 79 0 l 2
 55 0 43 3 35 10 c 0
 24 19 19 34 23 50 c 0
 29 82 55 100 94 100 c 1
 176 483 l 1
 161 483 l 2
 136 483 125 485 118 492 c 0
 107 502 102 517 105 533 c 0
 109 550 122 567 138 576 c 0
 149 582 156 583 182 583 c 2
 297 583 l 1
 472 191 l 1
 534 483 l 1
 499 483 l 2
 474 483 463 485 456 492 c 0
 445 502 440 517 443 533 c 0
 447 550 460 567 476 576 c 0
 487 582 494 583 520 583 c 2
 650 583 l 2
 677 583 684 581 693 574 c 0
 704 564 709 549 705 533 c 0
 698 501 674 483 634 483 c 1
 531 0 l 1
 432 0 l 1
 257 394 l 1xc0
621 799 m 1xd0
 640 797 651 786 648 771 c 0
 645 756 634 741 607 715 c 0
 573 681 546 667 517 667 c 0xe0
 495 667 465 681 427 709 c 0
 404 727 395 730 381 730 c 0
 363 730 354 724 315 684 c 0
 306 675 297 670 287 670 c 0
 270 670 259 683 263 700 c 0
 266 714 279 732 300 753 c 0
 331 783 364 799 393 799 c 0xd0
 417 799 432 792 476 762 c 0
 504 743 517 736 528 736 c 0xe0
 543 736 548 740 577 770 c 0
 594 789 608 798 621 799 c 1xd0
EndSplineSet
EndChar
StartChar: Ograve
Encoding: 145 210 155
Width: 600
Flags: W
HStem: -14 100<220 373> 497 100<350 460.5>
Fore
427 597 m 0
 494 597 553 570 596 520 c 0
 646 460 660 383 640 287 c 0
 605 123 449 -14 297 -14 c 0
 143 -14 47 123 83 292 c 0
 119 460 273 597 427 597 c 0
406 497 m 0
 308 497 207 404 183 292 c 0
 159 179 220 86 318 86 c 0
 415 86 517 179 540 289 c 0
 565 404 505 497 406 497 c 0
398 824 m 2
 507 712 l 2
 521 699 525 688 523 676 c 0
 519 657 498 640 478 640 c 0
 469 640 460 645 449 656 c 2
 340 767 l 2
 326 781 322 790 325 803 c 0
 329 823 348 839 369 839 c 0
 379 839 386 835 398 824 c 2
EndSplineSet
EndChar
StartChar: Oacute
Encoding: 146 211 156
Width: 600
Flags: W
HStem: -14 100<220 373> 497 100<350 460.5>
Fore
427 597 m 0
 494 597 553 570 596 520 c 0
 646 460 660 383 640 287 c 0
 605 123 449 -14 297 -14 c 0
 143 -14 47 123 83 292 c 0
 119 460 273 597 427 597 c 0
406 497 m 0
 308 497 207 404 183 292 c 0
 159 179 220 86 318 86 c 0
 415 86 517 179 540 289 c 0
 565 404 505 497 406 497 c 0
586 767 m 1
 429 656 l 2
 414 645 403 640 394 640 c 0
 374 640 361 657 365 676 c 0
 367 688 377 700 395 712 c 1
 552 824 l 2
 568 835 577 839 587 839 c 0
 608 839 621 823 617 803 c 0
 614 790 606 780 586 767 c 1
EndSplineSet
EndChar
StartChar: Ocircumflex
Encoding: 147 212 157
Width: 600
Flags: W
HStem: -14 100<220 373> 497 100<350 460.5>
Fore
427 597 m 0
 494 597 553 570 596 520 c 0
 646 460 660 383 640 287 c 0
 605 123 449 -14 297 -14 c 0
 143 -14 47 123 83 292 c 0
 119 460 273 597 427 597 c 0
406 497 m 0
 308 497 207 404 183 292 c 0
 159 179 220 86 318 86 c 0
 415 86 517 179 540 289 c 0
 565 404 505 497 406 497 c 0
459 750 m 1
 326 653 l 2
 312 643 304 640 295 640 c 0
 276 640 264 657 267 675 c 0
 270 689 273 692 299 711 c 2
 478 839 l 1
 602 711 l 1
 610 702 622 693 618 675 c 0
 615 657 595 640 577 640 c 0
 567 640 560 644 551 653 c 2
 459 750 l 1
EndSplineSet
EndChar
StartChar: Otilde
Encoding: 148 213 158
Width: 600
Flags: W
HStem: -14 100<220 373> 497 100<350 460.5> 667 69<514 543.5> 730 69<380 413.5>
Fore
427 597 m 0xc0
 494 597 553 570 596 520 c 0
 646 460 660 383 640 287 c 0
 605 123 449 -14 297 -14 c 0
 143 -14 47 123 83 292 c 0
 119 460 273 597 427 597 c 0xc0
406 497 m 0
 308 497 207 404 183 292 c 0
 159 179 220 86 318 86 c 0
 415 86 517 179 540 289 c 0
 565 404 505 497 406 497 c 0
630 799 m 0xd0
 647 799 659 785 656 771 c 0
 653 756 642 741 615 715 c 0
 581 681 554 667 525 667 c 0xe0
 503 667 473 681 435 709 c 0
 411 726 403 730 389 730 c 0
 371 730 362 723 325 685 c 0
 314 675 305 670 295 670 c 0
 278 670 267 683 271 700 c 0
 274 714 288 733 309 754 c 0
 340 783 373 799 402 799 c 0xd0
 425 799 441 792 484 762 c 0
 513 742 525 736 536 736 c 0xe0
 551 736 556 739 584 769 c 0
 603 789 618 799 630 799 c 0xd0
EndSplineSet
EndChar
StartChar: Odieresis
Encoding: 149 214 159
Width: 600
Flags: W
HStem: -14 100<220 373> 497 100<350 460.5> 678 120<323.5 383 531.5 591>
Fore
427 597 m 0
 494 597 553 570 596 520 c 0
 646 460 660 383 640 287 c 0
 605 123 449 -14 297 -14 c 0
 143 -14 47 123 83 292 c 0
 119 460 273 597 427 597 c 0
406 497 m 0
 308 497 207 404 183 292 c 0
 159 179 220 86 318 86 c 0
 415 86 517 179 540 289 c 0
 565 404 505 497 406 497 c 0
366 798 m 0
 400 798 420 771 413 737 c 0
 406 705 373 678 340 678 c 0
 307 678 286 705 293 738 c 0
 300 771 333 798 366 798 c 0
574 798 m 0
 608 798 628 771 621 737 c 0
 614 705 581 678 548 678 c 0
 515 678 494 705 501 738 c 0
 508 771 541 798 574 798 c 0
EndSplineSet
EndChar
StartChar: multiply
Encoding: 150 215 160
Width: 600
Flags: W
Fore
344 209 m 1
 220 106 l 2
 194 86 183 80 167 80 c 0
 140 80 122 103 128 131 c 0
 131 147 138 156 164 177 c 2
 289 280 l 1
 207 383 l 2
 191 405 188 413 191 430 c 0
 197 457 225 480 252 480 c 0
 268 480 277 474 294 454 c 2
 375 351 l 1
 500 454 l 2
 526 475 535 480 552 480 c 0
 579 480 597 457 591 430 c 0
 588 414 580 404 555 383 c 2
 431 280 l 1
 512 177 l 2
 527 157 531 146 528 130 c 0
 522 103 494 80 467 80 c 0
 450 80 442 85 426 106 c 2
 344 209 l 1
EndSplineSet
EndChar
StartChar: Oslash
Encoding: 151 216 161
Width: 600
Flags: W
HStem: -14 100<272.5 374> 497 100<349.5 453>
Fore
165 28 m 1
 96 -40 l 2
 71 -65 62 -70 43 -70 c 0
 16 -70 -1 -49 4 -23 c 0
 7 -10 13 -2 34 19 c 2
 107 92 l 1
 74 151 65 214 82 292 c 0
 118 460 272 597 427 597 c 0
 479 597 524 581 566 549 c 1
 624 607 l 2
 648 632 659 638 678 638 c 0
 704 638 721 616 715 590 c 0
 713 577 707 569 686 548 c 2
 621 483 l 1
 650 429 656 364 641 291 c 0
 605 123 451 -14 297 -14 c 0
 248 -14 202 1 165 28 c 1
537 400 m 1
 244 107 l 1
 266 93 291 86 318 86 c 0
 415 86 517 179 541 290 c 0
 549 328 547 369 537 400 c 1
189 174 m 1
 487 471 l 1
 462 488 436 497 405 497 c 0
 307 497 206 404 182 292 c 0
 173 248 175 211 189 174 c 1
EndSplineSet
EndChar
StartChar: Ugrave
Encoding: 152 217 162
Width: 600
Flags: W
HStem: -14 100<270 353.5> 483 100<274 344 497 648 518 661.5>
Fore
632 483 m 1
 573 205 l 2
 557 134 519 78 452 35 c 0
 402 2 352 -14 297 -14 c 0
 243 -14 198 2 162 35 c 0
 116 78 99 134 115 205 c 2
 174 483 l 1
 134 484 116 501 123 533 c 0
 127 550 140 567 156 576 c 0
 167 582 175 583 200 583 c 2
 330 583 l 2
 358 583 365 582 374 574 c 0
 384 564 389 549 385 533 c 0
 382 516 369 499 352 490 c 0
 343 485 332 483 309 483 c 2
 274 483 l 1
 213 196 l 2
 200 135 247 86 318 86 c 0
 389 86 458 135 471 196 c 2
 532 483 l 1
 497 483 l 2
 471 483 461 485 454 492 c 0
 443 502 438 517 441 533 c 0
 445 550 458 567 474 576 c 0
 485 582 492 583 518 583 c 2
 648 583 l 2
 675 583 682 581 692 574 c 0
 703 564 707 549 703 533 c 0
 696 501 672 483 632 483 c 1
398 824 m 2
 507 712 l 2
 521 699 525 688 523 676 c 0
 519 657 498 640 478 640 c 0
 469 640 460 645 449 656 c 2
 340 767 l 2
 326 781 322 790 325 803 c 0
 329 823 348 839 369 839 c 0
 379 839 386 835 398 824 c 2
EndSplineSet
EndChar
StartChar: Uacute
Encoding: 153 218 163
Width: 600
Flags: W
HStem: -14 100<270 353.5> 483 100<274 344 497 648 518 661.5>
Fore
632 483 m 1
 573 205 l 2
 557 134 519 78 452 35 c 0
 402 2 352 -14 297 -14 c 0
 243 -14 198 2 162 35 c 0
 116 78 99 134 115 205 c 2
 174 483 l 1
 134 484 116 501 123 533 c 0
 127 550 140 567 156 576 c 0
 167 582 175 583 200 583 c 2
 330 583 l 2
 358 583 365 582 374 574 c 0
 384 564 389 549 385 533 c 0
 382 516 369 499 352 490 c 0
 343 485 332 483 309 483 c 2
 274 483 l 1
 213 196 l 2
 200 135 247 86 318 86 c 0
 389 86 458 135 471 196 c 2
 532 483 l 1
 497 483 l 2
 471 483 461 485 454 492 c 0
 443 502 438 517 441 533 c 0
 445 550 458 567 474 576 c 0
 485 582 492 583 518 583 c 2
 648 583 l 2
 675 583 682 581 692 574 c 0
 703 564 707 549 703 533 c 0
 696 501 672 483 632 483 c 1
586 767 m 1
 429 656 l 2
 414 645 403 640 394 640 c 0
 374 640 361 657 365 676 c 0
 367 688 377 700 395 712 c 1
 552 824 l 2
 568 835 577 839 587 839 c 0
 608 839 621 823 617 803 c 0
 614 790 606 780 586 767 c 1
EndSplineSet
EndChar
StartChar: Ucircumflex
Encoding: 154 219 164
Width: 600
Flags: W
HStem: -14 100<270 353.5> 483 100<274 344 497 648 518 661.5>
Fore
632 483 m 1
 573 205 l 2
 557 134 519 78 452 35 c 0
 402 2 352 -14 297 -14 c 0
 243 -14 198 2 162 35 c 0
 116 78 99 134 115 205 c 2
 174 483 l 1
 134 484 116 501 123 533 c 0
 127 550 140 567 156 576 c 0
 167 582 175 583 200 583 c 2
 330 583 l 2
 358 583 365 582 374 574 c 0
 384 564 389 549 385 533 c 0
 382 516 369 499 352 490 c 0
 343 485 332 483 309 483 c 2
 274 483 l 1
 213 196 l 2
 200 135 247 86 318 86 c 0
 389 86 458 135 471 196 c 2
 532 483 l 1
 497 483 l 2
 471 483 461 485 454 492 c 0
 443 502 438 517 441 533 c 0
 445 550 458 567 474 576 c 0
 485 582 492 583 518 583 c 2
 648 583 l 2
 675 583 682 581 692 574 c 0
 703 564 707 549 703 533 c 0
 696 501 672 483 632 483 c 1
459 750 m 1
 326 653 l 2
 312 643 304 640 295 640 c 0
 276 640 264 657 267 675 c 0
 270 689 273 692 299 711 c 2
 478 839 l 1
 602 711 l 1
 610 702 622 693 618 675 c 0
 615 657 595 640 577 640 c 0
 567 640 560 644 551 653 c 2
 459 750 l 1
EndSplineSet
EndChar
StartChar: Udieresis
Encoding: 155 220 165
Width: 600
Flags: W
HStem: -14 100<270 353.5> 483 100<274 344 497 648 518 661.5> 678 120<323.5 383 531.5 591>
Fore
632 483 m 1
 573 205 l 2
 557 134 519 78 452 35 c 0
 402 2 352 -14 297 -14 c 0
 243 -14 198 2 162 35 c 0
 116 78 99 134 115 205 c 2
 174 483 l 1
 134 484 116 501 123 533 c 0
 127 550 140 567 156 576 c 0
 167 582 175 583 200 583 c 2
 330 583 l 2
 358 583 365 582 374 574 c 0
 384 564 389 549 385 533 c 0
 382 516 369 499 352 490 c 0
 343 485 332 483 309 483 c 2
 274 483 l 1
 213 196 l 2
 200 135 247 86 318 86 c 0
 389 86 458 135 471 196 c 2
 532 483 l 1
 497 483 l 2
 471 483 461 485 454 492 c 0
 443 502 438 517 441 533 c 0
 445 550 458 567 474 576 c 0
 485 582 492 583 518 583 c 2
 648 583 l 2
 675 583 682 581 692 574 c 0
 703 564 707 549 703 533 c 0
 696 501 672 483 632 483 c 1
366 798 m 0
 400 798 420 771 413 737 c 0
 406 705 373 678 340 678 c 0
 307 678 286 705 293 738 c 0
 300 771 333 798 366 798 c 0
574 798 m 0
 608 798 628 771 621 737 c 0
 614 705 581 678 548 678 c 0
 515 678 494 705 501 738 c 0
 508 771 541 798 574 798 c 0
EndSplineSet
EndChar
StartChar: Yacute
Encoding: 156 221 166
Width: 600
Flags: W
HStem: 0 100<185 436> 483 100<167.5 212 617 650.5>
Fore
134 533 m 0
 142 569 173 583 212 583 c 2
 301 583 l 2
 328 583 336 581 345 574 c 0
 355 564 360 549 356 533 c 0
 351 510 336 495 308 484 c 1
 374 348 l 1
 497 484 l 1
 472 494 462 510 467 533 c 0
 471 550 484 567 500 576 c 0
 511 582 520 583 545 583 c 2
 637 583 l 2
 664 583 672 581 680 574 c 0
 692 564 696 549 692 533 c 0
 686 502 653 479 619 483 c 2
 617 483 l 1
 402 245 l 1
 371 100 l 1
 436 100 l 2
 464 100 472 98 480 91 c 0
 491 81 496 66 493 50 c 0
 489 33 476 16 459 7 c 0
 452 3 436 0 415 0 c 2
 185 0 l 2
 161 0 149 3 141 10 c 0
 130 19 125 34 129 50 c 0
 132 67 145 84 162 93 c 0
 172 99 179 100 206 100 c 2
 271 100 l 1
 302 245 l 1
 188 483 l 1
 147 483 127 501 134 533 c 0
589 767 m 1
 432 656 l 2
 417 645 406 640 397 640 c 0
 377 640 364 657 368 676 c 0
 370 688 380 700 398 712 c 1
 555 824 l 2
 571 835 580 839 590 839 c 0
 611 839 624 823 620 803 c 0
 617 790 609 780 589 767 c 1
EndSplineSet
EndChar
StartChar: Thorn
Encoding: 157 222 167
Width: 600
Flags: W
HStem: 0 100<80 315> 140 100<225 410> 343 100<268 399> 483 100<183 418>
Fore
225 140 m 1
 216 100 l 1
 315 100 l 2
 342 100 350 98 358 91 c 0
 369 81 374 66 371 50 c 0
 367 33 354 16 337 7 c 0
 330 3 314 0 294 0 c 2
 80 0 l 2
 57 0 44 3 37 10 c 0
 26 19 21 35 25 50 c 0
 28 67 41 84 58 93 c 0
 68 99 77 100 101 100 c 2
 116 100 l 1
 198 483 l 1
 183 483 l 2
 156 483 148 485 140 492 c 0
 129 502 124 517 127 533 c 0
 131 550 144 567 160 576 c 0
 169 581 183 583 204 583 c 2
 418 583 l 2
 442 583 453 580 461 574 c 0
 472 564 477 549 473 533 c 0
 470 516 457 499 440 490 c 0
 430 484 421 483 397 483 c 2
 298 483 l 1
 289 443 l 1
 387 443 l 2
 489 443 538 427 569 382 c 0
 586 358 592 325 585 292 c 0
 578 259 558 225 531 201 c 0
 480 156 425 140 323 140 c 2
 225 140 l 1
246 240 m 1
 377 240 l 2
 443 240 475 255 483 291 c 0
 491 328 466 343 399 343 c 2
 268 343 l 1
 246 240 l 1
EndSplineSet
EndChar
StartChar: germandbls
Encoding: 158 223 168
Width: 600
Flags: W
HStem: -16 100<336.5 417.5> 0 100<67 116> 523 100<349.5 450.5>
Fore
116 100 m 1x60
 197 478 l 2
 215 563 299 623 400 623 c 0
 501 623 563 551 543 456 c 0
 535 419 522 397 489 365 c 1
 556 320 582 249 564 165 c 0
 541 57 464 -16 371 -16 c 0
 302 -16 262 31 276 97 c 0
 283 134 307 156 338 156 c 0
 351 156 364 151 370 142 c 0
 375 135 375 134 376 113 c 0
 376 94 384 84 400 84 c 0xa0
 428 84 454 116 464 164 c 0
 472 200 464 234 443 259 c 0
 422 285 393 297 342 303 c 0
 306 307 292 323 298 353 c 0
 304 381 327 399 361 402 c 0
 388 405 397 407 409 415 c 0
 427 425 440 442 444 459 c 0
 451 496 425 523 379 523 c 0
 332 523 302 502 293 461 c 2
 216 100 l 1
 243 95 255 78 249 51 c 0
 241 16 217 0 172 0 c 2
 79 0 l 2
 55 0 43 3 35 9 c 0
 25 19 20 35 24 50 c 0
 27 67 41 84 57 93 c 0
 67 99 75 100 100 100 c 2
 116 100 l 1x60
EndSplineSet
EndChar
StartChar: agrave
Encoding: 159 224 169
Width: 600
Flags: W
HStem: -16 100<169.5 269> 0 100<505 526> 196 92<286 361> 350 100<352.5 449.5>
Fore
388 0 m 1x70
 393 23 l 1
 340 -2 278 -16 219 -16 c 0xb0
 120 -16 52 45 67 119 c 0
 74 150 96 185 126 212 c 0
 182 262 256 288 345 288 c 0
 377 288 408 285 447 278 c 1
 452 301 l 2
 459 335 433 350 369 350 c 0
 336 350 298 345 250 333 c 0
 232 329 218 327 209 327 c 0
 181 327 164 349 170 378 c 0
 175 399 188 413 209 420 c 0
 261 437 338 450 388 450 c 0
 511 450 573 395 553 302 c 2
 510 100 l 1
 526 100 l 2
 553 100 562 98 570 91 c 0
 580 81 585 66 582 50 c 0
 578 33 565 16 548 7 c 0
 540 2 526 0 505 0 c 2
 388 0 l 1x70
418 135 m 1
 428 185 l 1
 390 192 354 196 320 196 c 0
 252 196 182 161 174 123 c 0
 169 101 199 84 242 84 c 0
 296 84 355 101 418 135 c 1
351 680 m 2
 460 569 l 2
 473 556 478 545 475 532 c 0
 471 513 450 496 430 496 c 0
 420 496 414 500 402 512 c 2
 293 624 l 1
 278 637 275 647 277 660 c 0
 282 680 301 696 322 696 c 0
 333 696 337 693 351 680 c 2
EndSplineSet
EndChar
StartChar: aacute
Encoding: 160 225 170
Width: 600
Flags: W
HStem: -16 100<169.5 269> 0 100<505 526> 196 92<286 361> 350 100<352.5 449.5>
Fore
388 0 m 1x70
 393 23 l 1
 340 -2 278 -16 219 -16 c 0xb0
 120 -16 52 45 67 119 c 0
 74 150 96 185 126 212 c 0
 182 262 256 288 345 288 c 0
 377 288 408 285 447 278 c 1
 452 301 l 2
 459 335 433 350 369 350 c 0
 336 350 298 345 250 333 c 0
 232 329 218 327 209 327 c 0
 181 327 164 349 170 378 c 0
 175 399 188 413 209 420 c 0
 261 437 338 450 388 450 c 0
 511 450 573 395 553 302 c 2
 510 100 l 1
 526 100 l 2
 553 100 562 98 570 91 c 0
 580 81 585 66 582 50 c 0
 578 33 565 16 548 7 c 0
 540 2 526 0 505 0 c 2
 388 0 l 1x70
418 135 m 1
 428 185 l 1
 390 192 354 196 320 196 c 0
 252 196 182 161 174 123 c 0
 169 101 199 84 242 84 c 0
 296 84 355 101 418 135 c 1
552 624 m 1
 395 512 l 2
 377 500 369 496 359 496 c 0
 339 496 326 513 330 532 c 0
 333 545 342 556 361 569 c 2
 518 680 l 2
 536 693 542 696 553 696 c 0
 574 696 587 680 582 659 c 0
 580 647 571 637 552 624 c 1
EndSplineSet
EndChar
StartChar: acircumflex
Encoding: 161 226 171
Width: 600
Flags: W
HStem: -16 100<169.5 269> 0 100<505 526> 196 92<286 361> 350 100<352.5 449.5>
Fore
388 0 m 1x70
 393 23 l 1
 340 -2 278 -16 219 -16 c 0xb0
 120 -16 52 45 67 119 c 0
 74 150 96 185 126 212 c 0
 182 262 256 288 345 288 c 0
 377 288 408 285 447 278 c 1
 452 301 l 2
 459 335 433 350 369 350 c 0
 336 350 298 345 250 333 c 0
 232 329 218 327 209 327 c 0
 181 327 164 349 170 378 c 0
 175 399 188 413 209 420 c 0
 261 437 338 450 388 450 c 0
 511 450 573 395 553 302 c 2
 510 100 l 1
 526 100 l 2
 553 100 562 98 570 91 c 0
 580 81 585 66 582 50 c 0
 578 33 565 16 548 7 c 0
 540 2 526 0 505 0 c 2
 388 0 l 1x70
418 135 m 1
 428 185 l 1
 390 192 354 196 320 196 c 0
 252 196 182 161 174 123 c 0
 169 101 199 84 242 84 c 0
 296 84 355 101 418 135 c 1
419 607 m 1
 285 510 l 2
 272 501 264 497 255 497 c 0
 236 497 223 514 227 532 c 0
 230 546 233 549 259 567 c 2
 438 696 l 1
 569 560 l 0
 578 551 580 543 578 532 c 0
 574 514 555 497 537 497 c 0
 528 497 519 501 510 510 c 2
 419 607 l 1
EndSplineSet
EndChar
StartChar: atilde
Encoding: 162 227 172
Width: 600
Flags: W
HStem: -16 100<169.5 269> 0 100<505 526> 196 92<286 361> 350 100<352.5 449.5> 523 69<469 499.5> 587 69<336 368.5>
Fore
388 0 m 1x70
 393 23 l 1
 340 -2 278 -16 219 -16 c 0xb0
 120 -16 52 45 67 119 c 0
 74 150 96 185 126 212 c 0
 182 262 256 288 345 288 c 0
 377 288 408 285 447 278 c 1
 452 301 l 2
 459 335 433 350 369 350 c 0
 336 350 298 345 250 333 c 0
 232 329 218 327 209 327 c 0
 181 327 164 349 170 378 c 0
 175 399 188 413 209 420 c 0
 261 437 338 450 388 450 c 0
 511 450 573 395 553 302 c 2
 510 100 l 1
 526 100 l 2
 553 100 562 98 570 91 c 0
 580 81 585 66 582 50 c 0
 578 33 565 16 548 7 c 0
 540 2 526 0 505 0 c 2
 388 0 l 1x70
418 135 m 1
 428 185 l 1
 390 192 354 196 320 196 c 0
 252 196 182 161 174 123 c 0
 169 101 199 84 242 84 c 0
 296 84 355 101 418 135 c 1
585 656 m 0x34
 602 656 614 642 611 628 c 0
 608 613 597 598 570 571 c 0
 536 537 509 523 480 523 c 0x38
 458 523 428 537 390 566 c 0
 367 584 359 587 345 587 c 0
 327 587 317 580 280 541 c 0
 270 530 261 526 251 526 c 0
 234 526 223 540 226 556 c 0
 229 570 243 590 265 611 c 0
 296 640 328 656 357 656 c 0x34
 380 656 396 649 439 618 c 0
 469 598 481 592 492 592 c 0x38
 507 592 512 596 540 626 c 0
 558 646 573 656 585 656 c 0x34
EndSplineSet
EndChar
StartChar: adieresis
Encoding: 163 228 173
Width: 600
Flags: W
HStem: -16 100<169.5 269> 0 100<505 526> 196 92<286 361> 350 100<352.5 449.5> 534 120<282.5 341 490.5 549>
Fore
388 0 m 1x78
 393 23 l 1
 340 -2 278 -16 219 -16 c 0xb8
 120 -16 52 45 67 119 c 0
 74 150 96 185 126 212 c 0
 182 262 256 288 345 288 c 0
 377 288 408 285 447 278 c 1
 452 301 l 2
 459 335 433 350 369 350 c 0
 336 350 298 345 250 333 c 0
 232 329 218 327 209 327 c 0
 181 327 164 349 170 378 c 0
 175 399 188 413 209 420 c 0
 261 437 338 450 388 450 c 0
 511 450 573 395 553 302 c 2
 510 100 l 1
 526 100 l 2
 553 100 562 98 570 91 c 0
 580 81 585 66 582 50 c 0
 578 33 565 16 548 7 c 0
 540 2 526 0 505 0 c 2
 388 0 l 1x78
418 135 m 1
 428 185 l 1
 390 192 354 196 320 196 c 0
 252 196 182 161 174 123 c 0
 169 101 199 84 242 84 c 0
 296 84 355 101 418 135 c 1
324 654 m 0
 358 654 378 627 371 593 c 0
 364 561 332 534 299 534 c 0
 266 534 244 561 251 594 c 0
 258 627 291 654 324 654 c 0
532 654 m 0
 566 654 586 627 579 593 c 0
 572 561 540 534 507 534 c 0
 474 534 452 561 459 594 c 0
 466 627 499 654 532 654 c 0
EndSplineSet
EndChar
StartChar: aring
Encoding: 164 229 174
Width: 600
Flags: W
HStem: -16 100<169.5 269> 0 100<505 526> 196 92<286 361> 350 100<352.5 449.5> 486 54<358.5 425> 674 53<410.5 478>
Fore
388 0 m 1x7c
 393 23 l 1
 340 -2 278 -16 219 -16 c 0xbc
 120 -16 52 45 67 119 c 0
 74 150 96 185 126 212 c 0
 182 262 256 288 345 288 c 0
 377 288 408 285 447 278 c 1
 452 301 l 2
 459 335 433 350 369 350 c 0
 336 350 298 345 250 333 c 0
 232 329 218 327 209 327 c 0
 181 327 164 349 170 378 c 0
 175 399 188 413 209 420 c 0
 261 437 338 450 388 450 c 0
 511 450 573 395 553 302 c 2
 510 100 l 1
 526 100 l 2
 553 100 562 98 570 91 c 0
 580 81 585 66 582 50 c 0
 578 33 565 16 548 7 c 0
 540 2 526 0 505 0 c 2
 388 0 l 1x7c
418 135 m 1
 428 185 l 1
 390 192 354 196 320 196 c 0
 252 196 182 161 174 123 c 0
 169 101 199 84 242 84 c 0
 296 84 355 101 418 135 c 1
444 727 m 0
 512 727 555 672 541 605 c 0
 527 541 458 486 392 486 c 0
 325 486 281 541 295 607 c 0
 309 672 377 727 444 727 c 0
432 674 m 0
 394 674 356 643 348 607 c 0
 340 571 366 540 404 540 c 0
 441 540 480 571 488 606 c 0
 496 643 470 674 432 674 c 0
EndSplineSet
EndChar
StartChar: ae
Encoding: 165 230 175
Width: 600
Flags: W
HStem: -16 100<104 191.5 419 470> 172 86<397 648> 197 89<222.5 263.5> 350 100<272.5 326 494.5 554.5>
Fore
648 172 m 1xd0
 397 172 l 1xd0
 400 109 418 84 459 84 c 0
 481 84 501 89 530 101 c 0
 562 113 578 118 591 118 c 0
 617 118 632 96 626 66 c 0
 622 47 610 32 592 22 c 0
 552 0 486 -16 439 -16 c 0
 399 -16 377 -9 345 16 c 1
 334 5 321 -1 305 -1 c 0
 290 -1 280 5 272 16 c 1
 231 -7 199 -16 156 -16 c 0
 52 -16 -3 48 18 145 c 0
 27 189 49 216 96 242 c 0
 142 268 209 286 256 286 c 0xb0
 271 286 289 284 315 281 c 1
 319 301 l 2
 325 329 309 350 281 350 c 0
 264 350 255 348 187 329 c 0
 177 326 169 325 163 325 c 0
 137 325 120 348 126 376 c 0
 131 401 149 417 178 426 c 0
 217 438 278 450 303 450 c 0
 349 450 380 433 407 394 c 1
 451 433 489 450 531 450 c 0
 578 450 619 426 644 381 c 0
 666 341 672 285 657 218 c 2
 648 172 l 1xd0
283 130 m 1
 295 189 l 1
 273 195 258 197 241 197 c 0xb0
 204 197 161 186 137 171 c 0
 128 164 121 154 118 142 c 0
 111 107 134 84 176 84 c 0
 207 84 235 96 283 130 c 1
417 258 m 1xd0
 557 258 l 1
 559 285 559 299 554 313 c 0
 547 335 528 350 506 350 c 0
 483 350 457 333 440 307 c 0
 431 294 426 281 417 258 c 1xd0
EndSplineSet
EndChar
StartChar: ccedilla
Encoding: 166 231 176
Width: 600
Flags: W
HStem: -229 70<243.5 293> -16 100<289.5 368> 350 100<331 435>
Fore
263 -229 m 0
 224 -229 145 -211 155 -166 c 0
 159 -147 178 -131 197 -131 c 0
 205 -131 208 -132 224 -142 c 0
 240 -152 260 -159 277 -159 c 0
 300 -159 315 -150 319 -134 c 0
 323 -112 306 -100 270 -100 c 0
 265 -100 260 -101 250 -102 c 1
 269 -14 l 1
 215 -8 184 2 154 26 c 0
 101 66 82 131 98 206 c 0
 128 350 255 450 407 450 c 0
 463 450 509 440 543 420 c 1
 554 441 567 450 587 450 c 0
 604 450 620 441 624 428 c 0
 628 419 627 411 622 384 c 2
 605 307 l 2
 600 281 596 271 587 262 c 0
 574 249 557 241 541 241 c 0
 528 241 515 247 508 255 c 1
 501 261 501 267 500 289 c 0
 500 307 496 316 486 325 c 1
 463 341 428 350 385 350 c 0
 333 350 293 336 259 307 c 0
 228 281 206 245 198 207 c 0
 181 125 231 84 348 84 c 0
 388 84 430 89 456 97 c 0
 476 103 483 107 512 128 c 0
 523 136 533 140 545 140 c 0
 572 140 590 117 584 89 c 0
 577 58 533 23 476 5 c 0
 434 -8 395 -14 339 -16 c 1
 333 -42 l 1
 382 -52 400 -81 389 -133 c 0
 377 -188 323 -229 263 -229 c 0
EndSplineSet
EndChar
StartChar: egrave
Encoding: 167 232 177
Width: 600
Flags: W
HStem: -16 100<216.5 347> 172 88<179 587> 350 100<314 461.5>
Fore
587 172 m 1
 179 172 l 1
 189 112 236 84 324 84 c 0
 370 84 396 88 493 112 c 0
 505 115 518 117 527 117 c 0
 554 117 570 95 564 67 c 0
 560 47 546 33 520 22 c 0
 470 2 365 -16 294 -16 c 0
 139 -16 50 80 79 216 c 0
 107 348 241 450 387 450 c 0
 536 450 624 349 595 211 c 2
 587 172 l 1
200 260 m 1
 494 260 l 1
 490 315 439 350 366 350 c 0
 293 350 227 314 200 260 c 1
363 680 m 2
 472 569 l 2
 485 556 490 545 487 532 c 0
 483 513 462 496 442 496 c 0
 432 496 426 500 414 512 c 2
 305 624 l 1
 290 637 287 647 289 660 c 0
 294 680 313 696 334 696 c 0
 345 696 349 693 363 680 c 2
EndSplineSet
EndChar
StartChar: eacute
Encoding: 168 233 178
Width: 600
Flags: W
HStem: -16 100<216.5 347> 172 88<179 587> 350 100<314 461.5>
Fore
587 172 m 1
 179 172 l 1
 189 112 236 84 324 84 c 0
 370 84 396 88 493 112 c 0
 505 115 518 117 527 117 c 0
 554 117 570 95 564 67 c 0
 560 47 546 33 520 22 c 0
 470 2 365 -16 294 -16 c 0
 139 -16 50 80 79 216 c 0
 107 348 241 450 387 450 c 0
 536 450 624 349 595 211 c 2
 587 172 l 1
200 260 m 1
 494 260 l 1
 490 315 439 350 366 350 c 0
 293 350 227 314 200 260 c 1
564 624 m 1
 407 512 l 2
 389 500 381 496 371 496 c 0
 351 496 338 513 342 532 c 0
 345 545 354 556 373 569 c 2
 530 680 l 2
 548 693 554 696 565 696 c 0
 586 696 599 680 594 659 c 0
 592 647 583 637 564 624 c 1
EndSplineSet
EndChar
StartChar: ecircumflex
Encoding: 169 234 179
Width: 600
Flags: W
HStem: -16 100<216.5 347> 172 88<179 587> 350 100<314 461.5>
Fore
587 172 m 1
 179 172 l 1
 189 112 236 84 324 84 c 0
 370 84 396 88 493 112 c 0
 505 115 518 117 527 117 c 0
 554 117 570 95 564 67 c 0
 560 47 546 33 520 22 c 0
 470 2 365 -16 294 -16 c 0
 139 -16 50 80 79 216 c 0
 107 348 241 450 387 450 c 0
 536 450 624 349 595 211 c 2
 587 172 l 1
200 260 m 1
 494 260 l 1
 490 315 439 350 366 350 c 0
 293 350 227 314 200 260 c 1
434 607 m 1
 300 510 l 2
 287 501 279 497 270 497 c 0
 251 497 238 514 242 532 c 0
 245 546 248 549 274 567 c 2
 453 696 l 1
 584 560 l 0
 593 551 595 543 593 532 c 0
 589 514 570 497 552 497 c 0
 543 497 534 501 525 510 c 2
 434 607 l 1
EndSplineSet
EndChar
StartChar: edieresis
Encoding: 170 235 180
Width: 600
Flags: W
HStem: -16 100<216.5 347> 172 88<179 587> 350 100<314 461.5> 534 120<297.5 356 505.5 564>
Fore
587 172 m 1
 179 172 l 1
 189 112 236 84 324 84 c 0
 370 84 396 88 493 112 c 0
 505 115 518 117 527 117 c 0
 554 117 570 95 564 67 c 0
 560 47 546 33 520 22 c 0
 470 2 365 -16 294 -16 c 0
 139 -16 50 80 79 216 c 0
 107 348 241 450 387 450 c 0
 536 450 624 349 595 211 c 2
 587 172 l 1
200 260 m 1
 494 260 l 1
 490 315 439 350 366 350 c 0
 293 350 227 314 200 260 c 1
339 654 m 0
 373 654 393 627 386 593 c 0
 379 561 347 534 314 534 c 0
 281 534 259 561 266 594 c 0
 273 627 306 654 339 654 c 0
547 654 m 0
 581 654 601 627 594 593 c 0
 587 561 555 534 522 534 c 0
 489 534 467 561 474 594 c 0
 481 627 514 654 547 654 c 0
EndSplineSet
EndChar
StartChar: igrave
Encoding: 171 236 181
Width: 600
Flags: W
HStem: 0 100<128 493> 337 100<244 322>
Fore
443 437 m 1
 371 100 l 1
 493 100 l 2
 520 100 528 98 536 91 c 0
 547 81 552 66 549 50 c 0
 545 33 533 17 515 7 c 0
 508 3 492 0 472 0 c 2
 128 0 l 2
 105 0 92 3 85 10 c 0
 74 19 69 34 73 50 c 0
 76 67 89 84 106 93 c 0
 116 99 123 100 149 100 c 2
 271 100 l 1
 322 337 l 1
 244 337 l 2
 219 337 207 339 200 347 c 1
 189 356 184 371 187 387 c 0
 191 404 203 421 220 430 c 0
 231 436 239 437 265 437 c 2
 443 437 l 1
352 680 m 2
 461 569 l 2
 474 556 479 545 476 532 c 0
 472 513 451 496 431 496 c 0
 421 496 415 500 403 512 c 2
 294 624 l 1
 279 637 276 647 278 660 c 0
 283 680 302 696 323 696 c 0
 334 696 338 693 352 680 c 2
EndSplineSet
EndChar
StartChar: iacute
Encoding: 172 237 182
Width: 600
Flags: W
HStem: 0 100<128 493> 337 100<244 322>
Fore
443 437 m 1
 371 100 l 1
 493 100 l 2
 520 100 528 98 536 91 c 0
 547 81 552 66 549 50 c 0
 545 33 533 17 515 7 c 0
 508 3 492 0 472 0 c 2
 128 0 l 2
 105 0 92 3 85 10 c 0
 74 19 69 34 73 50 c 0
 76 67 89 84 106 93 c 0
 116 99 123 100 149 100 c 2
 271 100 l 1
 322 337 l 1
 244 337 l 2
 219 337 207 339 200 347 c 1
 189 356 184 371 187 387 c 0
 191 404 203 421 220 430 c 0
 231 436 239 437 265 437 c 2
 443 437 l 1
543 624 m 1
 386 512 l 2
 368 500 360 496 350 496 c 0
 330 496 317 513 321 532 c 0
 324 545 333 556 352 569 c 2
 509 680 l 2
 527 693 533 696 544 696 c 0
 565 696 578 680 573 659 c 0
 571 647 562 637 543 624 c 1
EndSplineSet
EndChar
StartChar: icircumflex
Encoding: 173 238 183
Width: 600
Flags: W
HStem: 0 100<128 493> 337 100<244 322>
Fore
443 437 m 1
 371 100 l 1
 493 100 l 2
 520 100 528 98 536 91 c 0
 547 81 552 66 549 50 c 0
 545 33 533 17 515 7 c 0
 508 3 492 0 472 0 c 2
 128 0 l 2
 105 0 92 3 85 10 c 0
 74 19 69 34 73 50 c 0
 76 67 89 84 106 93 c 0
 116 99 123 100 149 100 c 2
 271 100 l 1
 322 337 l 1
 244 337 l 2
 219 337 207 339 200 347 c 1
 189 356 184 371 187 387 c 0
 191 404 203 421 220 430 c 0
 231 436 239 437 265 437 c 2
 443 437 l 1
413 607 m 1
 279 510 l 2
 266 501 258 497 249 497 c 0
 230 497 217 514 221 532 c 0
 224 546 227 549 253 567 c 2
 432 696 l 1
 563 560 l 0
 572 551 574 543 572 532 c 0
 568 514 549 497 531 497 c 0
 522 497 513 501 504 510 c 2
 413 607 l 1
EndSplineSet
EndChar
StartChar: idieresis
Encoding: 174 239 184
Width: 600
Flags: W
HStem: 0 100<128 493> 337 100<244 322> 534 120<276.5 335 484.5 543>
Fore
443 437 m 1
 371 100 l 1
 493 100 l 2
 520 100 528 98 536 91 c 0
 547 81 552 66 549 50 c 0
 545 33 533 17 515 7 c 0
 508 3 492 0 472 0 c 2
 128 0 l 2
 105 0 92 3 85 10 c 0
 74 19 69 34 73 50 c 0
 76 67 89 84 106 93 c 0
 116 99 123 100 149 100 c 2
 271 100 l 1
 322 337 l 1
 244 337 l 2
 219 337 207 339 200 347 c 1
 189 356 184 371 187 387 c 0
 191 404 203 421 220 430 c 0
 231 436 239 437 265 437 c 2
 443 437 l 1
318 654 m 0
 352 654 372 627 365 593 c 0
 358 561 326 534 293 534 c 0
 260 534 238 561 245 594 c 0
 252 627 285 654 318 654 c 0
526 654 m 0
 560 654 580 627 573 593 c 0
 566 561 534 534 501 534 c 0
 468 534 446 561 453 594 c 0
 460 627 493 654 526 654 c 0
EndSplineSet
EndChar
StartChar: eth
Encoding: 175 240 185
Width: 600
Flags: W
HStem: -16 100<225.5 360.5> 350 93<312.5 418>
Fore
541 583 m 1
 491 558 l 1
 600 468 636 368 608 233 c 0
 591 153 558 99 501 55 c 0
 441 10 367 -16 297 -16 c 0
 154 -16 60 85 87 211 c 0
 114 339 245 443 380 443 c 0
 430 443 459 433 514 396 c 1
 486 445 445 490 403 518 c 1
 300 468 l 2
 279 457 275 456 266 456 c 0
 249 456 239 472 244 493 c 0
 247 507 250 510 274 522 c 2
 330 551 l 1
 317 558 302 564 295 568 c 2
 280 573 l 2
 264 579 257 590 260 604 c 0
 264 623 287 640 308 640 c 0
 331 640 359 631 400 609 c 2
 426 596 l 1
 511 637 l 2
 525 643 536 646 546 646 c 0
 563 646 574 632 570 613 c 0
 568 601 557 590 541 583 c 1
374 350 m 0
 287 350 205 289 189 212 c 0
 174 141 232 84 318 84 c 0
 403 84 486 141 501 210 c 0
 517 289 462 350 374 350 c 0
EndSplineSet
EndChar
StartChar: ntilde
Encoding: 176 241 186
Width: 600
Flags: W
HStem: 0 100<77 201 89 222 411.5 431 416 550.5> 350 100<371 478> 523 69<470 500.5> 587 69<337 369>
Fore
116 387 m 0xc0
 124 423 155 437 194 437 c 2
 288 437 l 1
 278 389 l 1
 335 435 373 450 428 450 c 0
 528 450 593 392 570 282 c 2
 531 100 l 1
 570 100 588 82 582 50 c 0
 578 33 565 16 548 7 c 0
 539 2 526 0 505 0 c 2
 416 0 l 2
 371 0 353 17 360 50 c 0
 366 82 392 100 431 100 c 1
 469 278 l 2
 480 327 456 350 396 350 c 0
 346 350 319 337 255 282 c 1
 216 100 l 1
 222 100 l 2
 249 100 257 98 265 91 c 0
 276 81 281 66 278 50 c 0
 274 33 262 17 244 7 c 0
 235 2 222 0 201 0 c 2
 89 0 l 2
 65 0 54 3 45 10 c 0
 35 19 30 35 34 50 c 0
 37 67 50 84 67 93 c 0
 77 98 85 100 110 100 c 2
 116 100 l 1
 167 337 l 1
 128 338 109 355 116 387 c 0xc0
585 656 m 1xd0
 605 654 616 643 612 627 c 0
 609 613 598 598 571 571 c 0
 537 537 510 523 481 523 c 0xe0
 459 523 429 537 391 566 c 0
 367 584 360 587 346 587 c 0
 328 587 318 581 280 540 c 0
 271 531 262 526 252 526 c 0
 235 526 224 540 227 556 c 0
 230 570 244 589 266 610 c 0
 297 640 329 656 357 656 c 0xd0
 381 656 397 649 440 618 c 0
 469 598 481 592 493 592 c 0xe0
 508 592 514 596 545 631 c 0
 558 645 574 655 585 656 c 1xd0
EndSplineSet
EndChar
StartChar: ograve
Encoding: 177 242 187
Width: 600
Flags: W
HStem: -16 100<225 369> 350 100<325 469.5>
Fore
399 450 m 0
 540 450 632 346 604 217 c 0
 576 87 441 -16 297 -16 c 0
 153 -16 60 87 88 217 c 0
 116 349 251 450 399 450 c 0
376 350 m 0
 285 350 204 293 188 217 c 0
 172 142 229 84 318 84 c 0
 407 84 488 142 504 217 c 0
 520 291 463 350 376 350 c 0
362 680 m 2
 471 569 l 2
 484 556 489 545 486 532 c 0
 482 513 461 496 441 496 c 0
 431 496 425 500 413 512 c 2
 304 624 l 1
 289 637 286 647 288 660 c 0
 293 680 312 696 333 696 c 0
 344 696 348 693 362 680 c 2
EndSplineSet
EndChar
StartChar: oacute
Encoding: 178 243 188
Width: 600
Flags: W
HStem: -16 100<225 369> 350 100<325 469.5>
Fore
399 450 m 0
 540 450 632 346 604 217 c 0
 576 87 441 -16 297 -16 c 0
 153 -16 60 87 88 217 c 0
 116 349 251 450 399 450 c 0
376 350 m 0
 285 350 204 293 188 217 c 0
 172 142 229 84 318 84 c 0
 407 84 488 142 504 217 c 0
 520 291 463 350 376 350 c 0
563 624 m 1
 406 512 l 2
 388 500 380 496 370 496 c 0
 350 496 337 513 341 532 c 0
 344 545 353 556 372 569 c 2
 529 680 l 2
 547 693 553 696 564 696 c 0
 585 696 598 680 593 659 c 0
 591 647 582 637 563 624 c 1
EndSplineSet
EndChar
StartChar: ocircumflex
Encoding: 179 244 189
Width: 600
Flags: W
HStem: -16 100<225 369> 350 100<325 469.5>
Fore
399 450 m 0
 540 450 632 346 604 217 c 0
 576 87 441 -16 297 -16 c 0
 153 -16 60 87 88 217 c 0
 116 349 251 450 399 450 c 0
376 350 m 0
 285 350 204 293 188 217 c 0
 172 142 229 84 318 84 c 0
 407 84 488 142 504 217 c 0
 520 291 463 350 376 350 c 0
429 607 m 1
 295 510 l 2
 282 501 274 497 265 497 c 0
 246 497 233 514 237 532 c 0
 240 546 243 549 269 567 c 2
 448 696 l 1
 579 560 l 0
 588 551 590 543 588 532 c 0
 584 514 565 497 547 497 c 0
 538 497 529 501 520 510 c 2
 429 607 l 1
EndSplineSet
EndChar
StartChar: otilde
Encoding: 180 245 190
Width: 600
Flags: W
HStem: -16 100<225 369> 350 100<325 469.5> 523 69<483 513.5> 587 69<350 382.5>
Fore
399 450 m 0xc0
 540 450 632 346 604 217 c 0
 576 87 441 -16 297 -16 c 0
 153 -16 60 87 88 217 c 0
 116 349 251 450 399 450 c 0xc0
376 350 m 0
 285 350 204 293 188 217 c 0
 172 142 229 84 318 84 c 0
 407 84 488 142 504 217 c 0
 520 291 463 350 376 350 c 0
599 656 m 0xd0
 616 656 628 642 625 628 c 0
 622 613 611 598 584 571 c 0
 550 537 523 523 494 523 c 0xe0
 472 523 442 537 404 566 c 0
 381 584 373 587 359 587 c 0
 341 587 331 580 294 541 c 0
 284 530 275 526 265 526 c 0
 248 526 237 540 240 556 c 0
 243 570 257 590 279 611 c 0
 310 640 342 656 371 656 c 0xd0
 394 656 410 649 453 618 c 0
 483 598 495 592 506 592 c 0xe0
 521 592 526 596 554 626 c 0
 572 646 587 656 599 656 c 0xd0
EndSplineSet
EndChar
StartChar: odieresis
Encoding: 181 246 191
Width: 600
Flags: W
HStem: -16 100<225 369> 350 100<325 469.5> 534 120<293.5 352 501.5 560>
Fore
399 450 m 0
 540 450 632 346 604 217 c 0
 576 87 441 -16 297 -16 c 0
 153 -16 60 87 88 217 c 0
 116 349 251 450 399 450 c 0
376 350 m 0
 285 350 204 293 188 217 c 0
 172 142 229 84 318 84 c 0
 407 84 488 142 504 217 c 0
 520 291 463 350 376 350 c 0
335 654 m 0
 369 654 389 627 382 593 c 0
 375 561 343 534 310 534 c 0
 277 534 255 561 262 594 c 0
 269 627 302 654 335 654 c 0
543 654 m 0
 577 654 597 627 590 593 c 0
 583 561 551 534 518 534 c 0
 485 534 463 561 470 594 c 0
 477 627 510 654 543 654 c 0
EndSplineSet
EndChar
StartChar: divide
Encoding: 182 247 192
Width: 600
Flags: W
HStem: 230 100<145 562>
Fore
178 330 m 2
 562 330 l 2
 589 330 597 328 605 321 c 0
 616 311 621 296 618 280 c 0
 614 263 601 246 584 237 c 0
 575 232 563 230 541 230 c 2
 157 230 l 2
 133 230 121 232 114 240 c 1
 103 249 98 265 102 280 c 0
 105 297 119 314 135 323 c 0
 145 329 153 330 178 330 c 2
334 160 m 0
 380 160 403 134 395 93 c 0
 386 54 351 28 306 28 c 0
 261 28 237 55 245 94 c 0
 253 133 289 160 334 160 c 0
413 532 m 0
 459 532 483 506 474 465 c 0
 466 426 430 400 385 400 c 0
 340 400 316 427 324 466 c 0
 332 505 368 532 413 532 c 0
EndSplineSet
EndChar
StartChar: oslash
Encoding: 183 248 193
Width: 600
Flags: W
HStem: -16 100<274.5 369> 350 100<323 416>
Fore
633 402 m 1
 582 359 l 1
 607 316 615 267 604 217 c 0
 576 87 441 -16 297 -16 c 0
 252 -16 212 -6 175 14 c 1
 107 -44 l 2
 81 -65 72 -70 56 -70 c 0
 29 -70 13 -49 18 -22 c 0
 22 -7 28 2 53 22 c 2
 111 72 l 1
 86 114 77 167 88 217 c 0
 116 347 252 450 394 450 c 0
 438 450 491 437 521 419 c 1
 579 468 l 2
 605 489 614 494 631 494 c 0
 657 494 674 473 668 447 c 0
 664 430 659 422 633 402 c 1
497 286 m 1
 266 91 l 1
 283 86 297 84 317 84 c 0
 407 84 488 142 504 217 c 0
 509 241 506 264 497 286 c 1
198 145 m 1
 430 342 l 1
 410 347 393 350 374 350 c 0
 285 350 204 292 188 217 c 0
 183 192 186 168 198 145 c 1
EndSplineSet
EndChar
StartChar: ugrave
Encoding: 184 249 194
Width: 600
Flags: W
HStem: -13 100<219 326> 0 100<505 550.5> 337 100<447 482>
Fore
270 -13 m 0xa0
 168 -13 105 46 128 156 c 2
 167 338 l 1
 151 338 l 1
 140 337 l 2
 109 335 89 358 95 387 c 0
 99 404 111 421 128 430 c 0
 139 436 147 437 172 437 c 2
 288 437 l 1
 229 159 l 2
 218 110 241 87 301 87 c 0xa0
 351 87 379 100 443 155 c 1
 482 337 l 1
 447 337 l 2
 422 337 411 339 404 347 c 1
 393 356 388 372 391 387 c 0
 395 404 407 421 424 430 c 0
 435 436 444 437 468 437 c 2
 603 437 l 1
 531 100 l 1
 570 100 588 82 582 50 c 0
 578 33 566 17 548 7 c 0
 539 2 526 0 505 0 c 2
 410 0 l 1x60
 420 48 l 1
 360 1 325 -13 270 -13 c 0xa0
360 680 m 2
 469 569 l 2
 482 556 487 545 484 532 c 0
 480 513 459 496 439 496 c 0
 429 496 423 500 411 512 c 2
 302 624 l 1
 287 637 284 647 286 660 c 0
 291 680 310 696 331 696 c 0
 342 696 346 693 360 680 c 2
EndSplineSet
EndChar
StartChar: uacute
Encoding: 185 250 195
Width: 600
Flags: W
HStem: -13 100<219 326> 0 100<505 550.5> 337 100<447 482>
Fore
270 -13 m 0xa0
 168 -13 105 46 128 156 c 2
 167 338 l 1
 151 338 l 1
 140 337 l 2
 109 335 89 358 95 387 c 0
 99 404 111 421 128 430 c 0
 139 436 147 437 172 437 c 2
 288 437 l 1
 229 159 l 2
 218 110 241 87 301 87 c 0xa0
 351 87 379 100 443 155 c 1
 482 337 l 1
 447 337 l 2
 422 337 411 339 404 347 c 1
 393 356 388 372 391 387 c 0
 395 404 407 421 424 430 c 0
 435 436 444 437 468 437 c 2
 603 437 l 1
 531 100 l 1
 570 100 588 82 582 50 c 0
 578 33 566 17 548 7 c 0
 539 2 526 0 505 0 c 2
 410 0 l 1x60
 420 48 l 1
 360 1 325 -13 270 -13 c 0xa0
551 624 m 1
 394 512 l 2
 376 500 368 496 358 496 c 0
 338 496 325 513 329 532 c 0
 332 545 341 556 360 569 c 2
 517 680 l 2
 535 693 541 696 552 696 c 0
 573 696 586 680 581 659 c 0
 579 647 570 637 551 624 c 1
EndSplineSet
EndChar
StartChar: ucircumflex
Encoding: 186 251 196
Width: 600
Flags: W
HStem: -13 100<219 326> 0 100<505 550.5> 337 100<447 482>
Fore
270 -13 m 0xa0
 168 -13 105 46 128 156 c 2
 167 338 l 1
 151 338 l 1
 140 337 l 2
 109 335 89 358 95 387 c 0
 99 404 111 421 128 430 c 0
 139 436 147 437 172 437 c 2
 288 437 l 1
 229 159 l 2
 218 110 241 87 301 87 c 0xa0
 351 87 379 100 443 155 c 1
 482 337 l 1
 447 337 l 2
 422 337 411 339 404 347 c 1
 393 356 388 372 391 387 c 0
 395 404 407 421 424 430 c 0
 435 436 444 437 468 437 c 2
 603 437 l 1
 531 100 l 1
 570 100 588 82 582 50 c 0
 578 33 566 17 548 7 c 0
 539 2 526 0 505 0 c 2
 410 0 l 1x60
 420 48 l 1
 360 1 325 -13 270 -13 c 0xa0
425 607 m 1
 291 510 l 2
 278 501 270 497 261 497 c 0
 242 497 229 514 233 532 c 0
 236 546 239 549 265 567 c 2
 444 696 l 1
 575 560 l 0
 584 551 586 543 584 532 c 0
 580 514 561 497 543 497 c 0
 534 497 525 501 516 510 c 2
 425 607 l 1
EndSplineSet
EndChar
StartChar: udieresis
Encoding: 187 252 197
Width: 600
Flags: W
HStem: -13 100<219 326> 0 100<505 550.5> 337 100<447 482> 534 120<288.5 347 496.5 555>
Fore
270 -13 m 0xb0
 168 -13 105 46 128 156 c 2
 167 338 l 1
 151 338 l 1
 140 337 l 2
 109 335 89 358 95 387 c 0
 99 404 111 421 128 430 c 0
 139 436 147 437 172 437 c 2
 288 437 l 1
 229 159 l 2
 218 110 241 87 301 87 c 0xb0
 351 87 379 100 443 155 c 1
 482 337 l 1
 447 337 l 2
 422 337 411 339 404 347 c 1
 393 356 388 372 391 387 c 0
 395 404 407 421 424 430 c 0
 435 436 444 437 468 437 c 2
 603 437 l 1
 531 100 l 1
 570 100 588 82 582 50 c 0
 578 33 566 17 548 7 c 0
 539 2 526 0 505 0 c 2
 410 0 l 1x70
 420 48 l 1
 360 1 325 -13 270 -13 c 0xb0
330 654 m 0
 364 654 384 627 377 593 c 0
 370 561 338 534 305 534 c 0
 272 534 250 561 257 594 c 0
 264 627 297 654 330 654 c 0
538 654 m 0
 572 654 592 627 585 593 c 0
 578 561 546 534 513 534 c 0
 480 534 458 561 465 594 c 0
 472 627 505 654 538 654 c 0
EndSplineSet
EndChar
StartChar: yacute
Encoding: 188 253 198
Width: 600
Flags: W
HStem: -205 100<43 280> 337 100<256 283 469.5 514>
Fore
436 387 m 0
 444 423 475 437 514 437 c 2
 606 437 l 2
 632 437 641 435 649 428 c 0
 661 418 665 403 661 387 c 0
 655 358 632 340 599 337 c 1
 275 -105 l 1
 280 -105 l 2
 306 -105 315 -107 324 -114 c 0
 334 -124 338 -139 335 -155 c 0
 331 -172 319 -188 302 -198 c 0
 293 -203 280 -205 258 -205 c 2
 43 -205 l 2
 18 -205 8 -203 1 -195 c 1
 -11 -186 -15 -171 -12 -155 c 0
 -8 -138 4 -121 21 -112 c 0
 31 -107 41 -105 65 -105 c 2
 165 -105 l 1
 243 3 l 1
 142 337 l 1
 111 341 97 359 103 387 c 0
 111 422 143 437 180 437 c 2
 270 437 l 2
 296 437 305 435 314 428 c 0
 324 418 329 403 325 387 c 0
 319 356 294 338 256 337 c 1
 322 114 l 1
 490 337 l 1
 449 337 429 355 436 387 c 0
585 624 m 1
 428 512 l 2
 410 500 402 496 392 496 c 0
 372 496 359 513 363 532 c 0
 366 545 375 556 394 569 c 2
 551 680 l 2
 569 693 575 696 586 696 c 0
 607 696 620 680 615 659 c 0
 613 647 604 637 585 624 c 1
EndSplineSet
EndChar
StartChar: thorn
Encoding: 189 254 199
Width: 600
Flags: W
HStem: -205 100<14 210> 10 100<301.5 400.5> 350 100<376 493.5> 524 100<169 191>
Fore
188 66 m 1
 152 -105 l 1
 210 -105 l 2
 236 -105 245 -107 254 -114 c 0
 265 -124 268 -139 265 -155 c 0
 261 -172 249 -188 232 -198 c 0
 223 -203 210 -205 188 -205 c 2
 14 -205 l 2
 -11 -205 -21 -203 -29 -195 c 0
 -40 -186 -44 -171 -41 -155 c 0
 -37 -138 -25 -121 -8 -112 c 0
 2 -106 12 -105 36 -105 c 2
 52 -105 l 1
 185 524 l 1
 169 524 l 2
 143 524 134 526 125 533 c 0
 115 543 111 558 114 574 c 0
 118 591 130 608 147 617 c 0
 157 622 167 624 191 624 c 2
 307 624 l 1
 257 392 l 1
 315 434 361 450 424 450 c 0
 563 450 646 354 619 224 c 0
 592 101 470 10 331 10 c 0
 272 10 232 26 188 66 c 1
397 350 m 0
 355 350 320 341 290 321 c 0
 257 300 230 263 223 231 c 0
 208 160 258 110 346 110 c 0
 432 110 505 160 520 230 c 0
 527 263 516 300 491 321 c 0
 469 341 438 350 397 350 c 0
EndSplineSet
EndChar
StartChar: ydieresis
Encoding: 190 255 200
Width: 600
Flags: W
HStem: -205 100<43 280> 337 100<256 283 469.5 514> 534 120<293.5 352 501.5 560>
Fore
436 387 m 0
 444 423 475 437 514 437 c 2
 606 437 l 2
 632 437 641 435 649 428 c 0
 661 418 665 403 661 387 c 0
 655 358 632 340 599 337 c 1
 275 -105 l 1
 280 -105 l 2
 306 -105 315 -107 324 -114 c 0
 334 -124 338 -139 335 -155 c 0
 331 -172 319 -188 302 -198 c 0
 293 -203 280 -205 258 -205 c 2
 43 -205 l 2
 18 -205 8 -203 1 -195 c 1
 -11 -186 -15 -171 -12 -155 c 0
 -8 -138 4 -121 21 -112 c 0
 31 -107 41 -105 65 -105 c 2
 165 -105 l 1
 243 3 l 1
 142 337 l 1
 111 341 97 359 103 387 c 0
 111 422 143 437 180 437 c 2
 270 437 l 2
 296 437 305 435 314 428 c 0
 324 418 329 403 325 387 c 0
 319 356 294 338 256 337 c 1
 322 114 l 1
 490 337 l 1
 449 337 429 355 436 387 c 0
335 654 m 0
 369 654 389 627 382 593 c 0
 375 561 343 534 310 534 c 0
 277 534 255 561 262 594 c 0
 269 627 302 654 335 654 c 0
543 654 m 0
 577 654 597 627 590 593 c 0
 583 561 551 534 518 534 c 0
 485 534 463 561 470 594 c 0
 477 627 510 654 543 654 c 0
EndSplineSet
EndChar
StartChar: uni0E01
Encoding: 191 3585 201
Width: 600
Flags: W
HStem: 0 21G<160 235 425 500> 395 63<357.5 463>
Fore
404 458 m 4
 522 458 577 361 560 283 c 14
 500 0 l 25
 425 0 l 25
 485 283 l 18
 500 353 447 395 391 395 c 8
 340 395 300 373 261 336 c 1
 298 325 320 312 335 278 c 1
 309 264 285 235 279 209 c 10
 235 0 l 25
 160 0 l 25
 204 209 l 18
 210 234 239 260 275 274 c 1
 261 297 222 309 172 318 c 1
 242 400 311 458 404 458 c 4
EndSplineSet
Comment: "Thai Gogai" 
EndChar
StartChar: uni0E02
Encoding: 192 3586 202
Width: 600
Flags: W
HStem: 0 62<162 500> 223 50<202 247.5> 395 63<311.5 398.5>
Fore
314 159 m 2
 293 62 l 1
 438 62 l 1
 520 445 l 1
 595 445 l 1
 500 0 l 1
 162 0 l 1
 175 62 l 1
 218 62 l 1
 241 168 l 2
 252 221 372 255 389 334 c 0
 393 352 379 395 345 395 c 0
 336 395 313 393 291 384 c 1
 319 380 334 348 326 309 c 0
 316 262 270 223 225 223 c 0
 179 223 151 262 161 309 c 0
 175 376 265 458 358 458 c 0
 439 458 478 399 464 334 c 0
 446 248 324 206 314 159 c 2
211 309 m 0
 206 289 218 273 236 273 c 0
 254 273 271 289 276 309 c 0
 280 328 268 344 251 344 c 0
 233 344 215 328 211 309 c 0
EndSplineSet
EndChar
StartChar: uni0E03
Encoding: 193 3587 203
Width: 600
Flags: W
HStem: 0 62<162 500> 203 50<198 243.5> 323 50<238 279.5> 425 20G<520 595>
Fore
312 149 m 2
 293 62 l 1
 438 62 l 1
 520 445 l 1
 595 445 l 1
 500 0 l 1
 162 0 l 1
 175 62 l 1
 218 62 l 1
 239 158 l 2
 250 211 372 255 389 333 c 0
 392 347 392 381 370 388 c 1
 328 363 l 1
 287 386 l 1
 281 385 274 380 266 373 c 1
 257 373 l 0
 302 373 331 335 321 288 c 0
 311 241 266 203 221 203 c 0
 175 203 146 241 156 288 c 0
 168 344 253 440 301 449 c 1
 342 422 l 1
 386 455 l 1
 426 438 476 389 464 333 c 0
 446 247 322 196 312 149 c 2
206 288 m 0
 202 269 214 253 232 253 c 0
 250 253 267 269 271 288 c 0
 275 307 265 323 247 323 c 0
 229 323 210 307 206 288 c 0
EndSplineSet
EndChar
StartChar: uni0E04
Encoding: 194 3588 204
Width: 613
Flags: W
HStem: 0 21G<165 240 438 513> 138 62<325.5 367> 268 62<358 408> 395 63<354 461.5>
Fore
325 234 m 0
 321 215 334 200 354 200 c 0
 373 200 392 215 396 234 c 0
 400 253 387 268 368 268 c 0
 348 268 329 253 325 234 c 0
184 90 m 2
 195 141 138 227 151 286 c 0
 172 387 299 458 409 458 c 4
 514 458 597 395 574 286 c 2
 513 0 l 1
 438 0 l 1
 499 286 l 2
 512 346 460 395 396 395 c 0
 324 395 239 347 226 286 c 0
 217 243 226 224 235 207 c 1
 258 247 287 287 323 308 c 0
 341 322 361 330 381 330 c 0
 435 330 469 288 458 234 c 0
 446 181 394 138 340 138 c 0
 311 138 291 154 279 180 c 1
 271 147 264 111 259 90 c 2
 240 0 l 1
 165 0 l 1
 184 90 l 2
EndSplineSet
EndChar
StartChar: uni0E05
Encoding: 195 3589 205
Width: 613
Flags: W
HStem: 0 21G<165 240 438 513> 138 62<325.5 367> 268 62<358 408>
Fore
325 234 m 0
 321 215 334 200 354 200 c 0
 373 200 392 215 396 234 c 0
 400 253 387 268 368 268 c 0
 348 268 329 253 325 234 c 0
184 90 m 2
 195 141 138 227 151 286 c 0
 167 364 263 433 344 450 c 1
 398 410 l 1
 492 451 l 1
 553 429 591 367 574 286 c 2
 513 0 l 1
 438 0 l 1
 499 286 l 2
 507 326 487 372 468 385 c 1
 386 347 l 1
 331 388 l 1
 292 371 235 329 226 286 c 0
 217 243 226 224 235 207 c 1
 258 247 287 287 323 308 c 0
 341 322 361 330 381 330 c 0
 435 330 469 288 458 234 c 0
 446 181 394 138 340 138 c 0
 311 138 291 154 279 180 c 1
 271 147 264 111 259 90 c 2
 240 0 l 1
 165 0 l 1
 184 90 l 2
EndSplineSet
EndChar
StartChar: uni0E06
Encoding: 196 3590 206
Width: 600
Flags: W
HStem: 0 21G<423 500> 203 50<117.064 159.5> 323 50<154 192.497> 425 20G<520 595>
VStem: 70.0278 51.2014<269.765 281.927> 95.4965 52.9754<33.8634 70.6671> 187.875 51.099<294.856 325.367> 308.417 75.4295<363.921 391.661>
Fore
382 354 m 0xfb
 372 307 291 241 285 213 c 2
 278 181 l 1
 305 180 319 177 361 166 c 0
 429 139 439 68 439 68 c 1
 520 445 l 1
 595 445 l 1
 500 0 l 1
 423 0 l 1
 423 0 401 67 340 96 c 0
 316 111 296 120 266 124 c 1
 253 61 l 2
 242 8 197 -12 152 -12 c 0
 115.135 -12 95.4965 13.2238 95.4965 54.5029 c 0xf7
 95.4965 65.8519 96.981 78.4144 100 92 c 0
 113 153 153 178 204 185 c 5
 213 226 l 2
 219 253 303 332 307 354 c 0
 307.921 358.373 308.417 362.216 308.417 365.626 c 0
 308.417 377.037 302.857 383.611 289 389 c 1
 245 364 l 1
 203 386 l 1
 197 385 190 380 182 373 c 1
 173 373 l 0
 211.994 373 238.975 344.466 238.975 306.268 c 0
 238.975 300.385 238.335 294.272 237 288 c 0
 227 241 182 203 137 203 c 0
 97.1277 203 70.0279 231.55 70.0278 269.765 c 0
 70.0278 275.638 70.6679 281.739 72 288 c 0
 84 344 169 440 217 449 c 1
 258 422 l 1
 308 455 l 1
 341.117 439.784 383.847 413.353 383.847 369.97 c 0
 383.847 364.883 383.259 359.562 382 354 c 0xfb
122 288 m 0
 121.479 285.524 121.229 283.099 121.229 280.754 c 0xfb
 121.229 265.102 132.346 253 148 253 c 0
 166 253 183 269 187 288 c 0
 187.59 290.803 187.875 293.54 187.875 296.171 c 0
 187.875 311.372 178.345 323 163 323 c 0
 145 323 126 307 122 288 c 0
191 124 m 1
 169 122 156 114 152 92 c 0
 149.613 81.5547 148.472 73.6922 148.472 67.6419 c 0xf7
 148.472 53.4187 154.775 49.2094 166 45 c 0
 174 41 179 65 182 80 c 2
 191 124 l 1
EndSplineSet
EndChar
StartChar: uni0E07
Encoding: 197 3591 207
Width: 615
Flags: W
HStem: 0 68<344 470> 269 63<397 443.5> 395 63<437 486.5>
Fore
415 363 m 0
 412 346 421 332 436 332 c 0
 451 332 466 346 469 363 c 0
 473 381 464 395 449 395 c 0
 434 395 419 381 415 363 c 0
352 363 m 0
 363 416 412 458 462 458 c 0
 511 458 542 416 531 363 c 2
 470 0 l 1
 344 0 l 1
 158 226 l 1
 210 270 l 1
 383 68 l 1
 409 68 l 1
 454 276 l 1
 444 272 433 269 422 269 c 0
 372 269 341 311 352 363 c 0
EndSplineSet
EndChar
StartChar: uni0E08
Encoding: 198 3592 208
Width: 600
Flags: W
HStem: 0 62<422 500> 134 62<280 328> 264 62<321 370> 395 63<346.5 449.5>
Fore
231 230 m 0
 242 283 294 326 348 326 c 0
 392 326 417 296 417 245 c 2
 422 62 l 1
 438 62 l 1
 491 309 l 2
 504 372 441 395 381 395 c 0
 312 395 260 367 212 330 c 1
 184 369 l 1
 235 413 306 458 392 458 c 0
 507 458 585 399 566 309 c 2
 500 0 l 1
 337 0 l 1
 350 146 l 1
 338 139 322 134 307 134 c 0
 253 134 220 177 231 230 c 0
293 230 m 0
 289 211 302 196 321 196 c 0
 335 196 349 211 353 230 c 0
 357 249 349 264 335 264 c 0
 316 264 297 249 293 230 c 0
EndSplineSet
EndChar
StartChar: uni0E09
Encoding: 199 3593 209
Width: 600
Flags: W
HStem: -12 62<421 467.5> 129 63<212 260> 259 63<253 305> 395 63<331 433.5>
Fore
228 225 m 0
 224 207 235 192 251 192 c 0
 269 192 286 207 290 225 c 0
 294 244 283 259 266 259 c 0
 249 259 232 244 228 225 c 0
166 225 m 0
 177 279 227 322 279 322 c 0
 331 322 363 279 352 225 c 2
 352 225 348 144 333 81 c 1
 447 189 l 1
 473 310 l 2
 486 371 426 395 365 395 c 0
 297 395 231 366 184 329 c 1
 156 368 l 1
 206 413 291 458 375 458 c 0
 492 458 567 398 548 310 c 2
 517 164 l 1
 548 151 566 121 558 83 c 0
 546 30 494 -12 441 -12 c 0
 401 -12 373 15 373 51 c 1
 313 0 l 1
 228 0 l 1
 256 131 l 1
 251 130 244 129 238 129 c 0
 186 129 155 172 166 225 c 0
428 83 m 0
 424 65 436 50 455 50 c 0
 474 50 492 65 496 83 c 0
 499 101 488 117 469 117 c 0
 451 117 432 102 428 83 c 0
EndSplineSet
EndChar
StartChar: uni0E0A
Encoding: 200 3594 210
Width: 607
Flags: W
HStem: 0 62<156 500> 223 50<200.5 246> 395 63<311.5 396.5>
Fore
320 159 m 2
 299 62 l 25
 438 62 l 17
 476 240 l 2
 484 279 497 314 471 353 c 1
 529 384 561 418 576 489 c 9
 649 482 l 17
 634 409 608 370 543 350 c 1
 567 316 561 286 551 240 c 2
 500 0 l 1
 156 0 l 9
 169 62 l 25
 224 62 l 25
 247 168 l 18
 258 221 365 255 382 334 c 0
 386 352 375 395 345 395 c 0
 336 395 313 393 291 384 c 1
 319 380 334 348 326 309 c 0
 316 262 269 223 223 223 c 0
 178 223 151 262 161 309 c 0
 175 376 265 458 358 458 c 0
 435 458 471 399 457 334 c 0
 439 248 330 206 320 159 c 2
211 309 m 0
 206 289 217 273 234 273 c 0
 253 273 271 289 276 309 c 0
 280 328 268 344 251 344 c 0
 233 344 215 328 211 309 c 0
EndSplineSet
EndChar
StartChar: uni0E0B
Encoding: 201 3595 211
Width: 607
Flags: W
HStem: 0 62<156 500> 203 50<196 241.5> 323 50<238 279.5>
Fore
500 0 m 1
 156 0 l 9
 169 62 l 25
 224 62 l 25
 245 158 l 18
 256 210 365 255 382 333 c 0
 385 347 386 380 367 388 c 1
 328 363 l 1
 287 386 l 1
 281 385 274 380 266 373 c 1
 257 373 l 0
 302 373 331 335 321 288 c 0
 311 241 265 203 218 203 c 0
 174 203 146 241 156 288 c 0
 168 344 253 440 301 449 c 1
 341 423 l 1
 381 455 l 1
 421 438 469 389 457 333 c 0
 439 247 327 195 318 149 c 2
 299 62 l 25
 438 62 l 17
 477 246 l 2
 486 285 498 321 473 360 c 1
 530 392 562 425 577 496 c 9
 649 480 l 17
 635 413 608 377 537 359 c 1
 569 324 562 293 552 246 c 2
 500 0 l 1
206 288 m 0
 202 269 212 253 229 253 c 0
 248 253 267 269 271 288 c 0
 275 307 265 323 247 323 c 0
 229 323 210 307 206 288 c 0
EndSplineSet
EndChar
StartChar: uni0E0C
Encoding: 202 3596 212
Width: 600
Flags: W
HStem: -15 51<287 338.5> 94 49<322.5 343> 105 50<171 191> 395 63<273.5 380>
Fore
336 94 m 0xd0
 322 94 310 80 307 66 c 0
 304 51 314 36 335 36 c 0
 342 36 349 49 352 61 c 0
 355 77 350 94 336 94 c 0xd0
141 71 m 0
 137 53 148 38 166 38 c 0
 184 38 202 53 206 71 c 0
 210 90 198 105 180 105 c 0xb0
 162 105 145 90 141 71 c 0
184 155 m 1
 186 155 189 155 191 155 c 0xb0
 237 155 266 117 256 71 c 0
 246 25 201 -12 155 -12 c 0
 110 -12 81 25 91 71 c 2
 122 215 l 2
 127 239 152 264 183 277 c 1
 171 299 149 312 103 321 c 1
 172 402 228 458 319 458 c 0
 441 458 458 366 442 292 c 2
 407 125 l 1
 468 68 l 1
 549 445 l 1
 624 445 l 1
 529 0 l 1
 448 -6 l 1
 389 45 l 1
 378 -6 343 -15 317 -15 c 0
 257 -15 259 35 266 66 c 0
 278 120 310 143 335 143 c 1xd0
 367 292 l 2
 381 356 363 395 306 395 c 0
 263 395 238 370 199 338 c 1
 227 328 231 315 240 282 c 1
 221 269 201 241 197 215 c 2
 184 155 l 1
EndSplineSet
EndChar
StartChar: uni0E0D
Encoding: 203 3597 213
Width: 600
Flags: HW
HStem: -166 33<330.5 411.5> -75 20<342 367> -12 50<132.5 178> 0 62<308 529> 105 50<171 191> 395 63<273.5 381.5>
Fore
350 -75 m 0xcc
 334 -75 318 -90 315 -104 c 0
 311 -121 323 -133 338 -133 c 0
 350 -133 369 -123 373 -104 c 0
 377 -87 364 -75 350 -75 c 0xcc
354 -55 m 0
 380 -55 404 -75 398 -104 c 0
 394 -120 389 -125 380 -134 c 1
 434 -134 451 -90 460 -64 c 1
 516 -64 l 17
 491 -110 453 -166 370 -166 c 0
 326 -166 281 -148 290 -104 c 0
 297 -71 330 -55 354 -55 c 0
EndSplineSet
Refer: 310 63247 N 1 0 0 1 0 0 2
Substitution: 0 65534 'nds0' uni0E0D.descless
Substitution: 0 65534 'ndsc' uni0E0D.descless
EndChar
StartChar: uni0E0E
Encoding: 204 3598 214
Width: 600
Flags: W
HStem: -170 45<181.648 234.5> -64 50<218 247.5> -12 62<107.448 156> 114 62<144 173.5> 395 63<351.5 450.473>
VStem: 488.336 74.4706<304.812 345.702>
Fore
196 214 m 2
 202 239 233 260 269 274 c 1
 255 297 216 309 166 318 c 1
 236 400 305 458 398 458 c 0
 502.947 458 562.807 381.274 562.807 310.129 c 0
 562.807 301.28 561.881 292.518 560 284 c 2
 464 -169 l 1
 389 -169 l 1
 369 -158 341 -137 313 -117 c 1
 291 -147 264 -170 205 -170 c 0
 158.297 -170 110.755 -144.842 110.755 -103.742 c 0
 110.755 -99.9604 111.157 -96.0441 112 -92 c 0
 123 -43 189 -16 238 -14 c 0
 257 -14 278 -24 299 -39 c 1
 316 -11 334 16 357 29 c 1
 396 0 l 1
 378 -19 364 -39 352 -60 c 1
 374 -71 393 -83 406 -91 c 1
 486 287 l 2
 487.589 294.414 488.336 301.468 488.336 308.157 c 0
 488.336 364.623 435.069 395 385 395 c 8
 334 395 294 373 255 336 c 1
 292 325 314 312 329 278 c 1
 303 264 277 240 271 214 c 2
 243 82 l 2
 232 30 182 -12 130 -12 c 0
 84.8957 -12 54.8387 19.5993 54.8388 61.915 c 0
 54.8388 68.3844 55.5413 75.1043 57 82 c 0
 68 134 118 176 170 176 c 0
 177 176 183 175 188 173 c 1
 196 214 l 2
119 82 m 0
 116 64 127 50 144 50 c 0
 161 50 178 64 181 82 c 0
 181.557 84.5045 181.823 86.9316 181.823 89.2544 c 0
 181.823 103.625 171.635 114 157 114 c 0
 140 114 123 100 119 82 c 0
279 -83 m 1
 260 -72 241 -64 227 -64 c 0
 209 -64 176 -79 173 -94 c 0
 170 -113 192 -125 214 -125 c 0
 240 -125 260 -106 279 -83 c 1
EndSplineSet
EndChar
StartChar: uni0E0F
Encoding: 205 3599 215
Width: 600
Flags: W
HStem: -170 45<112.03 157.5> -63 47<139 171.5> -12 62<107.448 156> 114 62<144 173.5> 395 63<351.5 450.785>
VStem: 56.5057 60.7676<-125.388 -97.9319> 488.336 75.1804<304.812 344.969>
AnchorPoint: "BelowBase" 455.363 -210 basechar 0
Fore
119 82 m 0
 116 64 127 50 144 50 c 0
 161 50 178 64 181 82 c 0
 181.557 84.5045 181.823 86.9316 181.823 89.2544 c 0
 181.823 103.625 171.635 114 157 114 c 0
 140 114 123 100 119 82 c 0
188 173 m 1
 196 214 l 2
 202 239 233 260 269 274 c 1
 255 297 216 309 166 318 c 1
 236 400 305 458 398 458 c 0
 503.57 458 563.516 380.359 563.516 309.578 c 0
 563.516 301.244 562.685 293.006 561 285 c 2
 464 -170 l 1
 389 -170 l 1
 331 -111 l 1
 295 -167 l 1
 270 -156 245 -139 228 -122 c 1
 207 -150 185 -170 130 -170 c 0
 94.0601 -170 56.5057 -144.974 56.5057 -105.802 c 0
 56.5057 -101.376 56.985 -96.7707 58 -92 c 0
 69 -41 128 -16 159 -16 c 0
 184 -16 200 -28 216 -35 c 1
 230 -10 250 19 273 32 c 1
 310 2 l 1
 287 -11 270 -39 256 -68 c 1
 267 -75 279 -82 293 -88 c 1
 347 -35 l 1
 405 -93 l 1
 486 287 l 2
 487.589 294.414 488.336 301.468 488.336 308.157 c 0
 488.336 364.623 435.069 395 385 395 c 8
 334 395 294 373 255 336 c 1
 292 325 314 312 329 278 c 1
 303 264 277 240 271 214 c 2
 243 82 l 2
 232 30 182 -12 130 -12 c 0
 84.8957 -12 54.8387 19.5993 54.8388 61.915 c 0
 54.8388 68.3844 55.5413 75.1043 57 82 c 0
 68 134 118 176 170 176 c 0
 177 176 183 175 188 173 c 1
185 -84 m 1
 174 -76 164 -63 146 -63 c 0
 132 -63 123 -72 118 -92 c 0
 117.508 -94.4597 117.273 -96.8135 117.273 -99.0503 c 0
 117.273 -115.001 129.214 -125 145 -125 c 0
 154 -125 175 -114 185 -84 c 1
EndSplineSet
EndChar
StartChar: uni0E10
Encoding: 206 3600 216
Width: 600
Flags: HW
HStem: -191 45<360 459> -134 28<395.5 427.5> -82 38<133 170.5> -44 30<420.5 453.5> 0 62<423 500> 65 83<266 316.5> 207 63<309 356.5> 357 54<502.5 566> 396 63<386.5 471.5>
Fore
191 -98 m 1xfe
 178 -88 165 -82 147 -82 c 0
 119 -82 100 -92 95 -116 c 0
 90 -139 117 -152 136 -152 c 0
 159 -152 175 -128 191 -98 c 1xfe
433 -44 m 0
 416 -44 399 -58 395 -75 c 0
 391 -92 402 -106 419 -106 c 0
 436 -106 451 -92 455 -75 c 0
 459 -58 450 -44 433 -44 c 0
484 -76 m 1
 459 -191 l 1
 360 -191 l 1
 315 -126 l 1
 266 -184 l 1
 244 -172 239 -152 224 -133 c 1
 204 -166 178 -192 132 -190 c 0
 86 -190 36 -160 45 -116 c 0
 56 -68 119 -44 159 -44 c 0
 182 -44 200 -49 213 -57 c 1
 228 -33 245 -11 268 1 c 1
 308 -22 l 1
 282 -35 264 -61 249 -88 c 1
 261 -100 263 -113 279 -124 c 1
 328 -66 l 1
 383 -146 l 1
 424 -146 l 1
 427 -132 l 1
 422 -133 417 -134 412 -134 c 0
 379 -134 357 -107 364 -74 c 0
 371 -41 404 -14 437 -14 c 0
 470 -14 491 -41 484 -74 c 2
 484 -75 l 1
 484 -76 l 1
EndSplineSet
Refer: 295 63232 N 1 0 0 1 0 0 2
Substitution: 0 65534 'nds0' uni0E10.descless
Substitution: 0 65534 'ndsc' uni0E10.descless
EndChar
StartChar: uni0E11
Encoding: 207 3601 217
Width: 600
Flags: W
HStem: 0 21G<155 230 425 500> 203 50<117 159.5> 323 50<154 192.5> 395 63<465 511.5>
VStem: 70 51<251 282> 188 51<295 325> 298 75<364.5 390.5> 500 76<360.5 412.5>
Fore
290 233 m 2
 278 177 l 1
 344 279 l 2
 391 355 438 458 492 458 c 0
 531 458 576 446 576 379 c 0
 576 366 575 350 571 333 c 2
 500 0 l 1
 425 0 l 1
 496 333 l 2
 499 345 500 356 500 365 c 0
 500 384 493 395 479 395 c 0
 469 395 434 310 396 254 c 2
 230 0 l 1
 155 0 l 1
 199 206 l 2
 205 233 292 332 296 354 c 0
 297 359 298 363 298 366 c 0
 298 372 295 377 284 380 c 1
 240 359 l 1
 199 377 l 1
 195 376 192 375 187 373 c 1
 173 373 l 0
 212 373 239 344 239 306 c 0
 239 300 238 294 237 288 c 0
 227 241 182 203 137 203 c 0
 97 203 70 232 70 270 c 0
 70 276 71 282 72 288 c 0
 84 342 167 435 216 443 c 1
 253 412 l 1
 301 451 l 1
 334 437 373 411 373 370 c 0
 373 365 372 359 371 354 c 0
 361 307 295 261 290 233 c 2
122 288 m 0
 121 286 121 283 121 281 c 0
 121 265 132 253 148 253 c 0
 166 253 183 269 187 288 c 0
 188 291 188 294 188 296 c 0
 188 311 178 323 163 323 c 0
 145 323 126 307 122 288 c 0
EndSplineSet
EndChar
StartChar: uni0E12
Encoding: 208 3602 218
Width: 600
Flags: W
HStem: -12 48<294 336.5> 94 49<334 348.5> 280 58<260.5 309.5> 425 20G<549 624>
Fore
274 280 m 0
 255 280 235 263 231 243 c 0
 226 223 239 206 258 206 c 0
 277 206 296 223 301 243 c 0
 305 263 293 280 274 280 c 0
338 94 m 0
 330 94 322 79 319 65 c 0
 316 51 318 36 326 36 c 0
 347 36 363 51 366 65 c 0
 369 79 359 94 338 94 c 0
384 310 m 2
 388 330 384 369 356 386 c 1
 277 343 l 1
 218 381 l 1
 188 359 162 312 156 280 c 0
 141 212 181 157 168 93 c 2
 169 97 l 1
 232 161 l 1
 191 163 166 200 175 245 c 0
 186 296 236 338 285 338 c 0
 334 338 366 296 355 245 c 0
 351 226 340 208 323 194 c 2
 138 0 l 1
 73 0 l 1
 93 93 l 2
 102 137 61 188 81 280 c 0
 97 359 172 433 227 447 c 1
 291 408 l 1
 376 449 l 1
 437 437 473 377 459 310 c 2
 420 126 l 1
 470 76 l 1
 549 445 l 1
 624 445 l 1
 529 0 l 1
 449 0 l 1
 402 47 l 1
 391 -4 350 -12 320 -12 c 0
 268 -12 272 36 278 65 c 0
 290 120 323 143 348 143 c 1
 384 310 l 2
EndSplineSet
EndChar
StartChar: uni0E13
Encoding: 209 3603 219
Width: 600
Flags: W
HStem: -12 50<132.5 178 444 481> 105 50<171 191> 395 63<256 364.5>
Fore
141 71 m 0
 137 53 148 38 166 38 c 0
 184 38 202 53 206 71 c 0
 210 90 198 105 180 105 c 0
 162 105 145 90 141 71 c 0
379 75 m 1
 455 136 l 1
 521 445 l 1
 596 445 l 1
 527 120 l 1
 546 109 557 87 552 63 c 0
 543 21 502 -12 460 -12 c 0
 428 -12 405 7 405 34 c 1
 363 0 l 1
 288 0 l 2
 287 0 349 287 349 287 c 2
 363 355 349 395 288 395 c 0
 250 395 221 372 195 339 c 1
 224 329 230 316 240 282 c 1
 221 269 202 241 197 215 c 2
 184 155 l 1
 186 155 189 155 191 155 c 0
 237 155 266 117 256 71 c 0
 246 25 201 -12 155 -12 c 0
 110 -12 81 25 91 71 c 2
 122 215 l 2
 127 239 152 264 183 277 c 1
 171 299 149 312 103 321 c 1
 171 402 211 458 301 458 c 0
 428 458 440 364 424 287 c 2
 379 75 l 1
449 63 m 0
 446 49 457 38 471 38 c 0
 486 38 499 49 502 63 c 0
 505 76 497 88 482 88 c 0
 467 88 452 76 449 63 c 0
EndSplineSet
EndChar
StartChar: uni0E14
Encoding: 210 3604 220
Width: 600
Flags: W
HStem: 0 21G<159 230 425 500> 280 58<359.5 408.5> 395 63<348 457.5>
Fore
274 243 m 0
 285 295 335 338 384 338 c 0
 433 338 465 295 454 243 c 0
 449 220 431 199 413 183 c 2
 230 0 l 1
 159 0 l 1
 179 96 l 2
 189 139 145 190 165 280 c 0
 187 384 306 458 401 458 c 4
 514 458 584 397 566 310 c 2
 500 0 l 1
 425 0 l 1
 491 310 l 2
 496 336 483 395 388 395 c 0
 308 395 249 326 240 280 c 0
 225 213 268 159 254 96 c 2
 255 99 l 1
 322 158 l 1
 286 165 265 201 274 243 c 0
373 280 m 0
 354 280 334 262 329 241 c 0
 325 219 337 202 356 202 c 0
 375 202 395 219 399 241 c 0
 404 262 392 280 373 280 c 0
EndSplineSet
EndChar
StartChar: uni0E15
Encoding: 211 3605 221
Width: 600
Flags: W
HStem: 0 21G<159 230 425 500> 280 58<359.5 408.5>
Fore
230 0 m 1
 159 0 l 1
 179 96 l 2
 189 139 145 190 165 280 c 0
 182 360 252 423 325 449 c 1
 390 408 l 1
 482 451 l 1
 546 428 580 376 566 310 c 2
 500 0 l 1
 425 0 l 1
 491 310 l 2
 495 329 488 366 459 386 c 1
 376 344 l 1
 314 383 l 1
 277 359 247 313 240 280 c 0
 225 213 266 159 254 96 c 2
 255 99 l 1
 322 158 l 1
 286 165 265 201 274 243 c 0
 285 295 335 338 384 338 c 0
 433 338 465 295 454 243 c 0
 449 220 434 201 413 183 c 2
 230 0 l 1
373 280 m 0
 354 280 334 262 329 241 c 0
 325 219 337 202 356 202 c 0
 375 202 395 219 399 241 c 0
 404 262 392 280 373 280 c 0
EndSplineSet
EndChar
StartChar: uni0E16
Encoding: 212 3606 222
Width: 600
Flags: W
HStem: -12 62<224 276> 114 62<268.5 316> 395 63<352 458>
Fore
239 82 m 0
 236 64 247 50 264 50 c 0
 281 50 298 64 301 82 c 0
 305 100 294 114 277 114 c 0
 260 114 243 100 239 82 c 0
272 173 m 1
 277 175 284 176 290 176 c 0
 342 176 374 134 363 82 c 0
 352 30 302 -12 250 -12 c 0
 198 -12 166 30 177 82 c 2
 206 217 l 2
 211 241 239 266 271 279 c 1
 258 301 220 313 172 322 c 1
 240 402 307 458 397 458 c 0
 519 458 577 364 561 288 c 2
 500 0 l 1
 425 0 l 1
 486 288 l 2
 500 355 443 395 384 395 c 0
 337 395 299 374 263 339 c 1
 295 329 315 316 326 283 c 1
 306 270 286 242 281 217 c 2
 272 173 l 1
EndSplineSet
EndChar
StartChar: uni0E17
Encoding: 213 3607 223
Width: 600
Flags: W
HStem: 0 21G<151 226 425 500> 269 63<164 212.5> 395 63<204 256 466.5 516>
Fore
179 363 m 0
 176 346 187 332 204 332 c 0
 221 332 238 346 241 363 c 0
 245 381 234 395 217 395 c 0
 200 395 183 381 179 363 c 0
117 363 m 0
 128 416 178 458 230 458 c 0
 282 458 314 416 303 363 c 2
 259 153 l 1
 335 270 l 2
 383 350 440 458 493 458 c 0
 539 458 594 442 572 340 c 2
 500 0 l 1
 425 0 l 1
 497 340 l 2
 504 374 500 395 480 395 c 0
 468 395 425 313 392 252 c 2
 226 0 l 1
 151 0 l 1
 209 272 l 1
 203 270 197 269 190 269 c 0
 138 269 106 311 117 363 c 0
EndSplineSet
EndChar
StartChar: uni0E18
Encoding: 214 3608 224
Width: 600
Flags: W
HStem: 0 62<105 467> 357 54<470 533> 396 63<356 440.5>
Fore
522 257 m 2xa0
 467 0 l 1
 105 0 l 1
 118 62 l 1
 173 62 l 1
 216 264 l 1
 291 264 l 1
 248 62 l 1
 405 62 l 1
 440 228 l 2
 451 277 220 321 174 330 c 1
 178 350 l 1
 244 423 315 459 397 459 c 0xa0
 484 459 468 411 525 411 c 0
 541 411 540 412 547 410 c 2
 565 424 l 1
 586 380 l 1
 571 363 l 2
 546 357 520 357 488 357 c 0xc0
 452 357 439 396 383 396 c 0
 363 396 318 393 266 356 c 1
 320 345 531 301 522 257 c 2xa0
EndSplineSet
EndChar
StartChar: uni0E19
Encoding: 215 3609 225
Width: 614
Flags: W
HStem: -12 62<421 476.5> 269 63<162 212.5> 395 63<202 256>
Fore
179 363 m 0
 176 346 186 332 201 332 c 0
 224 332 246 346 249 363 c 0
 253 381 237 395 214 395 c 0
 199 395 183 381 179 363 c 0
117 363 m 0
 128 416 177 458 227 458 c 0
 285 458 323 416 312 363 c 2
 249 66 l 1
 454 177 l 1
 511 445 l 1
 586 445 l 1
 528 173 l 1
 562 160 581 127 572 87 c 0
 561 32 505 -12 448 -12 c 0
 394 -12 361 32 372 87 c 0
 372 85 l 1
 233 0 l 1
 160 0 l 1
 218 274 l 1
 209 271 198 269 187 269 c 0
 137 269 106 311 117 363 c 0
434 87 m 0
 430 67 443 50 462 50 c 0
 484 50 505 67 509 87 c 0
 514 108 500 125 478 125 c 0
 459 125 439 108 434 87 c 0
EndSplineSet
EndChar
StartChar: uni0E1A
Encoding: 216 3610 226
Width: 600
Flags: W
HStem: 0 62<114 500> 269 63<164 212.5> 395 63<204 256>
Fore
179 363 m 0
 176 346 187 332 204 332 c 0
 221 332 238 346 241 363 c 0
 245 381 234 395 217 395 c 0
 200 395 183 381 179 363 c 0
117 363 m 0
 128 416 178 458 230 458 c 0
 282 458 314 416 303 363 c 2
 303 363 254 131 239 62 c 1
 438 62 l 1
 520 445 l 1
 595 445 l 1
 500 0 l 1
 114 0 l 1
 127 62 l 1
 164 62 l 1
 209 272 l 1
 203 270 197 269 190 269 c 0
 138 269 106 311 117 363 c 0
EndSplineSet
EndChar
StartChar: uni0E1B
Encoding: 217 3611 227
Width: 600
Flags: W
HStem: 0 62<114 500> 269 63<164 212.5> 395 63<204 256>
AnchorPoint: "AboveBase" 531.278 500 basechar 0
Fore
179 363 m 0
 176 346 187 332 204 332 c 0
 221 332 238 346 241 363 c 0
 245 381 234 395 217 395 c 0
 200 395 183 381 179 363 c 0
117 363 m 0
 128 416 178 458 230 458 c 0
 282 458 314 416 303 363 c 2
 303 363 254 131 239 62 c 1
 438 62 l 1
 555 610 l 1
 630 610 l 1
 500 0 l 1
 114 0 l 1
 127 62 l 1
 164 62 l 1
 209 272 l 1
 203 270 197 269 190 269 c 0
 138 269 106 311 117 363 c 0
EndSplineSet
EndChar
StartChar: uni0E1C
Encoding: 218 3612 228
Width: 600
Flags: W
HStem: 0 21G<104 214 385 500> 269 63<250.5 280> 395 63<268 320>
Fore
243 363 m 0
 240 346 251 332 268 332 c 0
 285 332 302 346 305 363 c 0
 309 381 298 395 281 395 c 0
 264 395 247 381 243 363 c 0
237 272 m 1
 196 81 l 1
 322 239 l 1
 392 239 l 1
 439 68 l 1
 520 445 l 1
 595 445 l 1
 500 0 l 1
 385 0 l 1
 339 161 l 1
 214 0 l 1
 104 0 l 1
 181 363 l 2
 192 416 242 458 294 458 c 0
 346 458 378 416 367 363 c 0
 356 311 306 269 254 269 c 0
 247 269 241 270 237 272 c 1
EndSplineSet
EndChar
StartChar: uni0E1D
Encoding: 219 3613 229
Width: 600
Flags: W
HStem: 0 21G<104 214 385 500> 269 63<250.5 280> 395 63<268 320>
AnchorPoint: "AboveBase" 531.278 500 basechar 0
Fore
243 363 m 0
 240 346 251 332 268 332 c 0
 285 332 302 346 305 363 c 0
 309 381 298 395 281 395 c 0
 264 395 247 381 243 363 c 0
237 272 m 1
 196 81 l 1
 322 239 l 1
 392 239 l 1
 439 68 l 1
 555 610 l 1
 630 610 l 1
 500 0 l 1
 385 0 l 1
 339 161 l 1
 214 0 l 1
 104 0 l 1
 181 363 l 2
 192 416 242 458 294 458 c 0
 346 458 378 416 367 363 c 0
 356 311 306 269 254 269 c 0
 247 269 241 270 237 272 c 1
EndSplineSet
EndChar
StartChar: uni0E1E
Encoding: 220 3614 230
Width: 600
Flags: W
HStem: 0 21G<152 249 393 500> 269 63<164 212.5> 395 63<204 256>
Fore
179 363 m 0
 176 346 187 332 204 332 c 0
 221 332 238 346 241 363 c 0
 245 381 234 395 217 395 c 0
 200 395 183 381 179 363 c 0
117 363 m 0
 128 416 178 458 230 458 c 0
 282 458 314 416 303 363 c 2
 255 137 l 1
 390 445 l 1
 451 445 l 1
 454 137 l 1
 520 445 l 1
 595 445 l 1
 500 0 l 1
 393 0 l 1
 391 307 l 1
 249 0 l 1
 152 0 l 1
 202 270 l 1
 198 269 194 269 190 269 c 0
 138 269 106 311 117 363 c 0
EndSplineSet
EndChar
StartChar: uni0E1F
Encoding: 221 3615 231
Width: 600
Flags: W
HStem: 0 21G<152 249 393 500> 269 63<164 212.5> 395 63<204 256>
AnchorPoint: "AboveBase" 531.278 500 basechar 0
Fore
179 363 m 4
 176 346 187 332 204 332 c 4
 221 332 238 346 241 363 c 4
 245 381 234 395 217 395 c 4
 200 395 183 381 179 363 c 4
117 363 m 4
 128 416 178 458 230 458 c 4
 282 458 314 416 303 363 c 6
 255 137 l 5
 390 445 l 5
 451 445 l 5
 454 137 l 5
 555 610 l 5
 630 610 l 5
 500 0 l 5
 393 0 l 5
 391 307 l 5
 249 0 l 5
 152 0 l 5
 202 270 l 5
 198 269 194 269 190 269 c 4
 138 269 106 311 117 363 c 4
EndSplineSet
EndChar
StartChar: uni0E20
Encoding: 222 3616 232
Width: 600
Flags: W
HStem: -12 62<107.448 156> 114 62<144 173.5> 395 63<351.5 450.785>
VStem: 488.336 75.1804<304.812 344.969>
Fore
188 173 m 1
 196 214 l 2
 202 239 233 260 269 274 c 1
 255 297 216 309 166 318 c 1
 236 400 305 458 398 458 c 0
 503.57 458 563.516 380.359 563.516 309.578 c 0
 563.516 301.244 562.685 293.006 561 285 c 2
 500 0 l 1
 425 0 l 1
 486 287 l 2
 487.589 294.414 488.336 301.468 488.336 308.157 c 0
 488.336 364.623 435.069 395 385 395 c 8
 334 395 294 373 255 336 c 1
 292 325 314 312 329 278 c 1
 303 264 277 240 271 214 c 2
 243 81 l 2
 232 30 182 -12 130 -12 c 0
 84.8957 -12 54.8387 19.5993 54.8388 61.915 c 0
 54.8388 68.3844 55.5413 75.1043 57 82 c 0
 68 134 118 176 170 176 c 0
 177 176 183 176 188 173 c 1
119 82 m 0
 116 64 127 50 144 50 c 0
 161 50 178 64 181 82 c 0
 181.557 84.5045 181.823 86.9316 181.823 89.2544 c 0
 181.823 103.625 171.635 114 157 114 c 0
 140 114 123 100 119 82 c 0
EndSplineSet
EndChar
StartChar: uni0E21
Encoding: 223 3617 233
Width: 600
Flags: W
HStem: 0 21G<423 500> 269 63<167.448 212.5> 395 63<204 252.552>
VStem: 81.4965 52.9754<33.8634 70.6671> 241.823 63.3385<369.093 404.917>
Fore
190 185 m 1
 209 272 l 1
 203 270 197 269 190 269 c 0
 144.896 269 114.839 300.599 114.839 342.915 c 0
 114.839 349.384 115.541 356.104 117 363 c 0
 128 416 178 458 230 458 c 0
 275.104 458 305.161 426.401 305.161 383.432 c 0
 305.161 376.863 304.459 370.028 303 363 c 2
 265 182 l 1
 302 181 316 179 365 168 c 0
 430 142 439 68 439 68 c 1
 520 445 l 1
 595 445 l 1
 500 0 l 1
 423 0 l 1
 423 0 404 66 344 95 c 0
 315 110 290 121 253 125 c 1
 239 61 l 2
 228 8 183 -12 138 -12 c 0
 101.135 -12 81.4965 13.2238 81.4965 54.5029 c 0
 81.4965 65.8519 82.981 78.4144 86 92 c 0
 99 153 139 178 190 185 c 1
177 124 m 1
 155 122 142 114 138 92 c 0
 135.613 81.5547 134.472 73.6922 134.472 67.6419 c 0
 134.472 53.4187 140.775 49.2094 152 45 c 0
 160 41 165 65 168 80 c 2
 177 124 l 1
179 363 m 0
 176 346 187 332 204 332 c 0
 221 332 238 346 241 363 c 0
 241.557 365.505 241.823 367.932 241.823 370.254 c 0
 241.823 384.625 231.635 395 217 395 c 0
 200 395 183 381 179 363 c 0
EndSplineSet
EndChar
StartChar: uni0E22
Encoding: 224 3618 234
Width: 600
Flags: W
HStem: 0 58<105 105 117 171> 269 63<263 291> 395 63<279 331>
Fore
255 363 m 0
 252 346 263 332 279 332 c 0
 296 332 313 346 316 363 c 0
 320 381 309 395 292 395 c 0
 276 395 259 381 255 363 c 0
192 363 m 0
 203 416 253 458 305 458 c 0
 357 458 390 416 379 363 c 0
 368 311 317 269 265 269 c 0
 264 269 264 269 263 269 c 1
 275 248 306 246 388 246 c 1
 377 192 l 1
 275 192 269 165 262 132 c 2
 247 62 l 1
 438 62 l 1
 520 445 l 1
 595 445 l 1
 500 0 l 1
 398 0 105 0 105 0 c 1
 117 58 l 1
 171 58 l 1
 188 135 l 2
 197 179 205 194 241 215 c 1
 175 215 175 284 192 363 c 0
EndSplineSet
EndChar
StartChar: uni0E23
Encoding: 225 3619 235
Width: 605
Flags: W
HStem: -12 62<302 352> 114 62<342 372.5> 357 63<491.5 554.5> 396 63<353.5 445>
Fore
319 82 m 0xc0
 316 64 326 50 341 50 c 0
 356 50 372 64 375 80 c 0
 379 99 369 114 354 114 c 0
 339 114 323 100 319 82 c 0xc0
257 82 m 0
 268 134 317 176 367 176 c 0
 378 176 388 174 396 170 c 1
 410 236 l 2
 414 255 398 263 344 281 c 0
 294 307 174 329 174 329 c 1
 178 350 l 1
 243 423 313 459 394 459 c 0xd0
 496 459 481 420 548 420 c 0
 561 420 559 419 566 423 c 2
 582 431 l 1
 602 388 l 1
 589 375 l 2
 564 356 542 357 514 357 c 0xe0
 469 357 450 396 380 396 c 0xd0
 362 396 324 394 280 366 c 1
 292 363 331 354 361 348 c 0
 407 336 499 300 492 266 c 2
 437 80 l 2
 426 29 377 -12 327 -12 c 0
 277 -12 246 30 257 82 c 0
EndSplineSet
EndChar
StartChar: uni0E24
Encoding: 226 3620 236
Width: 600
Flags: W
HStem: -12 62<224 276> 114 62<268.5 316> 395 63<352 458>
Fore
239 82 m 0
 236 64 247 50 264 50 c 0
 281 50 298 64 301 82 c 0
 305 100 294 114 277 114 c 0
 260 114 243 100 239 82 c 0
272 173 m 1
 277 175 284 176 290 176 c 0
 342 176 374 134 363 82 c 0
 352 30 302 -12 250 -12 c 0
 198 -12 166 30 177 82 c 2
 206 217 l 2
 211 241 239 266 271 279 c 1
 258 301 220 313 172 322 c 1
 240 402 307 458 397 458 c 0
 519 458 577 364 561 288 c 2
 465 -165 l 1
 390 -165 l 1
 486 288 l 2
 500 355 443 395 384 395 c 0
 337 395 299 374 263 339 c 1
 295 329 315 316 326 283 c 1
 306 270 286 242 281 217 c 2
 272 173 l 1
EndSplineSet
EndChar
StartChar: uni0E25
Encoding: 227 3621 237
Width: 608
Flags: W
HStem: -12 62<222 272> 114 62<270.5 320> 252 62<314 398.5> 395 63<344.5 449.5>
Fore
239 82 m 0
 236 64 246 50 261 50 c 0
 276 50 292 64 295 82 c 0
 299 100 292 114 280 114 c 0
 261 114 243 100 239 82 c 0
272 173 m 1
 280 175 288 176 298 176 c 0
 342 176 368 134 357 82 c 0
 346 30 297 -12 247 -12 c 0
 197 -12 166 30 177 82 c 2
 200 189 l 2
 215 258 266 314 362 314 c 0
 435 314 471 216 471 216 c 1
 491 312 l 2
 504 372 439 395 379 395 c 0
 310 395 260 366 212 328 c 1
 184 367 l 1
 235 412 306 458 392 458 c 0
 507 458 585 400 566 312 c 2
 508 0 l 1
 425 0 l 1
 425 0 411 252 349 252 c 0
 311 252 286 240 275 189 c 2
 272 173 l 1
EndSplineSet
EndChar
StartChar: uni0E26
Encoding: 228 3622 238
Width: 600
Flags: W
HStem: -12 62<107.448 156> 114 62<144 173.5> 395 63<351.5 450.785>
VStem: 488.336 75.1804<304.812 344.969>
Fore
188 173 m 1
 196 214 l 2
 202 239 233 260 269 274 c 1
 255 297 216 309 166 318 c 1
 236 400 305 458 398 458 c 0
 503.57 458 563.516 380.359 563.516 309.578 c 0
 563.516 301.244 562.685 293.006 561 285 c 2
 465 -165 l 1
 390 -165 l 1
 486 287 l 2
 487.589 294.414 488.336 301.468 488.336 308.157 c 0
 488.336 364.623 435.069 395 385 395 c 8
 334 395 294 373 255 336 c 1
 292 325 314 312 329 278 c 1
 303 264 277 240 271 214 c 2
 243 82 l 2
 233 31 182 -12 130 -12 c 0
 84.8957 -12 54.8387 19.5993 54.8388 61.915 c 0
 54.8388 68.3844 55.5413 75.1043 57 82 c 0
 68 134 118 176 170 176 c 0
 177 176 183 176 188 173 c 1
119 82 m 0
 116 64 127 50 144 50 c 0
 161 50 178 64 181 82 c 0
 181.557 84.5045 181.823 86.9316 181.823 89.2544 c 0
 181.823 103.625 171.635 114 157 114 c 0
 140 114 123 100 119 82 c 0
EndSplineSet
EndChar
StartChar: uni0E27
Encoding: 229 3623 239
Width: 615
Flags: W
HStem: -12 62<382 432> 114 62<422 452.5> 395 63<342.5 450>
Fore
399 82 m 0
 396 64 406 50 421 50 c 0
 436 50 452 64 455 82 c 0
 459 100 449 114 434 114 c 0
 419 114 403 100 399 82 c 0
337 82 m 0
 348 134 397 176 447 176 c 0
 458 176 468 174 476 170 c 1
 504 303 l 2
 519 370 445 395 376 395 c 0
 309 395 258 362 210 320 c 1
 183 361 l 1
 233 409 303 458 387 458 c 0
 513 458 599 397 579 303 c 2
 517 82 l 2
 506 30 457 -12 407 -12 c 0
 357 -12 326 30 337 82 c 0
EndSplineSet
EndChar
StartChar: uni0E28
Encoding: 230 3624 240
Width: 614
Flags: W
HStem: 0 21G<165 240 438 513> 138 62<325.5 367> 268 62<358 387> 395 63<353.5 429>
Fore
325 234 m 0
 321 215 334 200 354 200 c 0
 373 200 392 215 396 234 c 0
 400 253 387 268 368 268 c 0
 348 268 329 253 325 234 c 0
489 337 m 1
 472 322 455 308 439 297 c 1
 456 281 463 259 458 234 c 0
 446 181 394 138 340 138 c 0
 311 138 291 154 279 180 c 1
 271 147 264 111 259 90 c 2
 240 0 l 1
 165 0 l 1
 184 90 l 2
 195 141 138 227 151 286 c 0
 172 387 298 458 409 458 c 0
 449 458 484 442 508 415 c 1
 531 440 547 464 550 482 c 1
 620 482 l 1
 613 449 586 413 550 381 c 1
 573 356 582 323 574 286 c 2
 513 0 l 1
 438 0 l 1
 499 286 l 2
 503 304 499 322 489 337 c 1
489 370 m 1
 465 385 431 395 396 395 c 0
 324 395 239 347 226 286 c 0
 217 243 226 224 235 207 c 1
 258 247 287 287 323 308 c 0
 341 322 361 330 381 330 c 0
 393 330 405 328 413 322 c 1
 438 335 465 352 489 370 c 1
EndSplineSet
EndChar
StartChar: uni0E29
Encoding: 231 3625 241
Width: 610
Flags: W
HStem: 0 62<105 503> 269 63<162 212.5> 284 62<378.5 432> 395 63<202 256>
Fore
180 365 m 0xd0
 176 347 186 332 201 332 c 0
 224 332 246 347 250 365 c 0
 253 382 237 395 214 395 c 0
 199 395 183 382 180 365 c 0xd0
118 365 m 0
 128 416 177 458 227 458 c 0
 285 458 323 416 313 365 c 2
 313 365 263 131 248 62 c 1
 441 62 l 1
 464 170 l 1
 412 123 377 134 346 157 c 0
 303 166 278 202 287 246 c 0
 299 302 352 346 405 346 c 0xb0
 459 346 492 302 480 246 c 0
 479 239 476 234 473 227 c 1
 475 230 477 233 479 238 c 1
 523 445 l 1
 598 445 l 1
 567 300 l 1
 587 319 601 335 605 338 c 1
 644 278 l 1
 611 245 578 219 546 202 c 1
 503 0 l 1
 105 0 l 1
 118 62 l 1
 173 62 l 1
 217 270 l 1
 208 270 198 269 187 269 c 0
 137 269 106 312 118 365 c 0
350 246 m 0
 346 226 357 209 375 209 c 0
 394 209 413 226 417 246 c 0
 422 267 410 284 391 284 c 0
 373 284 355 267 350 246 c 0
EndSplineSet
EndChar
StartChar: uni0E2A
Encoding: 232 3626 242
Width: 604
Flags: W
HStem: -12 62<222 272> 114 62<270.5 320> 252 62<314 380> 395 63<344.5 412.5>
Fore
239 82 m 0
 236 64 246 50 261 50 c 0
 276 50 292 64 295 82 c 0
 299 100 292 114 280 114 c 0
 261 114 243 100 239 82 c 0
533 383 m 1
 559 364 572 340 566 312 c 2
 508 0 l 1
 425 0 l 1
 425 0 411 252 349 252 c 0
 311 252 286 240 275 189 c 2
 272 173 l 1
 280 175 288 176 298 176 c 0
 342 176 368 134 357 82 c 0
 346 30 297 -12 247 -12 c 0
 197 -12 166 30 177 82 c 2
 200 189 l 2
 215 258 266 314 362 314 c 0
 371 314 379 313 386 310 c 1
 406 321 433 344 456 366 c 1
 436 386 408 395 379 395 c 0
 310 395 260 366 212 328 c 1
 184 367 l 1
 235 412 306 458 392 458 c 0
 433 458 466 444 491 420 c 1
 517 450 536 473 537 482 c 1
 607 482 l 1
 603 459 573 421 533 383 c 1
480 345 m 1
 456 322 432 301 412 290 c 1
 448 253 463 177 463 179 c 1
 491 312 l 2
 494 325 490 336 480 345 c 1
EndSplineSet
EndChar
StartChar: uni0E2B
Encoding: 233 3627 243
Width: 600
Flags: W
HStem: 0 21G<151 226 425 500> 269 63<164 212.5> 395 63<204 256 479 529>
Fore
226 0 m 1
 151 0 l 1
 209 272 l 1
 203 270 197 269 190 269 c 0
 138 269 106 311 117 363 c 0
 128 416 178 458 230 458 c 0
 282 458 314 416 303 363 c 2
 250 112 l 1
 417 292 l 1
 397 308 385 335 392 365 c 0
 402 415 454 458 504 458 c 0
 554 458 588 415 578 365 c 0
 572 338 552 313 529 297 c 1
 549 274 550 237 545 211 c 2
 500 0 l 1
 425 0 l 1
 470 211 l 2
 476 241 479 264 474 271 c 1
 226 0 l 1
454 363 m 0
 451 346 462 332 479 332 c 0
 496 332 513 346 516 363 c 0
 520 381 509 395 492 395 c 0
 475 395 458 381 454 363 c 0
179 363 m 0
 176 346 187 332 204 332 c 0
 221 332 238 346 241 363 c 0
 245 381 234 395 217 395 c 0
 200 395 183 381 179 363 c 0
EndSplineSet
EndChar
StartChar: uni0E2C
Encoding: 234 3628 244
Width: 618
Flags: W
HStem: 0 21G<152 249 393 500> 269 63<164 212.5> 395 63<203.5 255>
AnchorPoint: "AboveBase" 426.278 500 basechar 0
Fore
179 363 m 0
 176 346 187 332 204 332 c 0
 221 332 238 346 241 363 c 0
 245 381 234 395 217 395 c 0
 200 395 183 381 179 363 c 0
117 363 m 0
 128 416 178 458 229 458 c 0
 281 458 314 416 303 363 c 2
 255 137 l 1
 390 445 l 1
 451 445 l 1
 454 137 l 1
 520 446 l 1
 467 452 431 476 442 525 c 0
 451 568 513 606 551 606 c 0
 595 606 628 597 617 512 c 1
 654 527 679 562 698 592 c 1
 726 542 l 1
 700 508 654 466 596 452 c 1
 500 0 l 1
 393 0 l 1
 391 307 l 1
 249 0 l 1
 152 0 l 1
 202 270 l 1
 198 269 194 269 190 269 c 0
 138 269 106 311 117 363 c 0
546 502 m 1
 551 531 552 545 539 544 c 0
 526 543 506 538 504 525 c 0
 500 508 511 503 546 502 c 1
EndSplineSet
EndChar
StartChar: uni0E2D
Encoding: 235 3629 245
Width: 600
Flags: W
HStem: 0 62<105 105 118 173> 132 62<277.5 307> 262 62<296 348> 395 63<338 441.5>
Fore
270 228 m 0
 266 209 277 194 294 194 c 0
 311 194 328 209 332 228 c 0
 337 247 326 262 309 262 c 0
 292 262 275 247 270 228 c 0
264 135 m 1
 249 65 l 1
 439 65 l 1
 458 155 491 310 491 310 c 2
 504 372 435 395 370 395 c 0
 306 395 257 367 212 329 c 1
 184 368 l 1
 233 413 300 458 381 458 c 0
 502 458 585 399 566 310 c 2
 500 0 l 1
 105 0 l 1
 118 62 l 1
 173 62 l 1
 208 228 l 2
 220 282 270 324 322 324 c 0
 374 324 406 282 394 228 c 0
 383 175 333 132 281 132 c 0
 274 132 268 133 264 135 c 1
EndSplineSet
EndChar
StartChar: uni0E2E
Encoding: 236 3630 246
Width: 625
Flags: W
HStem: 0 62<105 105 118 173> 109 63<272.5 302> 239 63<291 343> 309 63<315.5 387> 395 63<342 431>
Fore
249 65 m 1
 439 65 l 1
 490 306 l 2
 495 330 498 350 501 365 c 1
 449 328 394 309 374 309 c 0
 257 309 195 350 202 383 c 0
 207 406 279 458 405 458 c 0
 457 458 500 444 531 419 c 1
 545 438 556 459 560 482 c 1
 635 482 l 1
 628 446 606 415 580 390 c 1
 577 366 572 339 565 306 c 2
 500 0 l 1
 105 0 l 1
 118 62 l 1
 173 62 l 1
 204 205 l 2
 215 259 265 302 317 302 c 0
 369 302 401 259 390 205 c 0
 378 152 328 109 276 109 c 0
 269 109 263 110 259 112 c 1
 249 65 l 1
266 205 m 0
 262 187 273 172 290 172 c 0
 307 172 324 187 328 205 c 0
 332 224 321 239 304 239 c 0
 287 239 270 224 266 205 c 0
446 388 m 1
 432 393 413 395 394 395 c 0
 346 395 292 393 289 383 c 0
 287 373 327 372 375 372 c 0
 399 372 424 378 446 388 c 1
EndSplineSet
EndChar
StartChar: uni0E2F
Encoding: 237 3631 247
Width: 600
Flags: W
HStem: 252 81<229.5 292.5> 395 63<261 313>
Fore
237 364 m 0
 234 347 253 333 281 333 c 0
 287 333 295 347 298 364 c 0
 302 381 291 395 274 395 c 0
 258 395 241 381 237 364 c 0
174 364 m 0
 185 416 235 458 287 458 c 0
 339 458 372 416 361 364 c 0
 358 348 348 333 334 320 c 1
 359 327 388 341 417 362 c 0
 464 385 520 445 520 445 c 1
 595 445 l 1
 574 349 529 138 529 138 c 2
 512 56 488 15 407 -18 c 1
 384 47 l 1
 432 76 443 87 454 138 c 2
 454 138 483 271 495 331 c 1
 495 331 440 294 409 286 c 0
 354 266 315 252 270 252 c 0
 189 252 164 313 174 364 c 0
EndSplineSet
EndChar
StartChar: uni0E30
Encoding: 238 3632 248
Width: 607
Flags: W
HStem: 32 75<240 321> 174 56<245.5 294.5> 252 75<287 368> 389 56<291.5 340.5>
Fore
257 174 m 0
 241 174 225 159 221 140 c 0
 217 122 237 107 264 107 c 0
 269 107 275 122 279 140 c 0
 283 159 273 174 257 174 c 0
269 230 m 16
 320 230 344 182 335 140 c 0
 333 134 332 131 330 126 c 1
 387 131 443 197 473 224 c 9
 512 164 l 17
 450 94 371 32 271 32 c 0
 209 32 149 67 165 140 c 0
 175 190 222 230 269 230 c 16
303 389 m 0
 287 389 271 375 267 358 c 0
 263 341 284 327 311 327 c 0
 316 327 321 341 325 358 c 0
 329 375 319 389 303 389 c 0
315 445 m 16
 366 445 390 399 381 358 c 0
 380 353 379 350 378 346 c 1
 435 351 489 413 518 439 c 9
 558 379 l 17
 496 312 418 252 318 252 c 0
 256 252 196 286 211 358 c 0
 221 406 268 445 315 445 c 16
EndSplineSet
EndChar
StartChar: uni0E32
Encoding: 240 3634 249
Width: 615
Flags: W
HStem: 0 21G<440 515> 395 63<342.5 450>
Fore
515 0 m 1
 578 298 l 2
 599 395 513 458 387 458 c 0
 303 458 233 408 182 359 c 1
 209 316 l 1
 258 361 309 395 376 395 c 0
 445 395 518 369 503 298 c 6
 440 0 l 5
 515 0 l 1
EndSplineSet
EndChar
StartChar: uni0E33
Encoding: 241 3635 250
Width: 600
Flags: W
HStem: 0 21G<425 500> 395 63<342.5 445.5> 444 54<215.5 263> 558 57<252.5 300>
Fore
500 0 m 1xd0
 565 306 l 2
 585 398 505 458 386 458 c 0
 305 458 238 412 189 367 c 1
 213 324 l 1
 259 364 310 395 375 395 c 0
 437 395 504 371 490 306 c 6
 425 0 l 5
 500 0 l 1xd0
263 558 m 0
 246 558 229 544 225 528 c 0
 222 512 233 498 250 498 c 0xb0
 268 498 285 512 288 528 c 0
 292 544 281 558 263 558 c 0
276 615 m 0
 324 615 354 576 344 529 c 0
 334 482 287 444 239 444 c 0
 192 444 161 482 171 529 c 0
 181 576 229 615 276 615 c 0
EndSplineSet
MultipleSubs: 0 0 'ccmp' uni0E4D uni0E32
EndChar
StartChar: uni0E38
Encoding: 246 3640 251
Width: 0
Flags: W
HStem: -194 74<-216 -190> -70 34<-212 -160>
AnchorPoint: "BelowBase" -108.502 -40 mark 0
Fore
-216 -194 m 29
 -207 -152 l 21
 -210 -154 -217 -157 -224 -157 c 4
 -254 -157 -264 -126 -257 -95 c 4
 -250 -61 -219 -36 -187 -36 c 4
 -133 -36 -113 -63 -118 -83 c 10
 -141 -194 l 25
 -216 -194 l 29
-200 -120 m 4
 -180 -120 -163 -108 -160 -95 c 4
 -157 -81 -177 -70 -207 -70 c 4
 -217 -70 -227 -81 -230 -95 c 4
 -233 -108 -220 -120 -200 -120 c 4
EndSplineSet
EndChar
StartChar: uni0E39
Encoding: 247 3641 252
Width: 0
Flags: W
HStem: -200 62<-231 -143> -70 34<-319 -262.5>
AnchorPoint: "BelowBase" -108.502 -40 mark 0
Fore
-355 -200 m 25
 -350 -178 l 17
 -346 -169 -337 -157 -330 -157 c 0
 -362 -157 -374 -126 -367 -95 c 0
 -360 -61 -325 -36 -290 -36 c 0
 -235 -36 -215 -62 -219 -81 c 2
 -231 -138 l 1
 -204 -138 l 1
 -179 -20 l 1
 -104 -20 l 1
 -143 -200 l 9
 -355 -200 l 25
-310 -120 m 0
 -306 -120 -299 -108 -296 -95 c 0
 -293 -81 -300 -70 -313 -70 c 0
 -325 -70 -337 -81 -340 -95 c 0
 -343 -108 -330 -120 -310 -120 c 0
EndSplineSet
EndChar
StartChar: uni0E3A
Encoding: 248 3642 253
Width: 0
Flags: W
HStem: -130 100<-172 -122>
AnchorPoint: "BelowBase" -108.514 -40.0557 mark 0
Fore
-136 -30 m 4
 -108 -30 -91 -52 -97 -80 c 4
 -103 -108 -130 -130 -158 -130 c 4
 -186 -130 -203 -108 -197 -80 c 4
 -191 -52 -164 -30 -136 -30 c 4
EndSplineSet
EndChar
StartChar: uni0E3F
Encoding: 253 3647 258
Width: 600
Flags: W
HStem: 0 100<67.5 253 79 253 374 433> 242 100<245 326> 483 100<182 197 203 377>
Fore
304 242 m 1
 245 242 l 1
 215 100 l 1
 274 100 l 1
 304 242 l 1
356 483 m 1
 297 483 l 1
 267 342 l 1
 326 342 l 1
 356 483 l 1
253 0 m 1
 79 0 l 2
 56 0 43 3 36 10 c 0
 25 19 20 35 24 50 c 0
 27 67 40 84 57 93 c 0
 67 99 76 100 100 100 c 2
 115 100 l 1
 197 483 l 1
 182 483 l 2
 157 483 146 485 139 492 c 0
 128 502 123 518 126 533 c 0
 130 550 144 567 159 576 c 0
 170 582 179 583 203 583 c 2
 377 583 l 1
 383 613 l 2
 389 639 393 649 402 659 c 0
 415 671 431 679 447 679 c 0
 464 679 479 670 485 655 c 0
 488 646 488 637 483 613 c 2
 477 583 l 1
 579 583 636 507 617 418 c 0
 607 372 581 339 530 305 c 1
 594 269 618 223 605 160 c 0
 585 64 492 0 374 0 c 2
 353 0 l 1
 347 -30 l 2
 341 -55 337 -65 328 -75 c 0
 315 -88 299 -96 283 -96 c 0
 266 -96 252 -87 245 -72 c 0
 241 -64 242 -53 247 -30 c 2
 253 0 l 1
404 241 m 1
 374 100 l 1
 390 100 l 2
 458 100 496 118 504 154 c 0
 509 178 497 204 475 220 c 0
 457 232 435 241 404 241 c 1
455 481 m 1
 427 347 l 1
 475 357 510 384 517 419 c 0
 524 453 501 476 455 481 c 1
EndSplineSet
EndChar
StartChar: uni0E40
Encoding: 254 3648 259
Width: 600
Flags: W
HStem: -12 62<312 362> 114 62<362 413> 425 20G<345 420>
Fore
329 82 m 0
 326 64 336 50 351 50 c 0
 366 50 382 64 385 82 c 0
 389 100 383 114 372 114 c 0
 352 114 333 100 329 82 c 0
362 172 m 1
 371 175 381 176 392 176 c 0
 434 176 458 134 447 82 c 0
 436 30 387 -12 337 -12 c 4
 287 -12 256 30 267 82 c 2
 345 445 l 1
 420 445 l 1
 362 172 l 1
EndSplineSet
EndChar
StartChar: uni0E41
Encoding: 255 3649 260
Width: 600
Flags: W
HStem: -12 62<169 221 378 430> 114 62<216 265.5 424 472> 425 20G<200 275 400 475>
Fore
185 82 m 0
 182 64 193 50 209 50 c 0
 226 50 243 64 246 82 c 0
 250 100 240 114 225 114 c 0
 207 114 189 100 185 82 c 0
393 82 m 0
 390 64 401 50 418 50 c 0
 435 50 452 64 455 82 c 0
 459 100 449 114 433 114 c 0
 415 114 397 100 393 82 c 0
217 172 m 1
 224 175 232 176 241 176 c 0
 290 176 320 134 309 82 c 0
 298 30 247 -12 195 -12 c 0
 143 -12 111 30 122 82 c 2
 200 445 l 1
 275 445 l 1
 217 172 l 1
416 171 m 1
 426 174 436 176 447 176 c 0
 497 176 528 134 517 82 c 0
 506 30 456 -12 404 -12 c 0
 352 -12 320 30 331 82 c 2
 400 445 l 1
 475 445 l 1
 416 171 l 1
EndSplineSet
EndChar
StartChar: uni0E42
Encoding: 256 3650 261
Width: 615
Flags: W
HStem: -12 62<337 386.5> 114 62<386.5 437.5> 567 63<492.5 555.5> 610 62<354.5 446>
Fore
355 81 m 0xc0
 352 64 361 50 376 50 c 0
 391 50 406 64 409 82 c 0
 413 100 407 114 396 114 c 0
 377 114 359 99 355 81 c 0xc0
395 672 m 0xd0
 497 672 482 630 549 630 c 0
 562 630 560 629 567 633 c 2
 582 641 l 1
 603 598 l 1
 589 585 l 2
 564 566 543 567 515 567 c 0xe0
 470 567 452 610 382 610 c 0xd0
 364 610 323 608 279 583 c 1
 294 579 313 571 350 555 c 0
 407 539 459 511 452 478 c 2
 387 172 l 1
 396 175 406 176 417 176 c 0
 458 176 482 134 471 82 c 0
 460 30 411 -12 362 -12 c 0
 312 -12 281 29 292 81 c 2
 370 448 l 2
 375 471 335 490 292 505 c 0
 254 526 182 544 176 545 c 1
 181 567 l 1xe0
 244 637 314 672 395 672 c 0xd0
EndSplineSet
EndChar
StartChar: uni0E43
Encoding: 257 3651 262
Width: 599
Flags: W
HStem: -12 62<375 424.5> 114 62<419.5 464.5> 386 50<253 288> 506 50<284 324> 610 62<320 410>
Fore
415 551 m 6
 420 576 402 610 356 610 c 0
 312 610 275 576 257 537 c 1
 272 549 287 556 302 556 c 0
 346 556 374 517 364 469 c 0
 354 423 310 386 266 386 c 0
 240 386 161 396 184 502 c 0
 204 596 271 672 369 672 c 0
 451 672 504 616 490 551 c 6
 409 170 l 5
 419 174 429 176 440 176 c 4
 489 176 520 134 509 82 c 4
 498 30 449 -12 400 -12 c 4
 350 -12 319 30 330 82 c 6
 415 551 l 6
393 82 m 4
 390 64 399 50 414 50 c 4
 429 50 444 64 447 82 c 4
 451 100 442 114 427 114 c 4
 412 114 397 100 393 82 c 4
277 436 m 0
 293 436 310 451 314 469 c 0
 318 489 308 506 292 506 c 0
 276 506 258 489 254 469 c 0
 250 451 261 436 277 436 c 0
EndSplineSet
EndChar
